<svg width="36" height="36" viewBox="0 0 36 36" xmlns="http://www.w3.org/2000/svg"><title>d10-8</title><g fill-rule="evenodd"><g fill-rule="nonzero"><path d="M17.5 33.518v-5.653l-11.47-4.81-2.9 1.611 14.37 8.852zm1 .615l.024.016a1 1 0 1 1-1.048 1.702l-16-9.855A1 1 0 0 1 1 25.145v-.135a.5.5 0 0 1 0-.02V14a1 1 0 0 1 .37-.776l16-13a1 1 0 1 1 1.26 1.552l-.898.73-11.023 19.75 11.484 4.816a.5.5 0 0 1 .307.46v6.601zM15.636 4.21L3 14.476v9.119l2.633-1.463L15.636 4.209z"/><path d="M20.364 4.209l10.003 17.923L33 23.595v-9.119L20.364 4.209zm-2.096-1.703l-.899-.73A1 1 0 1 1 18.631.224l16 13A1 1 0 0 1 35 14v10.99a.5.5 0 0 1 0 .02v.135a1 1 0 0 1-.476.851l-16 9.855a1 1 0 1 1-1.048-1.702l.024-.016v-6.6a.5.5 0 0 1 .307-.461l11.484-4.817L18.268 2.506zm.232 31.012l14.37-8.852-2.9-1.611-11.47 4.81v5.653z"/></g><path d="M16.585 18.365c-.426-.18-.735-.427-.929-.741a1.937 1.937 0 0 1-.29-1.034c0-.64.224-1.17.671-1.588.447-.418 1.083-.627 1.907-.627.817 0 1.45.209 1.902.627.45.418.676.947.676 1.588 0 .398-.103.753-.31 1.063-.207.31-.498.548-.873.712.476.192.839.47 1.087.838.248.367.372.791.372 1.272 0 .793-.253 1.437-.759 1.933s-1.179.744-2.018.744c-.782 0-1.432-.205-1.952-.615-.613-.484-.92-1.148-.92-1.992 0-.465.116-.892.346-1.28.23-.389.594-.689 1.09-.9zm.34-1.658c0 .328.093.584.278.768.186.183.433.275.741.275.313 0 .563-.093.75-.278.188-.186.282-.443.282-.77 0-.31-.093-.556-.279-.742-.185-.186-.43-.278-.735-.278-.316 0-.568.093-.756.28-.187.188-.281.436-.281.745zm-.153 3.68c0 .453.117.806.35 1.06.232.254.522.381.87.381.34 0 .62-.122.843-.366.223-.244.334-.597.334-1.058 0-.402-.113-.725-.34-.97a1.124 1.124 0 0 0-.861-.366c-.403 0-.702.139-.9.416a1.525 1.525 0 0 0-.296.903z"/></g></svg>