<svg width="36" height="36" viewBox="0 0 36 36" xmlns="http://www.w3.org/2000/svg"><title>d10-9</title><g fill-rule="evenodd"><g fill-rule="nonzero"><path d="M17.5 33.518v-5.653l-11.47-4.81-2.9 1.611 14.37 8.852zm1 .615l.024.016a1 1 0 1 1-1.048 1.702l-16-9.855A1 1 0 0 1 1 25.145v-.135a.5.5 0 0 1 0-.02V14a1 1 0 0 1 .37-.776l16-13a1 1 0 1 1 1.26 1.552l-.898.73-11.023 19.75 11.484 4.816a.5.5 0 0 1 .307.46v6.601zM15.636 4.21L3 14.476v9.119l2.633-1.463L15.636 4.209z"/><path d="M20.364 4.209l10.003 17.923L33 23.595v-9.119L20.364 4.209zm-2.096-1.703l-.899-.73A1 1 0 1 1 18.631.224l16 13A1 1 0 0 1 35 14v10.99a.5.5 0 0 1 0 .02v.135a1 1 0 0 1-.476.851l-16 9.855a1 1 0 1 1-1.048-1.702l.024-.016v-6.6a.5.5 0 0 1 .307-.461l11.484-4.817L18.268 2.506zm.232 31.012l14.37-8.852-2.9-1.611-11.47 4.81v5.653z"/></g><path d="M15.208 21.014l1.594-.176c.039.324.14.564.304.72.165.157.381.235.65.235.34 0 .63-.156.868-.469.238-.312.39-.96.457-1.945-.414.48-.932.72-1.553.72-.675 0-1.258-.26-1.749-.782-.49-.521-.735-1.2-.735-2.036 0-.87.259-1.573.776-2.106.518-.533 1.177-.8 1.978-.8.87 0 1.586.337 2.144 1.01.559.675.838 1.783.838 3.326 0 1.57-.29 2.703-.873 3.398-.582.696-1.34 1.043-2.273 1.043-.672 0-1.215-.178-1.63-.536-.413-.357-.679-.891-.796-1.602zm3.727-3.598c0-.531-.122-.943-.367-1.236-.244-.293-.526-.44-.846-.44a.949.949 0 0 0-.76.36c-.2.24-.3.634-.3 1.181 0 .555.109.962.327 1.222.219.26.492.39.82.39.317 0 .584-.125.8-.375.217-.25.326-.618.326-1.102z"/></g></svg>