<svg width="36" height="36" viewBox="0 0 36 36" xmlns="http://www.w3.org/2000/svg"><title>d10-4</title><g fill-rule="evenodd"><g fill-rule="nonzero"><path d="M17.5 33.518v-5.653l-11.47-4.81-2.9 1.611 14.37 8.852zm1 .615l.024.016a1 1 0 1 1-1.048 1.702l-16-9.855A1 1 0 0 1 1 25.145v-.135a.5.5 0 0 1 0-.02V14a1 1 0 0 1 .37-.776l16-13a1 1 0 1 1 1.26 1.552l-.898.73-11.023 19.75 11.484 4.816a.5.5 0 0 1 .307.46v6.601zM15.636 4.21L3 14.476v9.119l2.633-1.463L15.636 4.209z"/><path d="M20.364 4.209l10.003 17.923L33 23.595v-9.119L20.364 4.209zm-2.096-1.703l-.899-.73A1 1 0 1 1 18.631.224l16 13A1 1 0 0 1 35 14v10.99a.5.5 0 0 1 0 .02v.135a1 1 0 0 1-.476.851l-16 9.855a1 1 0 1 1-1.048-1.702l.024-.016v-6.6a.5.5 0 0 1 .307-.461l11.484-4.817L18.268 2.506zm.232 31.012l14.37-8.852-2.9-1.611-11.47 4.81v5.653z"/></g><path d="M18.401 23v-1.729h-3.515v-1.44l3.726-5.456h1.383v5.45h1.067v1.446h-1.067V23h-1.594zm0-3.176V16.89l-1.974 2.935H18.4z"/></g></svg>