<svg width="36" height="36" viewBox="0 0 36 36" xmlns="http://www.w3.org/2000/svg"><g fill-rule="evenodd"><path d="M15.636 4.209L3 14.476v9.119l2.633-1.463L15.636 4.21zm2.096-1.703l.899-.73A1 1 0 0 0 17.369.224l-16 13A1 1 0 0 0 1 14v10.99a.5.5 0 0 0 0 .02v.135a1 1 0 0 0 .476.851l16 9.855a1 1 0 0 0 1.048-1.702l-.024-.016v-6.6a.5.5 0 0 0-.307-.461L6.71 22.255 17.732 2.506zM17.5 33.518v-5.653l-11.47-4.81-2.9 1.611 14.37 8.852z"/><path d="M33 23.595l-2.633-1.463L20.364 4.21 33 14.476v9.119zm2 1.396V14a1 1 0 0 0-.37-.776l-16-13a1 1 0 1 0-1.26 1.552l.898.73 11.023 19.75-11.484 4.816a.5.5 0 0 0-.307.46v6.601l-.024.016a1 1 0 1 0 1.048 1.702l16-9.855a1 1 0 0 0 .476-.851v-.155zm-2.13-.325l-2.9-1.611-11.47 4.81v5.653l14.37-8.852z"/></g></svg>