<svg width="36" height="36" viewBox="0 0 36 36" xmlns="http://www.w3.org/2000/svg"><title>d12-10</title><g fill-rule="evenodd"><path d="M7.114 14.913l-4.282-1.168v9.183l5.41 7.446 2.748-3.533-3.876-11.928zm.415-.923L17.5 6.745V2.214L8.626 5.097 3.052 12.77l4.477 1.22zM18.5 6.745l9.971 7.245 4.477-1.221-5.574-7.672L18.5 2.214v4.531zm10.386 8.168L25.01 26.841l2.748 3.533 5.41-7.446v-9.183l-4.282 1.168zm-4.709 12.486H11.823l-2.82 3.626L18 33.95l8.997-2.924-2.82-3.626zm-6.486 8.552l-9.992-3.247a1 1 0 0 1-.5-.363l-6.176-8.5a1 1 0 0 1-.191-.588V12.747a1 1 0 0 1 .191-.588l6.176-8.5a1 1 0 0 1 .5-.363L17.69.049a1 1 0 0 1 .618 0L28.3 3.296a1 1 0 0 1 .5.363l6.176 8.5a1 1 0 0 1 .191.588v10.506a1 1 0 0 1-.191.588l-6.176 8.5a1 1 0 0 1-.5.363l-9.992 3.247a1 1 0 0 1-.618 0zm-9.565-21.16L11.898 26.4h12.204l3.772-11.607L18 7.618l-9.874 7.174z"/><path d="M16.386 23h-1.647v-6.205a5.676 5.676 0 0 1-2.127 1.248v-1.494c.43-.14.897-.407 1.4-.8.505-.393.85-.85 1.038-1.374h1.336V23zm3.57-8.625c.832 0 1.482.297 1.951.89.559.704.838 1.87.838 3.499 0 1.625-.281 2.793-.844 3.504-.464.586-1.113.878-1.945.878-.836 0-1.51-.32-2.021-.963-.512-.643-.768-1.788-.768-3.437 0-1.617.281-2.781.844-3.492.465-.586 1.113-.879 1.945-.879zm0 1.365c-.2 0-.377.064-.533.19-.156.128-.277.355-.363.683-.114.426-.17 1.143-.17 2.15 0 1.008.05 1.7.152 2.078.102.377.23.628.384.753a.819.819 0 0 0 .53.187.82.82 0 0 0 .533-.19c.157-.127.278-.355.364-.683.113-.422.17-1.137.17-2.144 0-1.008-.051-1.7-.153-2.077-.101-.377-.23-.63-.384-.756a.811.811 0 0 0-.53-.19z"/></g></svg>