<svg width="36" height="36" viewBox="0 0 36 36" xmlns="http://www.w3.org/2000/svg"><title>d12-8</title><g fill-rule="evenodd"><path d="M7.114 14.913l-4.282-1.168v9.183l5.41 7.446 2.748-3.533-3.876-11.928zm.415-.923L17.5 6.745V2.214L8.626 5.097 3.052 12.77l4.477 1.22zM18.5 6.745l9.971 7.245 4.477-1.221-5.574-7.672L18.5 2.214v4.531zm10.386 8.168L25.01 26.841l2.748 3.533 5.41-7.446v-9.183l-4.282 1.168zm-4.709 12.486H11.823l-2.82 3.626L18 33.95l8.997-2.924-2.82-3.626zm-6.486 8.552l-9.992-3.247a1 1 0 0 1-.5-.363l-6.176-8.5a1 1 0 0 1-.191-.588V12.747a1 1 0 0 1 .191-.588l6.176-8.5a1 1 0 0 1 .5-.363L17.69.049a1 1 0 0 1 .618 0L28.3 3.296a1 1 0 0 1 .5.363l6.176 8.5a1 1 0 0 1 .191.588v10.506a1 1 0 0 1-.191.588l-6.176 8.5a1 1 0 0 1-.5.363l-9.992 3.247a1 1 0 0 1-.618 0zm-9.565-21.16L11.898 26.4h12.204l3.772-11.607L18 7.618l-9.874 7.174z"/><path d="M16.585 18.365c-.426-.18-.735-.427-.929-.741a1.937 1.937 0 0 1-.29-1.034c0-.64.224-1.17.671-1.588.447-.418 1.083-.627 1.907-.627.817 0 1.45.209 1.902.627.45.418.676.947.676 1.588 0 .398-.103.753-.31 1.063-.207.31-.498.548-.873.712.476.192.839.47 1.087.838.248.367.372.791.372 1.272 0 .793-.253 1.437-.759 1.933s-1.179.744-2.018.744c-.782 0-1.432-.205-1.952-.615-.613-.484-.92-1.148-.92-1.992 0-.465.116-.892.346-1.28.23-.389.594-.689 1.09-.9zm.34-1.658c0 .328.093.584.278.768.186.183.433.275.741.275.313 0 .563-.093.75-.278.188-.186.282-.443.282-.77 0-.31-.093-.556-.279-.742-.185-.186-.43-.278-.735-.278-.316 0-.568.093-.756.28-.187.188-.281.436-.281.745zm-.153 3.68c0 .453.117.806.35 1.06.232.254.522.381.87.381.34 0 .62-.122.843-.366.223-.244.334-.597.334-1.058 0-.402-.113-.725-.34-.97a1.124 1.124 0 0 0-.861-.366c-.403 0-.702.139-.9.416a1.525 1.525 0 0 0-.296.903z"/></g></svg>