<svg width="36" height="36" viewBox="0 0 36 36" xmlns="http://www.w3.org/2000/svg"><title>d12-5</title><g fill-rule="evenodd"><path d="M7.114 14.913l-4.282-1.168v9.183l5.41 7.446 2.748-3.533-3.876-11.928zm.415-.923L17.5 6.745V2.214L8.626 5.097 3.052 12.77l4.477 1.22zM18.5 6.745l9.971 7.245 4.477-1.221-5.574-7.672L18.5 2.214v4.531zm10.386 8.168L25.01 26.841l2.748 3.533 5.41-7.446v-9.183l-4.282 1.168zm-4.709 12.486H11.823l-2.82 3.626L18 33.95l8.997-2.924-2.82-3.626zm-6.486 8.552l-9.992-3.247a1 1 0 0 1-.5-.363l-6.176-8.5a1 1 0 0 1-.191-.588V12.747a1 1 0 0 1 .191-.588l6.176-8.5a1 1 0 0 1 .5-.363L17.69.049a1 1 0 0 1 .618 0L28.3 3.296a1 1 0 0 1 .5.363l6.176 8.5a1 1 0 0 1 .191.588v10.506a1 1 0 0 1-.191.588l-6.176 8.5a1 1 0 0 1-.5.363l-9.992 3.247a1 1 0 0 1-.618 0zm-9.565-21.16L11.898 26.4h12.204l3.772-11.607L18 7.618l-9.874 7.174z"/><path d="M15.196 20.791l1.64-.17c.048.371.186.665.417.882a1.129 1.129 0 0 0 1.67-.094c.238-.28.357-.7.357-1.263 0-.527-.118-.922-.354-1.186-.237-.264-.544-.396-.923-.396-.473 0-.897.21-1.272.627l-1.335-.193.843-4.47h4.354v1.54h-3.106l-.258 1.46a2.49 2.49 0 0 1 1.125-.276c.731 0 1.35.266 1.858.797s.762 1.22.762 2.068c0 .707-.205 1.338-.616 1.893-.558.758-1.334 1.136-2.326 1.136-.793 0-1.44-.212-1.94-.638-.5-.426-.798-.998-.896-1.717z"/></g></svg>