<svg width="36" height="36" viewBox="0 0 36 36" xmlns="http://www.w3.org/2000/svg"><path d="M7.699 32.704l9.992 3.247c.2.065.417.065.618 0l9.992-3.247a1 1 0 0 0 .5-.363l6.176-8.5a1 1 0 0 0 .19-.588V12.747a1 1 0 0 0-.19-.588l-6.176-8.5a1 1 0 0 0-.5-.363L18.31.049a1 1 0 0 0-.618 0L7.699 3.296a1 1 0 0 0-.5.363l-6.176 8.5a1 1 0 0 0-.191.588v10.506a1 1 0 0 0 .191.588l6.176 8.5a1 1 0 0 0 .5.363zM3.052 12.77l4.477 1.22L17.5 6.746V2.214L8.626 5.097 3.052 12.77zM18.5 2.214l8.874 2.883 5.574 7.672-4.477 1.22L18.5 6.746V2.214zm-6.602 24.185L8.126 14.792 18 7.618l9.874 7.174-3.772 11.607H11.898zM7.114 14.913l3.876 11.928-2.748 3.534-5.41-7.447v-9.183l4.282 1.168zM25.01 26.841l3.876-11.928 4.282-1.168v9.183l-5.41 7.447-2.748-3.534zm1.987 4.184l-2.82-3.626H11.823l-2.82 3.626L18 33.95l8.997-2.924z" fill-rule="evenodd"/></svg>