<svg width="36" height="36" viewBox="0 0 36 36" xmlns="http://www.w3.org/2000/svg"><title>d20-6</title><g fill-rule="evenodd"><path d="M18.5 4.632l8.196 2.543L18.5 2.443v2.189zm-1-2.189L9.304 7.175 17.5 4.632V2.443zM4.808 26.23l7.735 4.466-6.091-5.562-1.644 1.096zm-.53-.848l1.666-1.111-1.666-8.333v9.444zm27.444 0v-9.444l-1.666 8.333 1.666 1.11zm-.53.848l-1.644-1.096-6.091 5.562 7.735-4.466zM16.928 5.856L4.078 9.844l2.714 13.568L16.928 5.856zm2.144 0l10.136 17.556L31.92 9.844 19.07 5.856zM28.21 25H7.789L18 34.323 28.21 25zM18.5.134l14.722 8.5a1 1 0 0 1 .5.866v17a1 1 0 0 1-.5.866l-14.722 8.5a1 1 0 0 1-1 0l-14.722-8.5a1 1 0 0 1-.5-.866v-17a1 1 0 0 1 .5-.866L17.5.134a1 1 0 0 1 1 0zM7.608 24h20.784L18 6 7.608 24z" fill-rule="nonzero"/><path d="M20.751 16.514l-1.594.175c-.039-.328-.14-.57-.304-.726-.165-.156-.377-.234-.64-.234-.347 0-.64.156-.881.468-.24.313-.392.963-.454 1.951.41-.484.92-.726 1.53-.726.687 0 1.276.262 1.766.785s.735 1.2.735 2.027c0 .88-.258 1.584-.773 2.116-.516.53-1.178.796-1.987.796-.867 0-1.58-.336-2.138-1.01-.559-.674-.838-1.779-.838-3.314 0-1.574.29-2.709.873-3.404.582-.695 1.338-1.043 2.267-1.043.653 0 1.193.183 1.62.548.428.365.7.895.818 1.59zm-3.732 3.591c0 .536.123.949.369 1.24.246.29.527.436.843.436a.96.96 0 0 0 .762-.357c.203-.238.305-.63.305-1.172 0-.559-.11-.968-.328-1.228a1.03 1.03 0 0 0-.82-.39 1.03 1.03 0 0 0-.803.373c-.22.248-.328.614-.328 1.098z"/></g></svg>