<svg width="36" height="36" viewBox="0 0 36 36" xmlns="http://www.w3.org/2000/svg"><title>d20-2</title><g fill-rule="evenodd"><path d="M18.5 4.632l8.196 2.543L18.5 2.443v2.189zm-1-2.189L9.304 7.175 17.5 4.632V2.443zM4.808 26.23l7.735 4.466-6.091-5.562-1.644 1.096zm-.53-.848l1.666-1.111-1.666-8.333v9.444zm27.444 0v-9.444l-1.666 8.333 1.666 1.11zm-.53.848l-1.644-1.096-6.091 5.562 7.735-4.466zM16.928 5.856L4.078 9.844l2.714 13.568L16.928 5.856zm2.144 0l10.136 17.556L31.92 9.844 19.07 5.856zM28.21 25H7.789L18 34.323 28.21 25zM18.5.134l14.722 8.5a1 1 0 0 1 .5.866v17a1 1 0 0 1-.5.866l-14.722 8.5a1 1 0 0 1-1 0l-14.722-8.5a1 1 0 0 1-.5-.866v-17a1 1 0 0 1 .5-.866L17.5.134a1 1 0 0 1 1 0zM7.608 24h20.784L18 6 7.608 24z" fill-rule="nonzero"/><path d="M20.733 21.47V23h-5.771c.062-.578.25-1.126.562-1.644.313-.517.93-1.204 1.852-2.06.742-.69 1.197-1.16 1.365-1.405.227-.34.34-.676.34-1.008 0-.367-.099-.65-.296-.847-.197-.197-.47-.296-.817-.296-.344 0-.617.104-.82.31-.204.208-.32.552-.352 1.032l-1.64-.164c.097-.906.404-1.557.92-1.951.515-.395 1.16-.592 1.933-.592.847 0 1.513.229 1.998.686.484.457.726 1.025.726 1.705 0 .386-.069.755-.208 1.104a4.46 4.46 0 0 1-.659 1.099c-.199.254-.558.619-1.078 1.095-.52.477-.849.793-.987.95a2.842 2.842 0 0 0-.337.457h3.27z"/></g></svg>