<svg width="36" height="36" viewBox="0 0 36 36" xmlns="http://www.w3.org/2000/svg"><title>d20-10</title><g fill-rule="evenodd"><path d="M18.5 4.632l8.196 2.543L18.5 2.443v2.189zm-1-2.189L9.304 7.175 17.5 4.632V2.443zM4.808 26.23l7.735 4.466-6.091-5.562-1.644 1.096zm-.53-.848l1.666-1.111-1.666-8.333v9.444zm27.444 0v-9.444l-1.666 8.333 1.666 1.11zm-.53.848l-1.644-1.096-6.091 5.562 7.735-4.466zM16.928 5.856L4.078 9.844l2.714 13.568L16.928 5.856zm2.144 0l10.136 17.556L31.92 9.844 19.07 5.856zM28.21 25H7.789L18 34.323 28.21 25zM18.5.134l14.722 8.5a1 1 0 0 1 .5.866v17a1 1 0 0 1-.5.866l-14.722 8.5a1 1 0 0 1-1 0l-14.722-8.5a1 1 0 0 1-.5-.866v-17a1 1 0 0 1 .5-.866L17.5.134a1 1 0 0 1 1 0zM7.608 24h20.784L18 6 7.608 24z" fill-rule="nonzero"/><path d="M16.386 23h-1.647v-6.205a5.676 5.676 0 0 1-2.127 1.248v-1.494c.43-.14.897-.407 1.4-.8.505-.393.85-.85 1.038-1.374h1.336V23zm3.57-8.625c.832 0 1.482.297 1.951.89.559.704.838 1.87.838 3.499 0 1.625-.281 2.793-.844 3.504-.464.586-1.113.878-1.945.878-.836 0-1.51-.32-2.021-.963-.512-.643-.768-1.788-.768-3.437 0-1.617.281-2.781.844-3.492.465-.586 1.113-.879 1.945-.879zm0 1.365c-.2 0-.377.064-.533.19-.156.128-.277.355-.363.683-.114.426-.17 1.143-.17 2.15 0 1.008.05 1.7.152 2.078.102.377.23.628.384.753a.819.819 0 0 0 .53.187.82.82 0 0 0 .533-.19c.157-.127.278-.355.364-.683.113-.422.17-1.137.17-2.144 0-1.008-.051-1.7-.153-2.077-.101-.377-.23-.63-.384-.756a.811.811 0 0 0-.53-.19z"/></g></svg>