<svg width="36" height="36" viewBox="0 0 36 36" xmlns="http://www.w3.org/2000/svg"><path d="M18.5.134l14.722 8.5a1 1 0 0 1 .5.866v17a1 1 0 0 1-.5.866l-14.722 8.5a1 1 0 0 1-1 0l-14.722-8.5a1 1 0 0 1-.5-.866v-17a1 1 0 0 1 .5-.866L17.5.134a1 1 0 0 1 1 0zm-1 4.498L9.304 7.175 17.5 2.443v2.189zm1 0l8.196 2.543L18.5 2.443v2.189zm-1.572 1.224L4.078 9.844l2.714 13.568L16.928 5.856zm12.28 17.556L19.072 5.856l12.85 3.988-2.714 13.568zM7.608 24h20.784L18 6 7.608 24zm22.448.27l1.666 1.11v-9.443l-1.666 8.333zM4.278 15.937v9.444l1.666-1.111-1.666-8.333zM7.789 25L18 34.323 28.21 25H7.79zm23.403 1.229l-1.644-1.096-6.091 5.562 7.735-4.466zm-18.649 4.466l-7.735-4.466 1.644-1.096 6.091 5.562z" fill-rule="evenodd"/></svg>