<svg width="36" height="36" viewBox="0 0 36 36" xmlns="http://www.w3.org/2000/svg"><title>d4-3</title><g fill-rule="evenodd"><path d="M5.2 26.3h25.5L17.95 4.5 5.2 26.3zM18.433 1.75l14.722 25.5a.5.5 0 0 1-.433.75H3.278a.5.5 0 0 1-.433-.75l14.722-25.5a.5.5 0 0 1 .866 0z" fill-rule="nonzero"/><path d="M15.114 20.72l1.594-.193c.05.407.188.717.41.932.223.215.492.322.809.322.34 0 .626-.129.858-.386.233-.258.349-.606.349-1.043 0-.415-.112-.743-.334-.985a1.065 1.065 0 0 0-.815-.363c-.21 0-.463.04-.756.123l.182-1.342c.445.012.785-.085 1.02-.29.234-.205.351-.477.351-.817 0-.29-.086-.52-.258-.692-.171-.172-.4-.257-.685-.257a.992.992 0 0 0-.72.292c-.2.196-.321.481-.364.856l-1.518-.258c.106-.52.265-.934.478-1.245.213-.31.51-.555.89-.732a2.989 2.989 0 0 1 1.28-.267c.81 0 1.458.258 1.946.773.402.422.604.899.604 1.43 0 .754-.413 1.356-1.237 1.805a2 2 0 0 1 1.18.709c.296.367.443.81.443 1.33 0 .754-.275 1.396-.826 1.928-.55.53-1.236.796-2.057.796-.777 0-1.421-.223-1.933-.67-.512-.448-.809-1.033-.89-1.755z"/></g></svg>