<svg width="36" height="36" viewBox="0 0 36 36" xmlns="http://www.w3.org/2000/svg"><title>d6-2</title><g fill-rule="evenodd"><path d="M7 29h22V7H7v22zM5 5h26v26H5V5z" fill-rule="nonzero"/><path d="M20.733 21.47V23h-5.771c.062-.578.25-1.126.562-1.644.313-.517.93-1.204 1.852-2.06.742-.69 1.197-1.16 1.365-1.405.227-.34.34-.676.34-1.008 0-.367-.099-.65-.296-.847-.197-.197-.47-.296-.817-.296-.344 0-.617.104-.82.31-.204.208-.32.552-.352 1.032l-1.64-.164c.097-.906.404-1.557.92-1.951.515-.395 1.16-.592 1.933-.592.847 0 1.513.229 1.998.686.484.457.726 1.025.726 1.705 0 .386-.069.755-.208 1.104a4.46 4.46 0 0 1-.659 1.099c-.199.254-.558.619-1.078 1.095-.52.477-.849.793-.987.95a2.842 2.842 0 0 0-.337.457h3.27z"/></g></svg>