<svg width="36" height="36" viewBox="0 0 36 36" xmlns="http://www.w3.org/2000/svg"><title>d8-1</title><g fill-rule="evenodd"><path d="M16.664 4.37L5 11.104v13.375L16.664 4.37zm3.672 0L32 24.48V11.103L20.336 4.37zm9.918 23.33H6.746L18.5 34.486 30.254 27.7zM18.5 1L34 9.949v17.898l-15.5 8.949L3 27.846V9.95L18.5 1zm13.632 25.7L18.5 3.197 4.868 26.7h27.264z"/><path d="M19.386 23h-1.647v-6.205a5.676 5.676 0 0 1-2.127 1.248v-1.494c.43-.14.897-.407 1.4-.8.505-.393.85-.85 1.038-1.374h1.336V23z"/></g></svg>