<svg width="24" height="24" viewBox="0 0 24 24" xmlns="http://www.w3.org/2000/svg"><title>small-d10-4</title><g fill-rule="evenodd"><path d="M12 0l11.392 10v8L12 24 .608 18v-8L12 0zM5.268 13.925l-.587 1.161-2.073 1.193v-5.373L10.132 4.3l-.575 1.137a6.95 6.95 0 0 1 1.295-.344L12 2.822l1.148 2.272c.447.073.88.19 1.295.344L13.868 4.3l7.524 6.605v5.373l-2.073-1.193-.587-1.161a6.986 6.986 0 0 1-1.452 2.67l1.581-.618 1.95 1.122-8.305 4.374v-2.491a7.101 7.101 0 0 1-1.012 0v2.491L3.188 17.1l1.95-1.122 1.582.619a6.986 6.986 0 0 1-1.452-2.671z"/><path d="M12.401 17v-1.729H8.886v-1.44l3.726-5.456h1.383v5.45h1.067v1.446h-1.067V17h-1.594zm0-3.176V10.89l-1.974 2.935H12.4z"/></g></svg>