<svg width="24" height="24" viewBox="0 0 24 24" xmlns="http://www.w3.org/2000/svg"><title>small-d12-5</title><g fill-rule="evenodd"><path d="M6.464 20.098l5.536 1.8 5.485-1.783-.984-1.143h-2.015a7.417 7.417 0 0 0 3.378-2.458l-.592 1.821.954 1.109 3.187-4.386v-5.82l-1.372.577-.644 1.98a7.362 7.362 0 0 0-1.291-3.977l1.504 1.093 1.364-.573-3.157-4.345L12.5 2.265v1.48l1.587 1.153A7.402 7.402 0 0 0 12 4.6c-.725 0-1.425.104-2.087.298L11.5 3.745v-1.48L6.183 3.993 2.977 8.405l1.399.516 1.518-1.103a7.362 7.362 0 0 0-1.291 3.978l-.637-1.96-1.379-.509v5.731l3.158 4.346.996-1.026-.605-1.864a7.417 7.417 0 0 0 3.378 2.458H7.56l-1.095 1.126zM12 0l7.053 2.292 4.36 6v7.416l-4.36 6L12 24l-7.053-2.292-4.36-6V8.292l4.36-6L12 0z" fill-rule="nonzero"/><path d="M9.196 14.791l1.64-.17c.048.371.186.665.417.882a1.129 1.129 0 0 0 1.67-.094c.238-.28.357-.7.357-1.263 0-.527-.118-.922-.354-1.186-.237-.264-.544-.396-.923-.396-.473 0-.897.21-1.272.627l-1.335-.193.843-4.47h4.354v1.54h-3.106l-.258 1.46a2.49 2.49 0 0 1 1.125-.276c.731 0 1.35.266 1.858.797s.762 1.22.762 2.068c0 .707-.205 1.338-.616 1.893-.558.758-1.334 1.136-2.326 1.136-.793 0-1.44-.212-1.94-.638-.5-.426-.798-.998-.896-1.717z"/></g></svg>