<svg width="24" height="24" viewBox="0 0 24 24" xmlns="http://www.w3.org/2000/svg"><title>small-d10-1</title><g fill-rule="evenodd"><path d="M12 0l11.392 10v8L12 24 .608 18v-8L12 0zM5.268 13.925l-.587 1.161-2.073 1.193v-5.373L10.132 4.3l-.575 1.137a6.95 6.95 0 0 1 1.295-.344L12 2.822l1.148 2.272c.447.073.88.19 1.295.344L13.868 4.3l7.524 6.605v5.373l-2.073-1.193-.587-1.161a6.986 6.986 0 0 1-1.452 2.67l1.581-.618 1.95 1.122-8.305 4.374v-2.491a7.101 7.101 0 0 1-1.012 0v2.491L3.188 17.1l1.95-1.122 1.582.619a6.986 6.986 0 0 1-1.452-2.671z"/><path d="M11.956 8.375c.832 0 1.482.297 1.951.89.559.704.838 1.87.838 3.499 0 1.625-.281 2.793-.844 3.504-.464.586-1.113.878-1.945.878-.836 0-1.51-.32-2.021-.963-.512-.643-.768-1.788-.768-3.437 0-1.617.281-2.781.844-3.492.465-.586 1.113-.879 1.945-.879zm0 1.365c-.2 0-.377.064-.533.19-.156.128-.277.355-.363.683-.114.426-.17 1.143-.17 2.15 0 1.008.05 1.7.152 2.078.102.377.23.628.384.753a.819.819 0 0 0 .53.187.82.82 0 0 0 .533-.19c.157-.127.278-.355.364-.683.113-.422.17-1.137.17-2.144 0-1.008-.051-1.7-.153-2.077-.101-.377-.23-.63-.384-.756a.811.811 0 0 0-.53-.19z"/></g></svg>