<svg width="24" height="24" viewBox="0 0 24 24" xmlns="http://www.w3.org/2000/svg"><title>small-d12-6</title><g fill-rule="evenodd"><path d="M6.464 20.098l5.536 1.8 5.485-1.783-.984-1.143h-2.015a7.417 7.417 0 0 0 3.378-2.458l-.592 1.821.954 1.109 3.187-4.386v-5.82l-1.372.577-.644 1.98a7.362 7.362 0 0 0-1.291-3.977l1.504 1.093 1.364-.573-3.157-4.345L12.5 2.265v1.48l1.587 1.153A7.402 7.402 0 0 0 12 4.6c-.725 0-1.425.104-2.087.298L11.5 3.745v-1.48L6.183 3.993 2.977 8.405l1.399.516 1.518-1.103a7.362 7.362 0 0 0-1.291 3.978l-.637-1.96-1.379-.509v5.731l3.158 4.346.996-1.026-.605-1.864a7.417 7.417 0 0 0 3.378 2.458H7.56l-1.095 1.126zM12 0l7.053 2.292 4.36 6v7.416l-4.36 6L12 24l-7.053-2.292-4.36-6V8.292l4.36-6L12 0z" fill-rule="nonzero"/><path d="M14.751 10.514l-1.594.175c-.039-.328-.14-.57-.304-.726-.165-.156-.377-.234-.64-.234-.347 0-.64.156-.881.468-.24.313-.392.963-.454 1.951.41-.484.92-.726 1.53-.726.687 0 1.276.262 1.766.785s.735 1.2.735 2.027c0 .88-.258 1.584-.773 2.116-.516.53-1.178.796-1.987.796-.867 0-1.58-.336-2.138-1.01-.559-.674-.838-1.779-.838-3.314 0-1.574.29-2.709.873-3.404.582-.695 1.338-1.043 2.267-1.043.653 0 1.193.183 1.62.548.428.365.7.895.818 1.59zm-3.732 3.591c0 .536.123.949.369 1.24.246.29.527.436.843.436a.96.96 0 0 0 .762-.357c.203-.238.305-.63.305-1.172 0-.559-.11-.968-.328-1.228a1.03 1.03 0 0 0-.82-.39 1.03 1.03 0 0 0-.803.373c-.22.248-.328.614-.328 1.098z"/></g></svg>