<svg width="24" height="24" viewBox="0 0 24 24" xmlns="http://www.w3.org/2000/svg"><title>small-d8-5</title><g fill-rule="evenodd"><path d="M20.392 15.148V7.155l-6.517-3.763 1.982 3.576a6.485 6.485 0 0 0-1.629-.876l-2.035-3.671L12 2.309l-.19.11-2.028 3.67a6.484 6.484 0 0 0-1.62.865l1.97-3.566-6.524 3.767v8.04l1.908-3.454a6.595 6.595 0 0 0 .13 1.833l-1.864 3.372.253.146 3.663-.019a6.51 6.51 0 0 0 1.497.992l-3.443.018L12 21.691l6.36-3.673-3.496.018a6.512 6.512 0 0 0 1.487-1.007l3.757-.02.13-.075-1.877-3.388a6.527 6.527 0 0 0 .12-1.845l1.911 3.447zM1.608 6L12 0l10.392 6v12L12 24 1.608 18V6z"/><path d="M9.196 13.791l1.64-.17c.048.371.186.665.417.882a1.129 1.129 0 0 0 1.67-.094c.238-.28.357-.7.357-1.263 0-.527-.118-.922-.354-1.186-.237-.264-.544-.396-.923-.396-.473 0-.897.21-1.272.627l-1.335-.193.843-4.47h4.354v1.54h-3.106l-.258 1.46a2.49 2.49 0 0 1 1.125-.276c.731 0 1.35.266 1.858.797s.762 1.22.762 2.068c0 .707-.205 1.338-.616 1.893-.558.758-1.334 1.136-2.326 1.136-.793 0-1.44-.212-1.94-.638-.5-.426-.798-.998-.896-1.717z"/></g></svg>