<svg width="24" height="24" viewBox="0 0 24 24" xmlns="http://www.w3.org/2000/svg"><title>small-d12-11</title><g fill-rule="evenodd"><path d="M6.464 20.098l5.536 1.8 5.485-1.783-.984-1.143h-2.015a7.417 7.417 0 0 0 3.378-2.458l-.592 1.821.954 1.109 3.187-4.386v-5.82l-1.372.577-.644 1.98a7.362 7.362 0 0 0-1.291-3.977l1.504 1.093 1.364-.573-3.157-4.345L12.5 2.265v1.48l1.587 1.153A7.402 7.402 0 0 0 12 4.6c-.725 0-1.425.104-2.087.298L11.5 3.745v-1.48L6.183 3.993 2.977 8.405l1.399.516 1.518-1.103a7.362 7.362 0 0 0-1.291 3.978l-.637-1.96-1.379-.509v5.731l3.158 4.346.996-1.026-.605-1.864a7.417 7.417 0 0 0 3.378 2.458H7.56l-1.095 1.126zM12 0l7.053 2.292 4.36 6v7.416l-4.36 6L12 24l-7.053-2.292-4.36-6V8.292l4.36-6L12 0z" fill-rule="nonzero"/><path d="M15.386 17h-1.647v-6.205a5.676 5.676 0 0 1-2.127 1.248v-1.494c.43-.14.897-.407 1.4-.8.505-.393.85-.85 1.038-1.374h1.336V17zm-5 0H8.739v-6.205a5.676 5.676 0 0 1-2.127 1.248v-1.494c.43-.14.897-.407 1.4-.8.505-.393.85-.85 1.038-1.374h1.336V17z"/></g></svg>