<svg width="24" height="24" viewBox="0 0 24 24" xmlns="http://www.w3.org/2000/svg"><title>small-d20-5</title><g fill-rule="evenodd"><path d="M5.271 5.932l6.215-1.043.016-.026.007-1.459-.004-.828L5.27 5.932zm7.241-3.347l-.003.82.006 1.477 6.193 1.039-6.196-3.336zM21 9.752l-2.33 5.407 2.33 1.09V9.751zm-.504 7.365l-2.349-1.099-3.95 4.49 6.299-3.391zM9.828 20.52L5.87 16.023l-2.353 1.1 6.311 3.398zM3 16.261l2.347-1.097L3 9.717v6.544zM12 0l11 6v12l-11 6-11-6V6l11-6zM7.356 16h-.174l4.825 5.483L16.83 16h-.187a6 6 0 0 0 1.098-2.054l.207.359 3.013-6.992-7.805-1.31.202.352a6.018 6.018 0 0 0-2.718 0l.197-.343-7.783 1.306L6.06 14.29l.199-.344c.23.76.608 1.455 1.098 2.054z" fill-rule="nonzero"/><path d="M9.196 13.791l1.64-.17c.048.371.186.665.417.882a1.129 1.129 0 0 0 1.67-.094c.238-.28.357-.7.357-1.263 0-.527-.118-.922-.354-1.186-.237-.264-.544-.396-.923-.396-.473 0-.897.21-1.272.627l-1.335-.193.843-4.47h4.354v1.54h-3.106l-.258 1.46a2.49 2.49 0 0 1 1.125-.276c.731 0 1.35.266 1.858.797s.762 1.22.762 2.068c0 .707-.205 1.338-.616 1.893-.558.758-1.334 1.136-2.326 1.136-.793 0-1.44-.212-1.94-.638-.5-.426-.798-.998-.896-1.717z"/></g></svg>