<svg width="24" height="24" viewBox="0 0 24 24" xmlns="http://www.w3.org/2000/svg"><title>small-d10-2</title><g fill-rule="evenodd"><path d="M12 0l11.392 10v8L12 24 .608 18v-8L12 0zM5.268 13.925l-.587 1.161-2.073 1.193v-5.373L10.132 4.3l-.575 1.137a6.95 6.95 0 0 1 1.295-.344L12 2.822l1.148 2.272c.447.073.88.19 1.295.344L13.868 4.3l7.524 6.605v5.373l-2.073-1.193-.587-1.161a6.986 6.986 0 0 1-1.452 2.67l1.581-.618 1.95 1.122-8.305 4.374v-2.491a7.101 7.101 0 0 1-1.012 0v2.491L3.188 17.1l1.95-1.122 1.582.619a6.986 6.986 0 0 1-1.452-2.671z"/><path d="M14.733 15.47V17H8.962c.062-.578.25-1.126.562-1.644.313-.517.93-1.204 1.852-2.06.742-.69 1.197-1.16 1.365-1.405.227-.34.34-.676.34-1.008 0-.367-.099-.65-.296-.847-.197-.197-.47-.296-.817-.296-.344 0-.617.104-.82.31-.204.208-.32.552-.352 1.032l-1.64-.164c.097-.906.404-1.557.92-1.951.515-.395 1.16-.592 1.933-.592.847 0 1.513.229 1.998.686.484.457.726 1.025.726 1.705 0 .386-.069.755-.208 1.104a4.46 4.46 0 0 1-.659 1.099c-.199.254-.558.619-1.078 1.095-.52.477-.849.793-.987.95a2.842 2.842 0 0 0-.337.457h3.27z"/></g></svg>