<svg width="24" height="24" viewBox="0 0 24 24" xmlns="http://www.w3.org/2000/svg"><title>small-d12-7</title><g fill-rule="evenodd"><path d="M6.464 20.098l5.536 1.8 5.485-1.783-.984-1.143h-2.015a7.417 7.417 0 0 0 3.378-2.458l-.592 1.821.954 1.109 3.187-4.386v-5.82l-1.372.577-.644 1.98a7.362 7.362 0 0 0-1.291-3.977l1.504 1.093 1.364-.573-3.157-4.345L12.5 2.265v1.48l1.587 1.153A7.402 7.402 0 0 0 12 4.6c-.725 0-1.425.104-2.087.298L11.5 3.745v-1.48L6.183 3.993 2.977 8.405l1.399.516 1.518-1.103a7.362 7.362 0 0 0-1.291 3.978l-.637-1.96-1.379-.509v5.731l3.158 4.346.996-1.026-.605-1.864a7.417 7.417 0 0 0 3.378 2.458H7.56l-1.095 1.126zM12 0l7.053 2.292 4.36 6v7.416l-4.36 6L12 24l-7.053-2.292-4.36-6V8.292l4.36-6L12 0z" fill-rule="nonzero"/><path d="M9.173 10.057v-1.53h5.63v1.196c-.464.457-.937 1.113-1.417 1.968a11.48 11.48 0 0 0-1.099 2.728c-.252.963-.376 1.823-.372 2.581h-1.588c.027-1.188.273-2.398.736-3.633a12.106 12.106 0 0 1 1.854-3.31H9.173z"/></g></svg>