<svg width="24" height="24" viewBox="0 0 24 24" xmlns="http://www.w3.org/2000/svg"><title>small-d20-19</title><g fill-rule="evenodd"><path d="M5.271 5.932l6.215-1.043.016-.026.007-1.459-.004-.828L5.27 5.932zm7.241-3.347l-.003.82.006 1.477 6.193 1.039-6.196-3.336zM21 9.752l-2.33 5.407 2.33 1.09V9.751zm-.504 7.365l-2.349-1.099-3.95 4.49 6.299-3.391zM9.828 20.52L5.87 16.023l-2.353 1.1 6.311 3.398zM3 16.261l2.347-1.097L3 9.717v6.544zM12 0l11 6v12l-11 6-11-6V6l11-6zM7.356 16h-.174l4.825 5.483L16.83 16h-.187a6 6 0 0 0 1.098-2.054l.207.359 3.013-6.992-7.805-1.31.202.352a6.018 6.018 0 0 0-2.718 0l.197-.343-7.783 1.306L6.06 14.29l.199-.344c.23.76.608 1.455 1.098 2.054z" fill-rule="nonzero"/><path d="M11.208 14.014l1.594-.176c.039.324.14.564.304.72.165.157.381.235.65.235.34 0 .63-.156.868-.469.238-.312.39-.96.457-1.945-.414.48-.932.72-1.553.72-.675 0-1.258-.26-1.749-.782-.49-.521-.735-1.2-.735-2.036 0-.87.259-1.573.776-2.106.518-.533 1.177-.8 1.978-.8.87 0 1.586.337 2.144 1.01.559.675.838 1.783.838 3.326 0 1.57-.29 2.703-.873 3.398-.582.696-1.34 1.043-2.273 1.043-.672 0-1.215-.178-1.63-.536-.413-.357-.679-.891-.796-1.602zm3.727-3.598c0-.531-.122-.943-.367-1.236-.244-.293-.526-.44-.846-.44a.949.949 0 0 0-.76.36c-.2.24-.3.634-.3 1.181 0 .555.109.962.327 1.222.219.26.492.39.82.39.317 0 .584-.125.8-.375.217-.25.326-.618.326-1.102zM10.386 16H8.739V9.795a5.676 5.676 0 0 1-2.127 1.248V9.549c.43-.14.897-.407 1.4-.8.505-.393.85-.85 1.038-1.374h1.336V16z"/></g></svg>