<?xml version="1.0" encoding="UTF-8"?>
<svg width="36px" height="36px" viewBox="0 0 36 36" version="1.1" xmlns="http://www.w3.org/2000/svg" xmlns:xlink="http://www.w3.org/1999/xlink">
    <!-- Generator: sketchtool 42 (36781) - http://www.bohemiancoding.com/sketch -->
    <title>d10-9</title>
    <desc>Created with sketchtool.</desc>
    <defs></defs>
    <g id="Font" stroke="none" stroke-width="1" fill="none" fill-rule="evenodd">
        <g id="d10-9" fill="#000000">
            <g id="d10-hollow" transform="translate(1.500000, 1.000000)" fill-rule="nonzero">
                <path d="M16,32.5175569 L16,26.8652113 L4.53055242,22.0550059 L1.62996066,23.6664458 L16,32.5175569 Z M17,33.133499 L17.0244416,33.1485536 C17.4946825,33.4381947 17.6410875,34.0542008 17.3514464,34.5244416 C17.0618053,34.9946825 16.4457992,35.1410875 15.9755584,34.8514464 L-0.0244416263,24.9963739 C-0.319993013,24.8143314 -0.5,24.4920444 -0.5,24.1449275 L-0.5,24.0099869 C-0.500121618,24.003624 -0.500121285,23.9972663 -0.5,23.9909172 L-0.5,13 C-0.5,12.6988714 -0.364302729,12.4137755 -0.130592625,12.223886 L15.8694074,-0.776114 C16.2980433,-1.12438069 16.9278473,-1.05922855 17.276114,-0.630592625 C17.6243807,-0.201956699 17.5592286,0.42784731 17.1305926,0.776114 L16.2318661,1.50632934 L5.2092143,21.2552471 L16.6933783,26.0716245 C16.8791318,26.1495282 17,26.3312871 17,26.5327154 L17,33.133499 Z M14.1363644,3.20892444 L1.5,13.4759705 L1.5,22.5946872 L4.13276502,21.13204 L14.1363644,3.20892444 Z" id="Combined-Shape"></path>
                <path d="M18.8636356,3.20892444 L28.867235,21.13204 L31.5,22.5946872 L31.5,13.4759705 L18.8636356,3.20892444 Z M16.7681339,1.50632934 L15.8694074,0.776114 C15.4407714,0.42784731 15.3756193,-0.201956699 15.723886,-0.630592625 C16.0721527,-1.05922855 16.7019567,-1.12438069 17.1305926,-0.776114 L33.1305926,12.223886 C33.3643027,12.4137755 33.5,12.6988714 33.5,13 L33.5,23.9909171 C33.5001213,23.9972663 33.5001216,24.003624 33.5,24.0099869 L33.5,24.1449275 C33.5,24.4920444 33.319993,24.8143314 33.0244416,24.9963739 L17.0244416,34.8514464 C16.5542008,35.1410875 15.9381947,34.9946825 15.6485536,34.5244416 C15.3589125,34.0542008 15.5053175,33.4381947 15.9755584,33.1485536 L16,33.133499 L16,26.5327154 C16,26.3312871 16.1208682,26.1495282 16.3066217,26.0716245 L27.7907857,21.2552471 L16.7681339,1.50632934 Z M17,32.5175569 L31.3700393,23.6664458 L28.4694476,22.0550059 L17,26.8652113 L17,32.5175569 Z" id="Combined-Shape"></path>
            </g>
            <g id="9" transform="translate(15.000000, 14.000000)">
                <path d="M0.208007812,7.01367188 L1.80175781,6.83789062 C1.84082051,7.162111 1.94238199,7.40234297 2.10644531,7.55859375 C2.27050863,7.71484453 2.48730334,7.79296875 2.75683594,7.79296875 C3.09668139,7.79296875 3.385741,7.63672031 3.62402344,7.32421875 C3.86230588,7.01171719 4.01464811,6.36328617 4.08105469,5.37890625 C3.66699012,5.8593774 3.14941717,6.09960938 2.52832031,6.09960938 C1.85253568,6.09960938 1.2695337,5.83886979 0.779296875,5.31738281 C0.289060049,4.79589583 0.0439453125,4.11719168 0.0439453125,3.28125 C0.0439453125,2.41015189 0.302731787,1.70801048 0.8203125,1.17480469 C1.33789321,0.641598896 1.99706631,0.375 2.79785156,0.375 C3.66894967,0.375 4.38378627,0.711910693 4.94238281,1.38574219 C5.50097936,2.05957368 5.78027344,3.16796104 5.78027344,4.7109375 C5.78027344,6.28125785 5.48926072,7.41405902 4.90722656,8.109375 C4.3251924,8.80469098 3.56738748,9.15234375 2.63378906,9.15234375 C1.9619107,9.15234375 1.41894738,8.9736346 1.00488281,8.61621094 C0.590818242,8.25878728 0.325195898,7.72461293 0.208007812,7.01367188 Z M3.93457031,3.41601562 C3.93457031,2.88476297 3.81250122,2.47265771 3.56835937,2.1796875 C3.32421753,1.88671729 3.04199379,1.74023438 2.72167969,1.74023438 C2.41699066,1.74023438 2.16406351,1.86035036 1.96289062,2.10058594 C1.76171774,2.34082151 1.66113281,2.73437227 1.66113281,3.28125 C1.66113281,3.83594027 1.77050672,4.24316276 1.98925781,4.50292969 C2.20800891,4.76269661 2.48144367,4.89257812 2.80957031,4.89257812 C3.12597814,4.89257812 3.39257704,4.76757937 3.609375,4.51757812 C3.82617296,4.26757688 3.93457031,3.90039305 3.93457031,3.41601562 Z"></path>
            </g>
        </g>
    </g>
</svg>