<svg width="36" height="36" viewBox="0 0 36 36" xmlns="http://www.w3.org/2000/svg"><title>d10-5</title><g fill-rule="evenodd"><g fill-rule="nonzero"><path d="M17.5 33.518v-5.653l-11.47-4.81-2.9 1.611 14.37 8.852zm1 .615l.024.016a1 1 0 1 1-1.048 1.702l-16-9.855A1 1 0 0 1 1 25.145v-.135a.5.5 0 0 1 0-.02V14a1 1 0 0 1 .37-.776l16-13a1 1 0 1 1 1.26 1.552l-.898.73-11.023 19.75 11.484 4.816a.5.5 0 0 1 .307.46v6.601zM15.636 4.21L3 14.476v9.119l2.633-1.463L15.636 4.209z"/><path d="M20.364 4.209l10.003 17.923L33 23.595v-9.119L20.364 4.209zm-2.096-1.703l-.899-.73A1 1 0 1 1 18.631.224l16 13A1 1 0 0 1 35 14v10.99a.5.5 0 0 1 0 .02v.135a1 1 0 0 1-.476.851l-16 9.855a1 1 0 1 1-1.048-1.702l.024-.016v-6.6a.5.5 0 0 1 .307-.461l11.484-4.817L18.268 2.506zm.232 31.012l14.37-8.852-2.9-1.611-11.47 4.81v5.653z"/></g><path d="M15.196 20.791l1.64-.17c.048.371.186.665.417.882a1.129 1.129 0 0 0 1.67-.094c.238-.28.357-.7.357-1.263 0-.527-.118-.922-.354-1.186-.237-.264-.544-.396-.923-.396-.473 0-.897.21-1.272.627l-1.335-.193.843-4.47h4.354v1.54h-3.106l-.258 1.46a2.49 2.49 0 0 1 1.125-.276c.731 0 1.35.266 1.858.797s.762 1.22.762 2.068c0 .707-.205 1.338-.616 1.893-.558.758-1.334 1.136-2.326 1.136-.793 0-1.44-.212-1.94-.638-.5-.426-.798-.998-.896-1.717z"/></g></svg>