<svg width="36" height="36" viewBox="0 0 36 36" xmlns="http://www.w3.org/2000/svg"><title>d10-3</title><g fill-rule="evenodd"><g fill-rule="nonzero"><path d="M17.5 33.518v-5.653l-11.47-4.81-2.9 1.611 14.37 8.852zm1 .615l.024.016a1 1 0 1 1-1.048 1.702l-16-9.855A1 1 0 0 1 1 25.145v-.135a.5.5 0 0 1 0-.02V14a1 1 0 0 1 .37-.776l16-13a1 1 0 1 1 1.26 1.552l-.898.73-11.023 19.75 11.484 4.816a.5.5 0 0 1 .307.46v6.601zM15.636 4.21L3 14.476v9.119l2.633-1.463L15.636 4.209z"/><path d="M20.364 4.209l10.003 17.923L33 23.595v-9.119L20.364 4.209zm-2.096-1.703l-.899-.73A1 1 0 1 1 18.631.224l16 13A1 1 0 0 1 35 14v10.99a.5.5 0 0 1 0 .02v.135a1 1 0 0 1-.476.851l-16 9.855a1 1 0 1 1-1.048-1.702l.024-.016v-6.6a.5.5 0 0 1 .307-.461l11.484-4.817L18.268 2.506zm.232 31.012l14.37-8.852-2.9-1.611-11.47 4.81v5.653z"/></g><path d="M15.114 20.72l1.594-.193c.05.407.188.717.41.932.223.215.492.322.809.322.34 0 .626-.129.858-.386.233-.258.349-.606.349-1.043 0-.415-.112-.743-.334-.985a1.065 1.065 0 0 0-.815-.363c-.21 0-.463.04-.756.123l.182-1.342c.445.012.785-.085 1.02-.29.234-.205.351-.477.351-.817 0-.29-.086-.52-.258-.692-.171-.172-.4-.257-.685-.257a.992.992 0 0 0-.72.292c-.2.196-.321.481-.364.856l-1.518-.258c.106-.52.265-.934.478-1.245.213-.31.51-.555.89-.732a2.989 2.989 0 0 1 1.28-.267c.81 0 1.458.258 1.946.773.402.422.604.899.604 1.43 0 .754-.413 1.356-1.237 1.805a2 2 0 0 1 1.18.709c.296.367.443.81.443 1.33 0 .754-.275 1.396-.826 1.928-.55.53-1.236.796-2.057.796-.777 0-1.421-.223-1.933-.67-.512-.448-.809-1.033-.89-1.755z"/></g></svg>