<svg width="36" height="36" viewBox="0 0 36 36" xmlns="http://www.w3.org/2000/svg"><title>d10-2</title><g fill-rule="evenodd"><g fill-rule="nonzero"><path d="M17.5 33.518v-5.653l-11.47-4.81-2.9 1.611 14.37 8.852zm1 .615l.024.016a1 1 0 1 1-1.048 1.702l-16-9.855A1 1 0 0 1 1 25.145v-.135a.5.5 0 0 1 0-.02V14a1 1 0 0 1 .37-.776l16-13a1 1 0 1 1 1.26 1.552l-.898.73-11.023 19.75 11.484 4.816a.5.5 0 0 1 .307.46v6.601zM15.636 4.21L3 14.476v9.119l2.633-1.463L15.636 4.209z"/><path d="M20.364 4.209l10.003 17.923L33 23.595v-9.119L20.364 4.209zm-2.096-1.703l-.899-.73A1 1 0 1 1 18.631.224l16 13A1 1 0 0 1 35 14v10.99a.5.5 0 0 1 0 .02v.135a1 1 0 0 1-.476.851l-16 9.855a1 1 0 1 1-1.048-1.702l.024-.016v-6.6a.5.5 0 0 1 .307-.461l11.484-4.817L18.268 2.506zm.232 31.012l14.37-8.852-2.9-1.611-11.47 4.81v5.653z"/></g><path d="M20.733 21.47V23h-5.771c.062-.578.25-1.126.562-1.644.313-.517.93-1.204 1.852-2.06.742-.69 1.197-1.16 1.365-1.405.227-.34.34-.676.34-1.008 0-.367-.099-.65-.296-.847-.197-.197-.47-.296-.817-.296-.344 0-.617.104-.82.31-.204.208-.32.552-.352 1.032l-1.64-.164c.097-.906.404-1.557.92-1.951.515-.395 1.16-.592 1.933-.592.847 0 1.513.229 1.998.686.484.457.726 1.025.726 1.705 0 .386-.069.755-.208 1.104a4.46 4.46 0 0 1-.659 1.099c-.199.254-.558.619-1.078 1.095-.52.477-.849.793-.987.95a2.842 2.842 0 0 0-.337.457h3.27z"/></g></svg>