<svg width="36" height="36" viewBox="0 0 36 36" xmlns="http://www.w3.org/2000/svg"><title>d10-10</title><g fill-rule="evenodd"><g fill-rule="nonzero"><path d="M17.5 33.518v-5.653l-11.47-4.81-2.9 1.611 14.37 8.852zm1 .615l.024.016a1 1 0 1 1-1.048 1.702l-16-9.855A1 1 0 0 1 1 25.145v-.135a.5.5 0 0 1 0-.02V14a1 1 0 0 1 .37-.776l16-13a1 1 0 1 1 1.26 1.552l-.898.73-11.023 19.75 11.484 4.816a.5.5 0 0 1 .307.46v6.601zM15.636 4.21L3 14.476v9.119l2.633-1.463L15.636 4.209z"/><path d="M20.364 4.209l10.003 17.923L33 23.595v-9.119L20.364 4.209zm-2.096-1.703l-.899-.73A1 1 0 1 1 18.631.224l16 13A1 1 0 0 1 35 14v10.99a.5.5 0 0 1 0 .02v.135a1 1 0 0 1-.476.851l-16 9.855a1 1 0 1 1-1.048-1.702l.024-.016v-6.6a.5.5 0 0 1 .307-.461l11.484-4.817L18.268 2.506zm.232 31.012l14.37-8.852-2.9-1.611-11.47 4.81v5.653z"/></g><path d="M16.386 23h-1.647v-6.205a5.676 5.676 0 0 1-2.127 1.248v-1.494c.43-.14.897-.407 1.4-.8.505-.393.85-.85 1.038-1.374h1.336V23zm3.57-8.625c.832 0 1.482.297 1.951.89.559.704.838 1.87.838 3.499 0 1.625-.281 2.793-.844 3.504-.464.586-1.113.878-1.945.878-.836 0-1.51-.32-2.021-.963-.512-.643-.768-1.788-.768-3.437 0-1.617.281-2.781.844-3.492.465-.586 1.113-.879 1.945-.879zm0 1.365c-.2 0-.377.064-.533.19-.156.128-.277.355-.363.683-.114.426-.17 1.143-.17 2.15 0 1.008.05 1.7.152 2.078.102.377.23.628.384.753a.819.819 0 0 0 .53.187.82.82 0 0 0 .533-.19c.157-.127.278-.355.364-.683.113-.422.17-1.137.17-2.144 0-1.008-.051-1.7-.153-2.077-.101-.377-.23-.63-.384-.756a.811.811 0 0 0-.53-.19z"/></g></svg>