<?xml version="1.0" encoding="UTF-8"?>
<svg width="36px" height="36px" viewBox="0 0 36 36" version="1.1" xmlns="http://www.w3.org/2000/svg" xmlns:xlink="http://www.w3.org/1999/xlink">
    <!-- Generator: sketchtool 42 (36781) - http://www.bohemiancoding.com/sketch -->
    <title>d10-10</title>
    <desc>Created with sketchtool.</desc>
    <defs></defs>
    <g id="Font" stroke="none" stroke-width="1" fill="none" fill-rule="evenodd">
        <g id="d10-10" fill="#000000">
            <g id="d10-hollow" transform="translate(1.500000, 1.000000)" fill-rule="nonzero">
                <path d="M16,32.5175569 L16,26.8652113 L4.53055242,22.0550059 L1.62996066,23.6664458 L16,32.5175569 Z M17,33.133499 L17.0244416,33.1485536 C17.4946825,33.4381947 17.6410875,34.0542008 17.3514464,34.5244416 C17.0618053,34.9946825 16.4457992,35.1410875 15.9755584,34.8514464 L-0.0244416263,24.9963739 C-0.319993013,24.8143314 -0.5,24.4920444 -0.5,24.1449275 L-0.5,24.0099869 C-0.500121618,24.003624 -0.500121285,23.9972663 -0.5,23.9909172 L-0.5,13 C-0.5,12.6988714 -0.364302729,12.4137755 -0.130592625,12.223886 L15.8694074,-0.776114 C16.2980433,-1.12438069 16.9278473,-1.05922855 17.276114,-0.630592625 C17.6243807,-0.201956699 17.5592286,0.42784731 17.1305926,0.776114 L16.2318661,1.50632934 L5.2092143,21.2552471 L16.6933783,26.0716245 C16.8791318,26.1495282 17,26.3312871 17,26.5327154 L17,33.133499 Z M14.1363644,3.20892444 L1.5,13.4759705 L1.5,22.5946872 L4.13276502,21.13204 L14.1363644,3.20892444 Z" id="Combined-Shape"></path>
                <path d="M18.8636356,3.20892444 L28.867235,21.13204 L31.5,22.5946872 L31.5,13.4759705 L18.8636356,3.20892444 Z M16.7681339,1.50632934 L15.8694074,0.776114 C15.4407714,0.42784731 15.3756193,-0.201956699 15.723886,-0.630592625 C16.0721527,-1.05922855 16.7019567,-1.12438069 17.1305926,-0.776114 L33.1305926,12.223886 C33.3643027,12.4137755 33.5,12.6988714 33.5,13 L33.5,23.9909171 C33.5001213,23.9972663 33.5001216,24.003624 33.5,24.0099869 L33.5,24.1449275 C33.5,24.4920444 33.319993,24.8143314 33.0244416,24.9963739 L17.0244416,34.8514464 C16.5542008,35.1410875 15.9381947,34.9946825 15.6485536,34.5244416 C15.3589125,34.0542008 15.5053175,33.4381947 15.9755584,33.1485536 L16,33.133499 L16,26.5327154 C16,26.3312871 16.1208682,26.1495282 16.3066217,26.0716245 L27.7907857,21.2552471 L16.7681339,1.50632934 Z M17,32.5175569 L31.3700393,23.6664458 L28.4694476,22.0550059 L17,26.8652113 L17,32.5175569 Z" id="Combined-Shape"></path>
            </g>
            <g id="1" transform="translate(12.000000, 14.000000)">
                <path d="M4.38574219,9 L2.73925781,9 L2.73925781,2.79492188 C2.1376923,3.35742469 1.42871502,3.77343615 0.612304688,4.04296875 L0.612304688,2.54882812 C1.04199434,2.40820242 1.50878654,2.14160353 2.01269531,1.74902344 C2.51660408,1.35644335 2.86230375,0.898440117 3.04980469,0.375 L4.38574219,0.375 L4.38574219,9 Z"></path>
            </g>
            <g id="0" transform="translate(17.000000, 14.000000)">
                <path d="M2.95605469,0.375 C3.7880901,0.375 4.43847422,0.671872031 4.90722656,1.265625 C5.46582311,1.96875352 5.74511719,3.13475748 5.74511719,4.76367188 C5.74511719,6.38868 5.46387,7.55663707 4.90136719,8.26757812 C4.43652111,8.85351855 3.7880901,9.14648438 2.95605469,9.14648438 C2.12011301,9.14648438 1.44629162,8.82519853 0.934570313,8.18261719 C0.422849004,7.54003585 0.166992188,6.39453949 0.166992188,4.74609375 C0.166992188,3.12889816 0.448239375,1.9648473 1.01074219,1.25390625 C1.47558826,0.66796582 2.12401928,0.375 2.95605469,0.375 Z M2.95605469,1.74023438 C2.75683494,1.74023438 2.57910234,1.8037103 2.42285156,1.93066406 C2.26660078,2.05761782 2.14550824,2.28515461 2.05957031,2.61328125 C1.9462885,3.03906463 1.88964844,3.75585434 1.88964844,4.76367188 C1.88964844,5.77148941 1.94042918,6.4638653 2.04199219,6.84082031 C2.1435552,7.21777532 2.2714836,7.46874937 2.42578125,7.59375 C2.5800789,7.71875063 2.75683494,7.78125 2.95605469,7.78125 C3.15527443,7.78125 3.33300703,7.71777407 3.48925781,7.59082031 C3.64550859,7.46386655 3.76660113,7.23632977 3.85253906,6.90820312 C3.96582088,6.48632602 4.02246094,5.77148941 4.02246094,4.76367188 C4.02246094,3.75585434 3.9716802,3.06347845 3.87011719,2.68652344 C3.76855418,2.30956843 3.64062577,2.05761782 3.48632812,1.93066406 C3.33203048,1.8037103 3.15527443,1.74023438 2.95605469,1.74023438 Z"></path>
            </g>
        </g>
    </g>
</svg>