<?xml version="1.0" encoding="UTF-8"?>
<svg width="36px" height="36px" viewBox="0 0 36 36" version="1.1" xmlns="http://www.w3.org/2000/svg" xmlns:xlink="http://www.w3.org/1999/xlink">
    <!-- Generator: sketchtool 42 (36781) - http://www.bohemiancoding.com/sketch -->
    <title>d10-6</title>
    <desc>Created with sketchtool.</desc>
    <defs></defs>
    <g id="Font" stroke="none" stroke-width="1" fill="none" fill-rule="evenodd">
        <g id="d10-6" fill="#000000">
            <g id="d10-hollow" transform="translate(1.500000, 1.000000)" fill-rule="nonzero">
                <path d="M16,32.5175569 L16,26.8652113 L4.53055242,22.0550059 L1.62996066,23.6664458 L16,32.5175569 Z M17,33.133499 L17.0244416,33.1485536 C17.4946825,33.4381947 17.6410875,34.0542008 17.3514464,34.5244416 C17.0618053,34.9946825 16.4457992,35.1410875 15.9755584,34.8514464 L-0.0244416263,24.9963739 C-0.319993013,24.8143314 -0.5,24.4920444 -0.5,24.1449275 L-0.5,24.0099869 C-0.500121618,24.003624 -0.500121285,23.9972663 -0.5,23.9909172 L-0.5,13 C-0.5,12.6988714 -0.364302729,12.4137755 -0.130592625,12.223886 L15.8694074,-0.776114 C16.2980433,-1.12438069 16.9278473,-1.05922855 17.276114,-0.630592625 C17.6243807,-0.201956699 17.5592286,0.42784731 17.1305926,0.776114 L16.2318661,1.50632934 L5.2092143,21.2552471 L16.6933783,26.0716245 C16.8791318,26.1495282 17,26.3312871 17,26.5327154 L17,33.133499 Z M14.1363644,3.20892444 L1.5,13.4759705 L1.5,22.5946872 L4.13276502,21.13204 L14.1363644,3.20892444 Z" id="Combined-Shape"></path>
                <path d="M18.8636356,3.20892444 L28.867235,21.13204 L31.5,22.5946872 L31.5,13.4759705 L18.8636356,3.20892444 Z M16.7681339,1.50632934 L15.8694074,0.776114 C15.4407714,0.42784731 15.3756193,-0.201956699 15.723886,-0.630592625 C16.0721527,-1.05922855 16.7019567,-1.12438069 17.1305926,-0.776114 L33.1305926,12.223886 C33.3643027,12.4137755 33.5,12.6988714 33.5,13 L33.5,23.9909171 C33.5001213,23.9972663 33.5001216,24.003624 33.5,24.0099869 L33.5,24.1449275 C33.5,24.4920444 33.319993,24.8143314 33.0244416,24.9963739 L17.0244416,34.8514464 C16.5542008,35.1410875 15.9381947,34.9946825 15.6485536,34.5244416 C15.3589125,34.0542008 15.5053175,33.4381947 15.9755584,33.1485536 L16,33.133499 L16,26.5327154 C16,26.3312871 16.1208682,26.1495282 16.3066217,26.0716245 L27.7907857,21.2552471 L16.7681339,1.50632934 Z M17,32.5175569 L31.3700393,23.6664458 L28.4694476,22.0550059 L17,26.8652113 L17,32.5175569 Z" id="Combined-Shape"></path>
            </g>
            <g id="6" transform="translate(15.000000, 14.000000)">
                <path d="M5.75097656,2.51367188 L4.15722656,2.68945312 C4.11816387,2.36132648 4.01660238,2.11914141 3.85253906,1.96289062 C3.68847574,1.80663984 3.47558725,1.72851562 3.21386719,1.72851562 C2.8662092,1.72851562 2.57226683,1.88476406 2.33203125,2.19726562 C2.09179567,2.50976719 1.94043,3.16015131 1.87792969,4.1484375 C2.28808799,3.66406008 2.79784852,3.421875 3.40722656,3.421875 C4.09473,3.421875 4.6835913,3.68359113 5.17382812,4.20703125 C5.66406495,4.73047137 5.90917969,5.40624586 5.90917969,6.234375 C5.90917969,7.11328564 5.65136977,7.81835672 5.13574219,8.34960938 C4.62011461,8.88086203 3.95801186,9.14648438 3.14941406,9.14648438 C2.28222223,9.14648438 1.56933873,8.80957368 1.01074219,8.13574219 C0.452145645,7.46191069 0.172851562,6.35742955 0.172851562,4.82226562 C0.172851562,3.248039 0.463864277,2.11328473 1.04589844,1.41796875 C1.6279326,0.722652773 2.38378441,0.375 3.31347656,0.375 C3.96582357,0.375 4.50585724,0.557615361 4.93359375,0.922851562 C5.36133026,1.28808776 5.63378848,1.8183559 5.75097656,2.51367188 Z M2.01855469,6.10546875 C2.01855469,6.64062768 2.14160033,7.05370948 2.38769531,7.34472656 C2.63379029,7.63574364 2.91503748,7.78125 3.23144531,7.78125 C3.53613434,7.78125 3.79003805,7.66211057 3.99316406,7.42382812 C4.19629008,7.18554568 4.29785156,6.79492459 4.29785156,6.25195312 C4.29785156,5.69335658 4.18847766,5.28418099 3.96972656,5.02441406 C3.75097547,4.76464714 3.4775407,4.63476562 3.14941406,4.63476562 C2.83300623,4.63476562 2.56543078,4.75878782 2.34667969,5.00683594 C2.12792859,5.25488405 2.01855469,5.62109133 2.01855469,6.10546875 Z"></path>
            </g>
        </g>
    </g>
</svg>