<?xml version="1.0" encoding="UTF-8"?>
<svg width="36px" height="36px" viewBox="0 0 36 36" version="1.1" xmlns="http://www.w3.org/2000/svg" xmlns:xlink="http://www.w3.org/1999/xlink">
    <!-- Generator: sketchtool 42 (36781) - http://www.bohemiancoding.com/sketch -->
    <title>d10-4</title>
    <desc>Created with sketchtool.</desc>
    <defs></defs>
    <g id="Font" stroke="none" stroke-width="1" fill="none" fill-rule="evenodd">
        <g id="d10-4" fill="#000000">
            <g id="d10-hollow" transform="translate(1.500000, 1.000000)" fill-rule="nonzero">
                <path d="M16,32.5175569 L16,26.8652113 L4.53055242,22.0550059 L1.62996066,23.6664458 L16,32.5175569 Z M17,33.133499 L17.0244416,33.1485536 C17.4946825,33.4381947 17.6410875,34.0542008 17.3514464,34.5244416 C17.0618053,34.9946825 16.4457992,35.1410875 15.9755584,34.8514464 L-0.0244416263,24.9963739 C-0.319993013,24.8143314 -0.5,24.4920444 -0.5,24.1449275 L-0.5,24.0099869 C-0.500121618,24.003624 -0.500121285,23.9972663 -0.5,23.9909172 L-0.5,13 C-0.5,12.6988714 -0.364302729,12.4137755 -0.130592625,12.223886 L15.8694074,-0.776114 C16.2980433,-1.12438069 16.9278473,-1.05922855 17.276114,-0.630592625 C17.6243807,-0.201956699 17.5592286,0.42784731 17.1305926,0.776114 L16.2318661,1.50632934 L5.2092143,21.2552471 L16.6933783,26.0716245 C16.8791318,26.1495282 17,26.3312871 17,26.5327154 L17,33.133499 Z M14.1363644,3.20892444 L1.5,13.4759705 L1.5,22.5946872 L4.13276502,21.13204 L14.1363644,3.20892444 Z" id="Combined-Shape"></path>
                <path d="M18.8636356,3.20892444 L28.867235,21.13204 L31.5,22.5946872 L31.5,13.4759705 L18.8636356,3.20892444 Z M16.7681339,1.50632934 L15.8694074,0.776114 C15.4407714,0.42784731 15.3756193,-0.201956699 15.723886,-0.630592625 C16.0721527,-1.05922855 16.7019567,-1.12438069 17.1305926,-0.776114 L33.1305926,12.223886 C33.3643027,12.4137755 33.5,12.6988714 33.5,13 L33.5,23.9909171 C33.5001213,23.9972663 33.5001216,24.003624 33.5,24.0099869 L33.5,24.1449275 C33.5,24.4920444 33.319993,24.8143314 33.0244416,24.9963739 L17.0244416,34.8514464 C16.5542008,35.1410875 15.9381947,34.9946825 15.6485536,34.5244416 C15.3589125,34.0542008 15.5053175,33.4381947 15.9755584,33.1485536 L16,33.133499 L16,26.5327154 C16,26.3312871 16.1208682,26.1495282 16.3066217,26.0716245 L27.7907857,21.2552471 L16.7681339,1.50632934 Z M17,32.5175569 L31.3700393,23.6664458 L28.4694476,22.0550059 L17,26.8652113 L17,32.5175569 Z" id="Combined-Shape"></path>
            </g>
            <g id="4" transform="translate(14.000000, 14.000000)">
                <path d="M4.40136719,9 L4.40136719,7.27148438 L0.885742188,7.27148438 L0.885742188,5.83007812 L4.61230469,0.375 L5.99511719,0.375 L5.99511719,5.82421875 L7.06152344,5.82421875 L7.06152344,7.27148438 L5.99511719,7.27148438 L5.99511719,9 L4.40136719,9 Z M4.40136719,5.82421875 L4.40136719,2.88867188 L2.42675781,5.82421875 L4.40136719,5.82421875 Z"></path>
            </g>
        </g>
    </g>
</svg>