<?xml version="1.0" encoding="UTF-8"?>
<svg width="36px" height="36px" viewBox="0 0 36 36" version="1.1" xmlns="http://www.w3.org/2000/svg" xmlns:xlink="http://www.w3.org/1999/xlink">
    <!-- Generator: sketchtool 42 (36781) - http://www.bohemiancoding.com/sketch -->
    <title>d10-3</title>
    <desc>Created with sketchtool.</desc>
    <defs></defs>
    <g id="Font" stroke="none" stroke-width="1" fill="none" fill-rule="evenodd">
        <g id="d10-3" fill="#000000">
            <g id="d10-hollow" transform="translate(1.500000, 1.000000)" fill-rule="nonzero">
                <path d="M16,32.5175569 L16,26.8652113 L4.53055242,22.0550059 L1.62996066,23.6664458 L16,32.5175569 Z M17,33.133499 L17.0244416,33.1485536 C17.4946825,33.4381947 17.6410875,34.0542008 17.3514464,34.5244416 C17.0618053,34.9946825 16.4457992,35.1410875 15.9755584,34.8514464 L-0.0244416263,24.9963739 C-0.319993013,24.8143314 -0.5,24.4920444 -0.5,24.1449275 L-0.5,24.0099869 C-0.500121618,24.003624 -0.500121285,23.9972663 -0.5,23.9909172 L-0.5,13 C-0.5,12.6988714 -0.364302729,12.4137755 -0.130592625,12.223886 L15.8694074,-0.776114 C16.2980433,-1.12438069 16.9278473,-1.05922855 17.276114,-0.630592625 C17.6243807,-0.201956699 17.5592286,0.42784731 17.1305926,0.776114 L16.2318661,1.50632934 L5.2092143,21.2552471 L16.6933783,26.0716245 C16.8791318,26.1495282 17,26.3312871 17,26.5327154 L17,33.133499 Z M14.1363644,3.20892444 L1.5,13.4759705 L1.5,22.5946872 L4.13276502,21.13204 L14.1363644,3.20892444 Z" id="Combined-Shape"></path>
                <path d="M18.8636356,3.20892444 L28.867235,21.13204 L31.5,22.5946872 L31.5,13.4759705 L18.8636356,3.20892444 Z M16.7681339,1.50632934 L15.8694074,0.776114 C15.4407714,0.42784731 15.3756193,-0.201956699 15.723886,-0.630592625 C16.0721527,-1.05922855 16.7019567,-1.12438069 17.1305926,-0.776114 L33.1305926,12.223886 C33.3643027,12.4137755 33.5,12.6988714 33.5,13 L33.5,23.9909171 C33.5001213,23.9972663 33.5001216,24.003624 33.5,24.0099869 L33.5,24.1449275 C33.5,24.4920444 33.319993,24.8143314 33.0244416,24.9963739 L17.0244416,34.8514464 C16.5542008,35.1410875 15.9381947,34.9946825 15.6485536,34.5244416 C15.3589125,34.0542008 15.5053175,33.4381947 15.9755584,33.1485536 L16,33.133499 L16,26.5327154 C16,26.3312871 16.1208682,26.1495282 16.3066217,26.0716245 L27.7907857,21.2552471 L16.7681339,1.50632934 Z M17,32.5175569 L31.3700393,23.6664458 L28.4694476,22.0550059 L17,26.8652113 L17,32.5175569 Z" id="Combined-Shape"></path>
            </g>
            <g id="3" transform="translate(15.000000, 14.000000)">
                <path d="M0.114257812,6.72070312 L1.70800781,6.52734375 C1.75878932,6.93359578 1.8955067,7.24413955 2.11816406,7.45898438 C2.34082143,7.6738292 2.61034998,7.78125 2.92675781,7.78125 C3.26660326,7.78125 3.55273321,7.65234504 3.78515625,7.39453125 C4.01757929,7.13671746 4.13378906,6.78906469 4.13378906,6.3515625 C4.13378906,5.93749793 4.02246205,5.60937621 3.79980469,5.3671875 C3.57714732,5.12499879 3.30566566,5.00390625 2.98535156,5.00390625 C2.77441301,5.00390625 2.5224624,5.04492146 2.22949219,5.12695312 L2.41113281,3.78515625 C2.85644754,3.79687506 3.19628789,3.70019634 3.43066406,3.49511719 C3.66504023,3.29003804 3.78222656,3.01757982 3.78222656,2.67773438 C3.78222656,2.38867043 3.69628992,2.15820398 3.52441406,1.98632812 C3.3525382,1.81445227 3.12402486,1.72851562 2.83886719,1.72851562 C2.55761578,1.72851562 2.31738381,1.8261709 2.11816406,2.02148438 C1.91894432,2.21679785 1.79785178,2.50195125 1.75488281,2.87695312 L0.237304688,2.61914062 C0.342773965,2.09960678 0.501952061,1.68457187 0.71484375,1.37402344 C0.927735439,1.06347501 1.22460747,0.819336826 1.60546875,0.641601562 C1.98633003,0.463866299 2.41308357,0.375 2.88574219,0.375 C3.69433998,0.375 4.342771,0.632809922 4.83105469,1.1484375 C5.23340045,1.57031461 5.43457031,2.04687234 5.43457031,2.578125 C5.43457031,3.33203502 5.02246506,3.9335915 4.19824219,4.3828125 C4.69043215,4.48828178 5.0839829,4.72460754 5.37890625,5.09179688 C5.6738296,5.45898621 5.82128906,5.90234115 5.82128906,6.421875 C5.82128906,7.17578502 5.54590119,7.81835672 4.99511719,8.34960938 C4.44433318,8.88086203 3.75879316,9.14648438 2.93847656,9.14648438 C2.16112893,9.14648438 1.51660412,8.9228538 1.00488281,8.47558594 C0.493161504,8.02831808 0.196289473,7.44336299 0.114257812,6.72070312 Z"></path>
            </g>
        </g>
    </g>
</svg>