<?xml version="1.0" encoding="UTF-8"?>
<svg width="36px" height="36px" viewBox="0 0 36 36" version="1.1" xmlns="http://www.w3.org/2000/svg" xmlns:xlink="http://www.w3.org/1999/xlink">
    <!-- Generator: sketchtool 42 (36781) - http://www.bohemiancoding.com/sketch -->
    <title>d12-5</title>
    <desc>Created with sketchtool.</desc>
    <defs></defs>
    <g id="Font" stroke="none" stroke-width="1" fill="none" fill-rule="evenodd">
        <g id="d12-5" fill="#000000">
            <g id="d12-hollow" transform="translate(1.000000, 1.000000)" fill-rule="nonzero">
                <path d="M26.3743153,29.9026381 L32.1679608,21.9283692 L32.1679608,12.0716308 L26.3743153,4.0973619 L17,1.05146222 L7.6256847,4.0973619 L1.83203922,12.0716308 L1.83203922,21.9283692 L7.6256847,29.9026381 L17,32.9485378 L26.3743153,29.9026381 Z M16.690983,34.9510565 L6.69863372,31.7043454 C6.49779031,31.6390874 6.32276177,31.5119218 6.19863372,31.3410742 L0.0230222286,22.8410742 C-0.101105822,22.6702266 -0.167960777,22.4644682 -0.167960777,22.2532889 L-0.167960777,11.7467111 C-0.167960777,11.5355318 -0.101105822,11.3297734 0.0230222286,11.1589258 L6.19863372,2.65892584 C6.32276177,2.48807824 6.49779031,2.36091256 6.69863372,2.29565458 L16.690983,-0.951056516 C16.8918264,-1.01631449 17.1081736,-1.01631449 17.309017,-0.951056516 L27.3013663,2.29565458 C27.5022097,2.36091256 27.6772382,2.48807824 27.8013663,2.65892584 L33.9769778,11.1589258 C34.1011058,11.3297734 34.1679608,11.5355318 34.1679608,11.7467111 L34.1679608,22.2532889 C34.1679608,22.4644682 34.1011058,22.6702266 33.9769778,22.8410742 L27.8013663,31.3410742 C27.6772382,31.5119218 27.5022097,31.6390874 27.3013663,31.7043454 L17.309017,34.9510565 C17.1081736,35.0163145 16.8918264,35.0163145 16.690983,34.9510565 Z" id="Polygon-5"></path>
                <path d="M7.12616357,13.7917961 L10.8976335,25.3991869 L23.1023665,25.3991869 L26.8738364,13.7917961 L17,6.61803399 L7.12616357,13.7917961 Z M17.2938926,5.5954915 L27.7555143,13.1963046 C27.930758,13.3236266 28.0040871,13.5493102 27.9371499,13.7553216 L23.941166,26.0536954 C23.8742289,26.2597068 23.6822509,26.3991869 23.4656378,26.3991869 L10.5343622,26.3991869 C10.3177491,26.3991869 10.1257711,26.2597068 10.058834,26.0536954 L6.06285006,13.7553216 C5.99591292,13.5493102 6.06924199,13.3236266 6.24448569,13.1963046 L16.7061074,5.5954915 C16.8813511,5.4681695 17.1186489,5.4681695 17.2938926,5.5954915 Z" id="Polygon-5"></path>
                <path d="M7.39467611,30.8069703 L10.8946761,26.3069703 C11.0642111,26.0889967 11.0249439,25.7748589 10.8069703,25.6053239 C10.5889967,25.4357889 10.2748589,25.4750561 10.1053239,25.6930297 L6.60532389,30.1930297 C6.43578887,30.4110033 6.4750561,30.7251411 6.69302969,30.8946761 C6.91100329,31.0642111 7.22514109,31.0249439 7.39467611,30.8069703 Z" id="Line"></path>
                <path d="M0.868441297,12.4823819 L6.3684413,13.9823819 C6.63485347,14.0550398 6.90972405,13.8979709 6.98238191,13.6315587 C7.05503978,13.3651465 6.89797088,13.090276 6.6315587,13.0176181 L1.1315587,11.5176181 C0.86514653,11.4449602 0.590275955,11.6020291 0.517618089,11.8684413 C0.444960224,12.1348535 0.602029124,12.409724 0.868441297,12.4823819 Z" id="Line"></path>
                <path d="M16.5,0.5 L16.5,6 C16.5,6.27614237 16.7238576,6.5 17,6.5 C17.2761424,6.5 17.5,6.27614237 17.5,6 L17.5,0.5 C17.5,0.223857625 17.2761424,0 17,0 C16.7238576,0 16.5,0.223857625 16.5,0.5 Z" id="Line"></path>
                <path d="M27.3946761,30.1930297 L23.8946761,25.6930297 C23.7251411,25.4750561 23.4110033,25.4357889 23.1930297,25.6053239 C22.9750561,25.7748589 22.9357889,26.0889967 23.1053239,26.3069703 L26.6053239,30.8069703 C26.7748589,31.0249439 27.0889967,31.0642111 27.3069703,30.8946761 C27.5249439,30.7251411 27.5642111,30.4110033 27.3946761,30.1930297 Z" id="Line"></path>
                <path d="M32.8684413,11.5176181 L27.3684413,13.0176181 C27.1020291,13.090276 26.9449602,13.3651465 27.0176181,13.6315587 C27.090276,13.8979709 27.3651465,14.0550398 27.6315587,13.9823819 L33.1315587,12.4823819 C33.3979709,12.409724 33.5550398,12.1348535 33.4823819,11.8684413 C33.409724,11.6020291 33.1348535,11.4449602 32.8684413,11.5176181 Z" id="Line"></path>
                <path d="M16.5,0.5 L16.5,6 C16.5,6.27614237 16.7238576,6.5 17,6.5 C17.2761424,6.5 17.5,6.27614237 17.5,6 L17.5,0.5 C17.5,0.223857625 17.2761424,0 17,0 C16.7238576,0 16.5,0.223857625 16.5,0.5 Z" id="Line"></path>
            </g>
            <g id="5" transform="translate(15.000000, 14.000000)">
                <path d="M0.196289062,6.79101562 L1.83691406,6.62109375 C1.8837893,6.99218936 2.02245979,7.28613173 2.25292969,7.50292969 C2.48339959,7.71972765 2.74902193,7.828125 3.04980469,7.828125 C3.39355641,7.828125 3.68456912,7.68847796 3.92285156,7.40917969 C4.161134,7.12988142 4.28027344,6.70898719 4.28027344,6.14648438 C4.28027344,5.61913799 4.16211056,5.22363413 3.92578125,4.95996094 C3.68945194,4.69628774 3.38183783,4.56445312 3.00292969,4.56445312 C2.53027107,4.56445312 2.10644719,4.77343541 1.73144531,5.19140625 L0.395507812,4.99804688 L1.23925781,0.52734375 L5.59277344,0.52734375 L5.59277344,2.06835938 L2.48730469,2.06835938 L2.22949219,3.52734375 C2.59668152,3.34374908 2.97167777,3.25195312 3.35449219,3.25195312 C4.08496459,3.25195312 4.70409902,3.51757547 5.21191406,4.04882812 C5.7197291,4.58008078 5.97363281,5.26952701 5.97363281,6.1171875 C5.97363281,6.82422229 5.76855674,7.45507535 5.35839844,8.00976562 C4.79980189,8.76758191 4.02441902,9.14648438 3.03222656,9.14648438 C2.23925385,9.14648438 1.59277594,8.93359588 1.09277344,8.5078125 C0.592770938,8.08202912 0.293945801,7.50976922 0.196289062,6.79101562 Z"></path>
            </g>
        </g>
    </g>
</svg>