<?xml version="1.0" encoding="UTF-8"?>
<svg width="36px" height="36px" viewBox="0 0 36 36" version="1.1" xmlns="http://www.w3.org/2000/svg" xmlns:xlink="http://www.w3.org/1999/xlink">
    <!-- Generator: sketchtool 42 (36781) - http://www.bohemiancoding.com/sketch -->
    <title>d12-8</title>
    <desc>Created with sketchtool.</desc>
    <defs></defs>
    <g id="Font" stroke="none" stroke-width="1" fill="none" fill-rule="evenodd">
        <g id="d12-8" fill="#000000">
            <g id="d12-hollow" transform="translate(1.000000, 1.000000)" fill-rule="nonzero">
                <path d="M26.3743153,29.9026381 L32.1679608,21.9283692 L32.1679608,12.0716308 L26.3743153,4.0973619 L17,1.05146222 L7.6256847,4.0973619 L1.83203922,12.0716308 L1.83203922,21.9283692 L7.6256847,29.9026381 L17,32.9485378 L26.3743153,29.9026381 Z M16.690983,34.9510565 L6.69863372,31.7043454 C6.49779031,31.6390874 6.32276177,31.5119218 6.19863372,31.3410742 L0.0230222286,22.8410742 C-0.101105822,22.6702266 -0.167960777,22.4644682 -0.167960777,22.2532889 L-0.167960777,11.7467111 C-0.167960777,11.5355318 -0.101105822,11.3297734 0.0230222286,11.1589258 L6.19863372,2.65892584 C6.32276177,2.48807824 6.49779031,2.36091256 6.69863372,2.29565458 L16.690983,-0.951056516 C16.8918264,-1.01631449 17.1081736,-1.01631449 17.309017,-0.951056516 L27.3013663,2.29565458 C27.5022097,2.36091256 27.6772382,2.48807824 27.8013663,2.65892584 L33.9769778,11.1589258 C34.1011058,11.3297734 34.1679608,11.5355318 34.1679608,11.7467111 L34.1679608,22.2532889 C34.1679608,22.4644682 34.1011058,22.6702266 33.9769778,22.8410742 L27.8013663,31.3410742 C27.6772382,31.5119218 27.5022097,31.6390874 27.3013663,31.7043454 L17.309017,34.9510565 C17.1081736,35.0163145 16.8918264,35.0163145 16.690983,34.9510565 Z" id="Polygon-5"></path>
                <path d="M7.12616357,13.7917961 L10.8976335,25.3991869 L23.1023665,25.3991869 L26.8738364,13.7917961 L17,6.61803399 L7.12616357,13.7917961 Z M17.2938926,5.5954915 L27.7555143,13.1963046 C27.930758,13.3236266 28.0040871,13.5493102 27.9371499,13.7553216 L23.941166,26.0536954 C23.8742289,26.2597068 23.6822509,26.3991869 23.4656378,26.3991869 L10.5343622,26.3991869 C10.3177491,26.3991869 10.1257711,26.2597068 10.058834,26.0536954 L6.06285006,13.7553216 C5.99591292,13.5493102 6.06924199,13.3236266 6.24448569,13.1963046 L16.7061074,5.5954915 C16.8813511,5.4681695 17.1186489,5.4681695 17.2938926,5.5954915 Z" id="Polygon-5"></path>
                <path d="M7.39467611,30.8069703 L10.8946761,26.3069703 C11.0642111,26.0889967 11.0249439,25.7748589 10.8069703,25.6053239 C10.5889967,25.4357889 10.2748589,25.4750561 10.1053239,25.6930297 L6.60532389,30.1930297 C6.43578887,30.4110033 6.4750561,30.7251411 6.69302969,30.8946761 C6.91100329,31.0642111 7.22514109,31.0249439 7.39467611,30.8069703 Z" id="Line"></path>
                <path d="M0.868441297,12.4823819 L6.3684413,13.9823819 C6.63485347,14.0550398 6.90972405,13.8979709 6.98238191,13.6315587 C7.05503978,13.3651465 6.89797088,13.090276 6.6315587,13.0176181 L1.1315587,11.5176181 C0.86514653,11.4449602 0.590275955,11.6020291 0.517618089,11.8684413 C0.444960224,12.1348535 0.602029124,12.409724 0.868441297,12.4823819 Z" id="Line"></path>
                <path d="M16.5,0.5 L16.5,6 C16.5,6.27614237 16.7238576,6.5 17,6.5 C17.2761424,6.5 17.5,6.27614237 17.5,6 L17.5,0.5 C17.5,0.223857625 17.2761424,0 17,0 C16.7238576,0 16.5,0.223857625 16.5,0.5 Z" id="Line"></path>
                <path d="M27.3946761,30.1930297 L23.8946761,25.6930297 C23.7251411,25.4750561 23.4110033,25.4357889 23.1930297,25.6053239 C22.9750561,25.7748589 22.9357889,26.0889967 23.1053239,26.3069703 L26.6053239,30.8069703 C26.7748589,31.0249439 27.0889967,31.0642111 27.3069703,30.8946761 C27.5249439,30.7251411 27.5642111,30.4110033 27.3946761,30.1930297 Z" id="Line"></path>
                <path d="M32.8684413,11.5176181 L27.3684413,13.0176181 C27.1020291,13.090276 26.9449602,13.3651465 27.0176181,13.6315587 C27.090276,13.8979709 27.3651465,14.0550398 27.6315587,13.9823819 L33.1315587,12.4823819 C33.3979709,12.409724 33.5550398,12.1348535 33.4823819,11.8684413 C33.409724,11.6020291 33.1348535,11.4449602 32.8684413,11.5176181 Z" id="Line"></path>
                <path d="M16.5,0.5 L16.5,6 C16.5,6.27614237 16.7238576,6.5 17,6.5 C17.2761424,6.5 17.5,6.27614237 17.5,6 L17.5,0.5 C17.5,0.223857625 17.2761424,0 17,0 C16.7238576,0 16.5,0.223857625 16.5,0.5 Z" id="Line"></path>
            </g>
            <g id="8" transform="translate(15.000000, 14.000000)">
                <path d="M1.58496094,4.36523438 C1.15917756,4.18554598 0.849610342,3.93847813 0.65625,3.62402344 C0.462889658,3.30956874 0.366210938,2.96484562 0.366210938,2.58984375 C0.366210938,1.94921555 0.589841514,1.41992396 1.03710938,1.00195312 C1.48437724,0.583982285 2.12011307,0.375 2.94433594,0.375 C3.76074627,0.375 4.39452899,0.583982285 4.84570312,1.00195312 C5.29687726,1.41992396 5.52246094,1.94921555 5.52246094,2.58984375 C5.52246094,2.98828324 5.41894635,3.34277188 5.21191406,3.65332031 C5.00488178,3.96386874 4.71386906,4.20117105 4.33886719,4.36523438 C4.81543207,4.55664158 5.17773313,4.83593566 5.42578125,5.203125 C5.67382937,5.57031434 5.79785156,5.99413822 5.79785156,6.47460938 C5.79785156,7.26758209 5.5449244,7.91210689 5.0390625,8.40820312 C4.5332006,8.90429936 3.86035576,9.15234375 3.02050781,9.15234375 C2.23925391,9.15234375 1.58886979,8.94726768 1.06933594,8.53710938 C0.456051621,8.05273195 0.149414062,7.38867609 0.149414062,6.54492188 C0.149414062,6.0800758 0.264647285,5.65332226 0.495117188,5.26464844 C0.72558709,4.87597462 1.08886471,4.57617293 1.58496094,4.36523438 Z M1.92480469,2.70703125 C1.92480469,3.03515789 2.0175772,3.29101471 2.203125,3.47460938 C2.3886728,3.65820404 2.63574064,3.75 2.94433594,3.75 C3.2568375,3.75 3.506835,3.65722749 3.69433594,3.47167969 C3.88183688,3.28613188 3.97558594,3.02929852 3.97558594,2.70117188 C3.97558594,2.39257658 3.88281343,2.14550874 3.69726562,1.95996094 C3.51171782,1.77441313 3.26660309,1.68164062 2.96191406,1.68164062 C2.64550623,1.68164062 2.39355563,1.77538969 2.20605469,1.96289062 C2.01855375,2.15039156 1.92480469,2.39843596 1.92480469,2.70703125 Z M1.77246094,6.38671875 C1.77246094,6.83984602 1.88867071,7.19335811 2.12109375,7.44726562 C2.35351679,7.70117314 2.64355295,7.828125 2.99121094,7.828125 C3.33105639,7.828125 3.61230357,7.70605591 3.83496094,7.46191406 C4.0576183,7.21777222 4.16894531,6.86523668 4.16894531,6.40429688 C4.16894531,6.00195111 4.0556652,5.67871216 3.82910156,5.43457031 C3.60253793,5.19042847 3.31543143,5.06835938 2.96777344,5.06835938 C2.56542768,5.06835938 2.26562599,5.20702986 2.06835938,5.484375 C1.87109276,5.76172014 1.77246094,6.06249838 1.77246094,6.38671875 Z"></path>
            </g>
        </g>
    </g>
</svg>