<svg width="36" height="36" viewBox="0 0 36 36" xmlns="http://www.w3.org/2000/svg"><title>d12-9</title><g fill-rule="evenodd"><path d="M7.114 14.913l-4.282-1.168v9.183l5.41 7.446 2.748-3.533-3.876-11.928zm.415-.923L17.5 6.745V2.214L8.626 5.097 3.052 12.77l4.477 1.22zM18.5 6.745l9.971 7.245 4.477-1.221-5.574-7.672L18.5 2.214v4.531zm10.386 8.168L25.01 26.841l2.748 3.533 5.41-7.446v-9.183l-4.282 1.168zm-4.709 12.486H11.823l-2.82 3.626L18 33.95l8.997-2.924-2.82-3.626zm-6.486 8.552l-9.992-3.247a1 1 0 0 1-.5-.363l-6.176-8.5a1 1 0 0 1-.191-.588V12.747a1 1 0 0 1 .191-.588l6.176-8.5a1 1 0 0 1 .5-.363L17.69.049a1 1 0 0 1 .618 0L28.3 3.296a1 1 0 0 1 .5.363l6.176 8.5a1 1 0 0 1 .191.588v10.506a1 1 0 0 1-.191.588l-6.176 8.5a1 1 0 0 1-.5.363l-9.992 3.247a1 1 0 0 1-.618 0zm-9.565-21.16L11.898 26.4h12.204l3.772-11.607L18 7.618l-9.874 7.174z"/><path d="M15.208 21.014l1.594-.176c.039.324.14.564.304.72.165.157.381.235.65.235.34 0 .63-.156.868-.469.238-.312.39-.96.457-1.945-.414.48-.932.72-1.553.72-.675 0-1.258-.26-1.749-.782-.49-.521-.735-1.2-.735-2.036 0-.87.259-1.573.776-2.106.518-.533 1.177-.8 1.978-.8.87 0 1.586.337 2.144 1.01.559.675.838 1.783.838 3.326 0 1.57-.29 2.703-.873 3.398-.582.696-1.34 1.043-2.273 1.043-.672 0-1.215-.178-1.63-.536-.413-.357-.679-.891-.796-1.602zm3.727-3.598c0-.531-.122-.943-.367-1.236-.244-.293-.526-.44-.846-.44a.949.949 0 0 0-.76.36c-.2.24-.3.634-.3 1.181 0 .555.109.962.327 1.222.219.26.492.39.82.39.317 0 .584-.125.8-.375.217-.25.326-.618.326-1.102z"/></g></svg>