<svg width="36" height="36" viewBox="0 0 36 36" xmlns="http://www.w3.org/2000/svg"><title>d12-3</title><g fill-rule="evenodd"><path d="M7.114 14.913l-4.282-1.168v9.183l5.41 7.446 2.748-3.533-3.876-11.928zm.415-.923L17.5 6.745V2.214L8.626 5.097 3.052 12.77l4.477 1.22zM18.5 6.745l9.971 7.245 4.477-1.221-5.574-7.672L18.5 2.214v4.531zm10.386 8.168L25.01 26.841l2.748 3.533 5.41-7.446v-9.183l-4.282 1.168zm-4.709 12.486H11.823l-2.82 3.626L18 33.95l8.997-2.924-2.82-3.626zm-6.486 8.552l-9.992-3.247a1 1 0 0 1-.5-.363l-6.176-8.5a1 1 0 0 1-.191-.588V12.747a1 1 0 0 1 .191-.588l6.176-8.5a1 1 0 0 1 .5-.363L17.69.049a1 1 0 0 1 .618 0L28.3 3.296a1 1 0 0 1 .5.363l6.176 8.5a1 1 0 0 1 .191.588v10.506a1 1 0 0 1-.191.588l-6.176 8.5a1 1 0 0 1-.5.363l-9.992 3.247a1 1 0 0 1-.618 0zm-9.565-21.16L11.898 26.4h12.204l3.772-11.607L18 7.618l-9.874 7.174z"/><path d="M15.114 20.72l1.594-.193c.05.407.188.717.41.932.223.215.492.322.809.322.34 0 .626-.129.858-.386.233-.258.349-.606.349-1.043 0-.415-.112-.743-.334-.985a1.065 1.065 0 0 0-.815-.363c-.21 0-.463.04-.756.123l.182-1.342c.445.012.785-.085 1.02-.29.234-.205.351-.477.351-.817 0-.29-.086-.52-.258-.692-.171-.172-.4-.257-.685-.257a.992.992 0 0 0-.72.292c-.2.196-.321.481-.364.856l-1.518-.258c.106-.52.265-.934.478-1.245.213-.31.51-.555.89-.732a2.989 2.989 0 0 1 1.28-.267c.81 0 1.458.258 1.946.773.402.422.604.899.604 1.43 0 .754-.413 1.356-1.237 1.805a2 2 0 0 1 1.18.709c.296.367.443.81.443 1.33 0 .754-.275 1.396-.826 1.928-.55.53-1.236.796-2.057.796-.777 0-1.421-.223-1.933-.67-.512-.448-.809-1.033-.89-1.755z"/></g></svg>