<?xml version="1.0" encoding="UTF-8"?>
<svg width="36px" height="36px" viewBox="0 0 36 36" version="1.1" xmlns="http://www.w3.org/2000/svg" xmlns:xlink="http://www.w3.org/1999/xlink">
    <!-- Generator: sketchtool 42 (36781) - http://www.bohemiancoding.com/sketch -->
    <title>d20-7</title>
    <desc>Created with sketchtool.</desc>
    <defs></defs>
    <g id="Font" stroke="none" stroke-width="1" fill="none" fill-rule="evenodd">
        <g id="d20-7" fill="#000000">
            <g id="d20-hollow" transform="translate(1.000000, 1.000000)" fill-rule="nonzero">
                <path d="M17.5,4 L17.5,0 C17.5,-0.276142375 17.2761424,-0.5 17,-0.5 C16.7238576,-0.5 16.5,-0.276142375 16.5,0 L16.5,4 C16.5,4.27614237 16.7238576,4.5 17,4.5 C17.2761424,4.5 17.5,4.27614237 17.5,4 Z" id="Line"></path>
                <path d="M3.07868837,8.84393211 L5.95815226,23.2412516 L17,33.3229386 L28.0418477,23.2412516 L30.9213116,8.84393211 L17,4.52352505 L3.07868837,8.84393211 Z M17.1481996,3.52246793 L31.6481996,8.02246793 C31.8928277,8.09838701 32.0405231,8.34689418 31.9902903,8.59805807 L28.9902903,23.5980581 C28.9694113,23.702453 28.9157556,23.7974584 28.8371347,23.8692427 L17.3371347,34.3692427 C17.1461876,34.5435858 16.8538124,34.5435858 16.6628653,34.3692427 L5.16286532,23.8692427 C5.08424439,23.7974584 5.03058865,23.702453 5.00970966,23.5980581 L2.00970966,8.59805807 C1.95947688,8.34689418 2.10717226,8.09838701 2.35180039,8.02246793 L16.8518004,3.52246793 C16.9483293,3.49251069 17.0516707,3.49251069 17.1481996,3.52246793 Z" id="Line"></path>
                <path d="M3.27756814,9.07735027 L3.27756814,24.9226497 L17,32.8452995 L30.7224319,24.9226497 L30.7224319,9.07735027 L17,1.15470054 L3.27756814,9.07735027 Z M17.5,-0.866025404 L32.2224319,7.6339746 C32.5318329,7.81260739 32.7224319,8.14273441 32.7224319,8.5 L32.7224319,25.5 C32.7224319,25.8572656 32.5318329,26.1873926 32.2224319,26.3660254 L17.5,34.8660254 C17.1905989,35.0446582 16.8094011,35.0446582 16.5,34.8660254 L1.77756814,26.3660254 C1.46816706,26.1873926 1.27756814,25.8572656 1.27756814,25.5 L1.27756814,8.5 C1.27756814,8.14273441 1.46816706,7.81260739 1.77756814,7.6339746 L16.5,-0.866025404 C16.8094011,-1.0446582 17.1905989,-1.0446582 17.5,-0.866025404 Z" id="Polygon"></path>
                <path d="M31.7773501,25.0839749 L28.7773501,23.0839749 C28.5475858,22.9307986 28.2371511,22.9928856 28.0839749,23.2226499 C27.9307986,23.4524142 27.9928856,23.7628489 28.2226499,23.9160251 L31.2226499,25.9160251 C31.4524142,26.0692014 31.7628489,26.0071144 31.9160251,25.7773501 C32.0692014,25.5475858 32.0071144,25.2371511 31.7773501,25.0839749 Z" id="Line"></path>
                <path d="M6.60769515,23 L27.3923048,23 L17,5 L6.60769515,23 Z M17.4330127,3.75 L28.691343,23.25 C28.883793,23.5833333 28.6432304,24 28.2583302,24 L5.74166975,24 C5.35676957,24 5.11620696,23.5833333 5.30865705,23.25 L16.5669873,3.75 C16.7594374,3.41666667 17.2405626,3.41666667 17.4330127,3.75 Z" id="Polygon-3"></path>
                <path d="M5.2226499,23.0839749 L2.2226499,25.0839749 C1.99288556,25.2371511 1.93079862,25.5475858 2.08397485,25.7773501 C2.23715108,26.0071144 2.54758575,26.0692014 2.7773501,25.9160251 L5.7773501,23.9160251 C6.00711444,23.7628489 6.06920138,23.4524142 5.91602515,23.2226499 C5.76284892,22.9928856 5.45241425,22.9307986 5.2226499,23.0839749 Z" id="Line"></path>
            </g>
            <g id="7" transform="translate(15.000000, 14.000000)">
                <path d="M0.172851562,2.05664062 L0.172851562,0.52734375 L5.80371094,0.52734375 L5.80371094,1.72265625 C5.33886486,2.17968979 4.86621334,2.83593322 4.38574219,3.69140625 C3.90527104,4.54687928 3.53906376,5.45604987 3.28710938,6.41894531 C3.03515499,7.38184075 2.91113279,8.24218371 2.91503906,9 L1.32714844,9 C1.35449232,7.81249406 1.59960706,6.60156867 2.0625,5.3671875 C2.52539294,4.13280633 3.14355082,3.02930174 3.91699219,2.05664062 L0.172851562,2.05664062 Z"></path>
            </g>
        </g>
    </g>
</svg>