<?xml version="1.0" encoding="UTF-8"?>
<svg width="36px" height="36px" viewBox="0 0 36 36" version="1.1" xmlns="http://www.w3.org/2000/svg" xmlns:xlink="http://www.w3.org/1999/xlink">
    <!-- Generator: sketchtool 42 (36781) - http://www.bohemiancoding.com/sketch -->
    <title>d20-3</title>
    <desc>Created with sketchtool.</desc>
    <defs></defs>
    <g id="Font" stroke="none" stroke-width="1" fill="none" fill-rule="evenodd">
        <g id="d20-3" fill="#000000">
            <g id="d20-hollow" transform="translate(1.000000, 1.000000)" fill-rule="nonzero">
                <path d="M17.5,4 L17.5,0 C17.5,-0.276142375 17.2761424,-0.5 17,-0.5 C16.7238576,-0.5 16.5,-0.276142375 16.5,0 L16.5,4 C16.5,4.27614237 16.7238576,4.5 17,4.5 C17.2761424,4.5 17.5,4.27614237 17.5,4 Z" id="Line"></path>
                <path d="M3.07868837,8.84393211 L5.95815226,23.2412516 L17,33.3229386 L28.0418477,23.2412516 L30.9213116,8.84393211 L17,4.52352505 L3.07868837,8.84393211 Z M17.1481996,3.52246793 L31.6481996,8.02246793 C31.8928277,8.09838701 32.0405231,8.34689418 31.9902903,8.59805807 L28.9902903,23.5980581 C28.9694113,23.702453 28.9157556,23.7974584 28.8371347,23.8692427 L17.3371347,34.3692427 C17.1461876,34.5435858 16.8538124,34.5435858 16.6628653,34.3692427 L5.16286532,23.8692427 C5.08424439,23.7974584 5.03058865,23.702453 5.00970966,23.5980581 L2.00970966,8.59805807 C1.95947688,8.34689418 2.10717226,8.09838701 2.35180039,8.02246793 L16.8518004,3.52246793 C16.9483293,3.49251069 17.0516707,3.49251069 17.1481996,3.52246793 Z" id="Line"></path>
                <path d="M3.27756814,9.07735027 L3.27756814,24.9226497 L17,32.8452995 L30.7224319,24.9226497 L30.7224319,9.07735027 L17,1.15470054 L3.27756814,9.07735027 Z M17.5,-0.866025404 L32.2224319,7.6339746 C32.5318329,7.81260739 32.7224319,8.14273441 32.7224319,8.5 L32.7224319,25.5 C32.7224319,25.8572656 32.5318329,26.1873926 32.2224319,26.3660254 L17.5,34.8660254 C17.1905989,35.0446582 16.8094011,35.0446582 16.5,34.8660254 L1.77756814,26.3660254 C1.46816706,26.1873926 1.27756814,25.8572656 1.27756814,25.5 L1.27756814,8.5 C1.27756814,8.14273441 1.46816706,7.81260739 1.77756814,7.6339746 L16.5,-0.866025404 C16.8094011,-1.0446582 17.1905989,-1.0446582 17.5,-0.866025404 Z" id="Polygon"></path>
                <path d="M31.7773501,25.0839749 L28.7773501,23.0839749 C28.5475858,22.9307986 28.2371511,22.9928856 28.0839749,23.2226499 C27.9307986,23.4524142 27.9928856,23.7628489 28.2226499,23.9160251 L31.2226499,25.9160251 C31.4524142,26.0692014 31.7628489,26.0071144 31.9160251,25.7773501 C32.0692014,25.5475858 32.0071144,25.2371511 31.7773501,25.0839749 Z" id="Line"></path>
                <path d="M6.60769515,23 L27.3923048,23 L17,5 L6.60769515,23 Z M17.4330127,3.75 L28.691343,23.25 C28.883793,23.5833333 28.6432304,24 28.2583302,24 L5.74166975,24 C5.35676957,24 5.11620696,23.5833333 5.30865705,23.25 L16.5669873,3.75 C16.7594374,3.41666667 17.2405626,3.41666667 17.4330127,3.75 Z" id="Polygon-3"></path>
                <path d="M5.2226499,23.0839749 L2.2226499,25.0839749 C1.99288556,25.2371511 1.93079862,25.5475858 2.08397485,25.7773501 C2.23715108,26.0071144 2.54758575,26.0692014 2.7773501,25.9160251 L5.7773501,23.9160251 C6.00711444,23.7628489 6.06920138,23.4524142 5.91602515,23.2226499 C5.76284892,22.9928856 5.45241425,22.9307986 5.2226499,23.0839749 Z" id="Line"></path>
            </g>
            <g id="3" transform="translate(15.000000, 14.000000)">
                <path d="M0.114257812,6.72070312 L1.70800781,6.52734375 C1.75878932,6.93359578 1.8955067,7.24413955 2.11816406,7.45898438 C2.34082143,7.6738292 2.61034998,7.78125 2.92675781,7.78125 C3.26660326,7.78125 3.55273321,7.65234504 3.78515625,7.39453125 C4.01757929,7.13671746 4.13378906,6.78906469 4.13378906,6.3515625 C4.13378906,5.93749793 4.02246205,5.60937621 3.79980469,5.3671875 C3.57714732,5.12499879 3.30566566,5.00390625 2.98535156,5.00390625 C2.77441301,5.00390625 2.5224624,5.04492146 2.22949219,5.12695312 L2.41113281,3.78515625 C2.85644754,3.79687506 3.19628789,3.70019634 3.43066406,3.49511719 C3.66504023,3.29003804 3.78222656,3.01757982 3.78222656,2.67773438 C3.78222656,2.38867043 3.69628992,2.15820398 3.52441406,1.98632812 C3.3525382,1.81445227 3.12402486,1.72851562 2.83886719,1.72851562 C2.55761578,1.72851562 2.31738381,1.8261709 2.11816406,2.02148438 C1.91894432,2.21679785 1.79785178,2.50195125 1.75488281,2.87695312 L0.237304688,2.61914062 C0.342773965,2.09960678 0.501952061,1.68457187 0.71484375,1.37402344 C0.927735439,1.06347501 1.22460747,0.819336826 1.60546875,0.641601562 C1.98633003,0.463866299 2.41308357,0.375 2.88574219,0.375 C3.69433998,0.375 4.342771,0.632809922 4.83105469,1.1484375 C5.23340045,1.57031461 5.43457031,2.04687234 5.43457031,2.578125 C5.43457031,3.33203502 5.02246506,3.9335915 4.19824219,4.3828125 C4.69043215,4.48828178 5.0839829,4.72460754 5.37890625,5.09179688 C5.6738296,5.45898621 5.82128906,5.90234115 5.82128906,6.421875 C5.82128906,7.17578502 5.54590119,7.81835672 4.99511719,8.34960938 C4.44433318,8.88086203 3.75879316,9.14648438 2.93847656,9.14648438 C2.16112893,9.14648438 1.51660412,8.9228538 1.00488281,8.47558594 C0.493161504,8.02831808 0.196289473,7.44336299 0.114257812,6.72070312 Z"></path>
            </g>
        </g>
    </g>
</svg>