<?xml version="1.0" encoding="UTF-8"?>
<svg width="36px" height="36px" viewBox="0 0 36 36" version="1.1" xmlns="http://www.w3.org/2000/svg" xmlns:xlink="http://www.w3.org/1999/xlink">
    <!-- Generator: sketchtool 42 (36781) - http://www.bohemiancoding.com/sketch -->
    <title>d20-15</title>
    <desc>Created with sketchtool.</desc>
    <defs></defs>
    <g id="Font" stroke="none" stroke-width="1" fill="none" fill-rule="evenodd">
        <g id="d20-15" fill="#000000">
            <g id="d20-hollow" transform="translate(1.000000, 1.000000)" fill-rule="nonzero">
                <path d="M17.5,4 L17.5,0 C17.5,-0.276142375 17.2761424,-0.5 17,-0.5 C16.7238576,-0.5 16.5,-0.276142375 16.5,0 L16.5,4 C16.5,4.27614237 16.7238576,4.5 17,4.5 C17.2761424,4.5 17.5,4.27614237 17.5,4 Z" id="Line"></path>
                <path d="M3.07868837,8.84393211 L5.95815226,23.2412516 L17,33.3229386 L28.0418477,23.2412516 L30.9213116,8.84393211 L17,4.52352505 L3.07868837,8.84393211 Z M17.1481996,3.52246793 L31.6481996,8.02246793 C31.8928277,8.09838701 32.0405231,8.34689418 31.9902903,8.59805807 L28.9902903,23.5980581 C28.9694113,23.702453 28.9157556,23.7974584 28.8371347,23.8692427 L17.3371347,34.3692427 C17.1461876,34.5435858 16.8538124,34.5435858 16.6628653,34.3692427 L5.16286532,23.8692427 C5.08424439,23.7974584 5.03058865,23.702453 5.00970966,23.5980581 L2.00970966,8.59805807 C1.95947688,8.34689418 2.10717226,8.09838701 2.35180039,8.02246793 L16.8518004,3.52246793 C16.9483293,3.49251069 17.0516707,3.49251069 17.1481996,3.52246793 Z" id="Line"></path>
                <path d="M3.27756814,9.07735027 L3.27756814,24.9226497 L17,32.8452995 L30.7224319,24.9226497 L30.7224319,9.07735027 L17,1.15470054 L3.27756814,9.07735027 Z M17.5,-0.866025404 L32.2224319,7.6339746 C32.5318329,7.81260739 32.7224319,8.14273441 32.7224319,8.5 L32.7224319,25.5 C32.7224319,25.8572656 32.5318329,26.1873926 32.2224319,26.3660254 L17.5,34.8660254 C17.1905989,35.0446582 16.8094011,35.0446582 16.5,34.8660254 L1.77756814,26.3660254 C1.46816706,26.1873926 1.27756814,25.8572656 1.27756814,25.5 L1.27756814,8.5 C1.27756814,8.14273441 1.46816706,7.81260739 1.77756814,7.6339746 L16.5,-0.866025404 C16.8094011,-1.0446582 17.1905989,-1.0446582 17.5,-0.866025404 Z" id="Polygon"></path>
                <path d="M31.7773501,25.0839749 L28.7773501,23.0839749 C28.5475858,22.9307986 28.2371511,22.9928856 28.0839749,23.2226499 C27.9307986,23.4524142 27.9928856,23.7628489 28.2226499,23.9160251 L31.2226499,25.9160251 C31.4524142,26.0692014 31.7628489,26.0071144 31.9160251,25.7773501 C32.0692014,25.5475858 32.0071144,25.2371511 31.7773501,25.0839749 Z" id="Line"></path>
                <path d="M6.60769515,23 L27.3923048,23 L17,5 L6.60769515,23 Z M17.4330127,3.75 L28.691343,23.25 C28.883793,23.5833333 28.6432304,24 28.2583302,24 L5.74166975,24 C5.35676957,24 5.11620696,23.5833333 5.30865705,23.25 L16.5669873,3.75 C16.7594374,3.41666667 17.2405626,3.41666667 17.4330127,3.75 Z" id="Polygon-3"></path>
                <path d="M5.2226499,23.0839749 L2.2226499,25.0839749 C1.99288556,25.2371511 1.93079862,25.5475858 2.08397485,25.7773501 C2.23715108,26.0071144 2.54758575,26.0692014 2.7773501,25.9160251 L5.7773501,23.9160251 C6.00711444,23.7628489 6.06920138,23.4524142 5.91602515,23.2226499 C5.76284892,22.9928856 5.45241425,22.9307986 5.2226499,23.0839749 Z" id="Line"></path>
            </g>
            <g id="1" transform="translate(12.000000, 14.000000)">
                <path d="M4.38574219,9 L2.73925781,9 L2.73925781,2.79492188 C2.1376923,3.35742469 1.42871502,3.77343615 0.612304688,4.04296875 L0.612304688,2.54882812 C1.04199434,2.40820242 1.50878654,2.14160353 2.01269531,1.74902344 C2.51660408,1.35644335 2.86230375,0.898440117 3.04980469,0.375 L4.38574219,0.375 L4.38574219,9 Z"></path>
            </g>
            <g id="5" transform="translate(17.000000, 14.000000)">
                <path d="M0.196289062,6.79101562 L1.83691406,6.62109375 C1.8837893,6.99218936 2.02245979,7.28613173 2.25292969,7.50292969 C2.48339959,7.71972765 2.74902193,7.828125 3.04980469,7.828125 C3.39355641,7.828125 3.68456912,7.68847796 3.92285156,7.40917969 C4.161134,7.12988142 4.28027344,6.70898719 4.28027344,6.14648438 C4.28027344,5.61913799 4.16211056,5.22363413 3.92578125,4.95996094 C3.68945194,4.69628774 3.38183783,4.56445312 3.00292969,4.56445312 C2.53027107,4.56445312 2.10644719,4.77343541 1.73144531,5.19140625 L0.395507812,4.99804688 L1.23925781,0.52734375 L5.59277344,0.52734375 L5.59277344,2.06835938 L2.48730469,2.06835938 L2.22949219,3.52734375 C2.59668152,3.34374908 2.97167777,3.25195312 3.35449219,3.25195312 C4.08496459,3.25195312 4.70409902,3.51757547 5.21191406,4.04882812 C5.7197291,4.58008078 5.97363281,5.26952701 5.97363281,6.1171875 C5.97363281,6.82422229 5.76855674,7.45507535 5.35839844,8.00976562 C4.79980189,8.76758191 4.02441902,9.14648438 3.03222656,9.14648438 C2.23925385,9.14648438 1.59277594,8.93359588 1.09277344,8.5078125 C0.592770938,8.08202912 0.293945801,7.50976922 0.196289062,6.79101562 Z"></path>
            </g>
        </g>
    </g>
</svg>