<?xml version="1.0" encoding="UTF-8"?>
<svg width="36px" height="36px" viewBox="0 0 36 36" version="1.1" xmlns="http://www.w3.org/2000/svg" xmlns:xlink="http://www.w3.org/1999/xlink">
    <!-- Generator: sketchtool 42 (36781) - http://www.bohemiancoding.com/sketch -->
    <title>d20-16</title>
    <desc>Created with sketchtool.</desc>
    <defs></defs>
    <g id="Font" stroke="none" stroke-width="1" fill="none" fill-rule="evenodd">
        <g id="d20-16" fill="#000000">
            <g id="d20-hollow" transform="translate(1.000000, 1.000000)" fill-rule="nonzero">
                <path d="M17.5,4 L17.5,0 C17.5,-0.276142375 17.2761424,-0.5 17,-0.5 C16.7238576,-0.5 16.5,-0.276142375 16.5,0 L16.5,4 C16.5,4.27614237 16.7238576,4.5 17,4.5 C17.2761424,4.5 17.5,4.27614237 17.5,4 Z" id="Line"></path>
                <path d="M3.07868837,8.84393211 L5.95815226,23.2412516 L17,33.3229386 L28.0418477,23.2412516 L30.9213116,8.84393211 L17,4.52352505 L3.07868837,8.84393211 Z M17.1481996,3.52246793 L31.6481996,8.02246793 C31.8928277,8.09838701 32.0405231,8.34689418 31.9902903,8.59805807 L28.9902903,23.5980581 C28.9694113,23.702453 28.9157556,23.7974584 28.8371347,23.8692427 L17.3371347,34.3692427 C17.1461876,34.5435858 16.8538124,34.5435858 16.6628653,34.3692427 L5.16286532,23.8692427 C5.08424439,23.7974584 5.03058865,23.702453 5.00970966,23.5980581 L2.00970966,8.59805807 C1.95947688,8.34689418 2.10717226,8.09838701 2.35180039,8.02246793 L16.8518004,3.52246793 C16.9483293,3.49251069 17.0516707,3.49251069 17.1481996,3.52246793 Z" id="Line"></path>
                <path d="M3.27756814,9.07735027 L3.27756814,24.9226497 L17,32.8452995 L30.7224319,24.9226497 L30.7224319,9.07735027 L17,1.15470054 L3.27756814,9.07735027 Z M17.5,-0.866025404 L32.2224319,7.6339746 C32.5318329,7.81260739 32.7224319,8.14273441 32.7224319,8.5 L32.7224319,25.5 C32.7224319,25.8572656 32.5318329,26.1873926 32.2224319,26.3660254 L17.5,34.8660254 C17.1905989,35.0446582 16.8094011,35.0446582 16.5,34.8660254 L1.77756814,26.3660254 C1.46816706,26.1873926 1.27756814,25.8572656 1.27756814,25.5 L1.27756814,8.5 C1.27756814,8.14273441 1.46816706,7.81260739 1.77756814,7.6339746 L16.5,-0.866025404 C16.8094011,-1.0446582 17.1905989,-1.0446582 17.5,-0.866025404 Z" id="Polygon"></path>
                <path d="M31.7773501,25.0839749 L28.7773501,23.0839749 C28.5475858,22.9307986 28.2371511,22.9928856 28.0839749,23.2226499 C27.9307986,23.4524142 27.9928856,23.7628489 28.2226499,23.9160251 L31.2226499,25.9160251 C31.4524142,26.0692014 31.7628489,26.0071144 31.9160251,25.7773501 C32.0692014,25.5475858 32.0071144,25.2371511 31.7773501,25.0839749 Z" id="Line"></path>
                <path d="M6.60769515,23 L27.3923048,23 L17,5 L6.60769515,23 Z M17.4330127,3.75 L28.691343,23.25 C28.883793,23.5833333 28.6432304,24 28.2583302,24 L5.74166975,24 C5.35676957,24 5.11620696,23.5833333 5.30865705,23.25 L16.5669873,3.75 C16.7594374,3.41666667 17.2405626,3.41666667 17.4330127,3.75 Z" id="Polygon-3"></path>
                <path d="M5.2226499,23.0839749 L2.2226499,25.0839749 C1.99288556,25.2371511 1.93079862,25.5475858 2.08397485,25.7773501 C2.23715108,26.0071144 2.54758575,26.0692014 2.7773501,25.9160251 L5.7773501,23.9160251 C6.00711444,23.7628489 6.06920138,23.4524142 5.91602515,23.2226499 C5.76284892,22.9928856 5.45241425,22.9307986 5.2226499,23.0839749 Z" id="Line"></path>
            </g>
            <g id="1" transform="translate(12.000000, 14.000000)">
                <path d="M4.38574219,9 L2.73925781,9 L2.73925781,2.79492188 C2.1376923,3.35742469 1.42871502,3.77343615 0.612304688,4.04296875 L0.612304688,2.54882812 C1.04199434,2.40820242 1.50878654,2.14160353 2.01269531,1.74902344 C2.51660408,1.35644335 2.86230375,0.898440117 3.04980469,0.375 L4.38574219,0.375 L4.38574219,9 Z"></path>
            </g>
            <g id="6" transform="translate(17.000000, 14.000000)">
                <path d="M5.75097656,2.51367188 L4.15722656,2.68945312 C4.11816387,2.36132648 4.01660238,2.11914141 3.85253906,1.96289062 C3.68847574,1.80663984 3.47558725,1.72851562 3.21386719,1.72851562 C2.8662092,1.72851562 2.57226683,1.88476406 2.33203125,2.19726562 C2.09179567,2.50976719 1.94043,3.16015131 1.87792969,4.1484375 C2.28808799,3.66406008 2.79784852,3.421875 3.40722656,3.421875 C4.09473,3.421875 4.6835913,3.68359113 5.17382812,4.20703125 C5.66406495,4.73047137 5.90917969,5.40624586 5.90917969,6.234375 C5.90917969,7.11328564 5.65136977,7.81835672 5.13574219,8.34960938 C4.62011461,8.88086203 3.95801186,9.14648438 3.14941406,9.14648438 C2.28222223,9.14648438 1.56933873,8.80957368 1.01074219,8.13574219 C0.452145645,7.46191069 0.172851562,6.35742955 0.172851562,4.82226562 C0.172851562,3.248039 0.463864277,2.11328473 1.04589844,1.41796875 C1.6279326,0.722652773 2.38378441,0.375 3.31347656,0.375 C3.96582357,0.375 4.50585724,0.557615361 4.93359375,0.922851562 C5.36133026,1.28808776 5.63378848,1.8183559 5.75097656,2.51367188 Z M2.01855469,6.10546875 C2.01855469,6.64062768 2.14160033,7.05370948 2.38769531,7.34472656 C2.63379029,7.63574364 2.91503748,7.78125 3.23144531,7.78125 C3.53613434,7.78125 3.79003805,7.66211057 3.99316406,7.42382812 C4.19629008,7.18554568 4.29785156,6.79492459 4.29785156,6.25195312 C4.29785156,5.69335658 4.18847766,5.28418099 3.96972656,5.02441406 C3.75097547,4.76464714 3.4775407,4.63476562 3.14941406,4.63476562 C2.83300623,4.63476562 2.56543078,4.75878782 2.34667969,5.00683594 C2.12792859,5.25488405 2.01855469,5.62109133 2.01855469,6.10546875 Z"></path>
            </g>
        </g>
    </g>
</svg>