<?xml version="1.0" encoding="UTF-8"?>
<svg width="36px" height="36px" viewBox="0 0 36 36" version="1.1" xmlns="http://www.w3.org/2000/svg" xmlns:xlink="http://www.w3.org/1999/xlink">
    <!-- Generator: sketchtool 42 (36781) - http://www.bohemiancoding.com/sketch -->
    <title>d20-18</title>
    <desc>Created with sketchtool.</desc>
    <defs></defs>
    <g id="Font" stroke="none" stroke-width="1" fill="none" fill-rule="evenodd">
        <g id="d20-18" fill="#000000">
            <g id="d20-hollow" transform="translate(1.000000, 1.000000)" fill-rule="nonzero">
                <path d="M17.5,4 L17.5,0 C17.5,-0.276142375 17.2761424,-0.5 17,-0.5 C16.7238576,-0.5 16.5,-0.276142375 16.5,0 L16.5,4 C16.5,4.27614237 16.7238576,4.5 17,4.5 C17.2761424,4.5 17.5,4.27614237 17.5,4 Z" id="Line"></path>
                <path d="M3.07868837,8.84393211 L5.95815226,23.2412516 L17,33.3229386 L28.0418477,23.2412516 L30.9213116,8.84393211 L17,4.52352505 L3.07868837,8.84393211 Z M17.1481996,3.52246793 L31.6481996,8.02246793 C31.8928277,8.09838701 32.0405231,8.34689418 31.9902903,8.59805807 L28.9902903,23.5980581 C28.9694113,23.702453 28.9157556,23.7974584 28.8371347,23.8692427 L17.3371347,34.3692427 C17.1461876,34.5435858 16.8538124,34.5435858 16.6628653,34.3692427 L5.16286532,23.8692427 C5.08424439,23.7974584 5.03058865,23.702453 5.00970966,23.5980581 L2.00970966,8.59805807 C1.95947688,8.34689418 2.10717226,8.09838701 2.35180039,8.02246793 L16.8518004,3.52246793 C16.9483293,3.49251069 17.0516707,3.49251069 17.1481996,3.52246793 Z" id="Line"></path>
                <path d="M3.27756814,9.07735027 L3.27756814,24.9226497 L17,32.8452995 L30.7224319,24.9226497 L30.7224319,9.07735027 L17,1.15470054 L3.27756814,9.07735027 Z M17.5,-0.866025404 L32.2224319,7.6339746 C32.5318329,7.81260739 32.7224319,8.14273441 32.7224319,8.5 L32.7224319,25.5 C32.7224319,25.8572656 32.5318329,26.1873926 32.2224319,26.3660254 L17.5,34.8660254 C17.1905989,35.0446582 16.8094011,35.0446582 16.5,34.8660254 L1.77756814,26.3660254 C1.46816706,26.1873926 1.27756814,25.8572656 1.27756814,25.5 L1.27756814,8.5 C1.27756814,8.14273441 1.46816706,7.81260739 1.77756814,7.6339746 L16.5,-0.866025404 C16.8094011,-1.0446582 17.1905989,-1.0446582 17.5,-0.866025404 Z" id="Polygon"></path>
                <path d="M31.7773501,25.0839749 L28.7773501,23.0839749 C28.5475858,22.9307986 28.2371511,22.9928856 28.0839749,23.2226499 C27.9307986,23.4524142 27.9928856,23.7628489 28.2226499,23.9160251 L31.2226499,25.9160251 C31.4524142,26.0692014 31.7628489,26.0071144 31.9160251,25.7773501 C32.0692014,25.5475858 32.0071144,25.2371511 31.7773501,25.0839749 Z" id="Line"></path>
                <path d="M6.60769515,23 L27.3923048,23 L17,5 L6.60769515,23 Z M17.4330127,3.75 L28.691343,23.25 C28.883793,23.5833333 28.6432304,24 28.2583302,24 L5.74166975,24 C5.35676957,24 5.11620696,23.5833333 5.30865705,23.25 L16.5669873,3.75 C16.7594374,3.41666667 17.2405626,3.41666667 17.4330127,3.75 Z" id="Polygon-3"></path>
                <path d="M5.2226499,23.0839749 L2.2226499,25.0839749 C1.99288556,25.2371511 1.93079862,25.5475858 2.08397485,25.7773501 C2.23715108,26.0071144 2.54758575,26.0692014 2.7773501,25.9160251 L5.7773501,23.9160251 C6.00711444,23.7628489 6.06920138,23.4524142 5.91602515,23.2226499 C5.76284892,22.9928856 5.45241425,22.9307986 5.2226499,23.0839749 Z" id="Line"></path>
            </g>
            <g id="8" transform="translate(17.000000, 14.000000)">
                <path d="M1.58496094,4.36523438 C1.15917756,4.18554598 0.849610342,3.93847813 0.65625,3.62402344 C0.462889658,3.30956874 0.366210938,2.96484562 0.366210938,2.58984375 C0.366210938,1.94921555 0.589841514,1.41992396 1.03710938,1.00195312 C1.48437724,0.583982285 2.12011307,0.375 2.94433594,0.375 C3.76074627,0.375 4.39452899,0.583982285 4.84570312,1.00195312 C5.29687726,1.41992396 5.52246094,1.94921555 5.52246094,2.58984375 C5.52246094,2.98828324 5.41894635,3.34277188 5.21191406,3.65332031 C5.00488178,3.96386874 4.71386906,4.20117105 4.33886719,4.36523438 C4.81543207,4.55664158 5.17773313,4.83593566 5.42578125,5.203125 C5.67382937,5.57031434 5.79785156,5.99413822 5.79785156,6.47460938 C5.79785156,7.26758209 5.5449244,7.91210689 5.0390625,8.40820312 C4.5332006,8.90429936 3.86035576,9.15234375 3.02050781,9.15234375 C2.23925391,9.15234375 1.58886979,8.94726768 1.06933594,8.53710938 C0.456051621,8.05273195 0.149414062,7.38867609 0.149414062,6.54492188 C0.149414062,6.0800758 0.264647285,5.65332226 0.495117188,5.26464844 C0.72558709,4.87597462 1.08886471,4.57617293 1.58496094,4.36523438 Z M1.92480469,2.70703125 C1.92480469,3.03515789 2.0175772,3.29101471 2.203125,3.47460938 C2.3886728,3.65820404 2.63574064,3.75 2.94433594,3.75 C3.2568375,3.75 3.506835,3.65722749 3.69433594,3.47167969 C3.88183688,3.28613188 3.97558594,3.02929852 3.97558594,2.70117188 C3.97558594,2.39257658 3.88281343,2.14550874 3.69726562,1.95996094 C3.51171782,1.77441313 3.26660309,1.68164062 2.96191406,1.68164062 C2.64550623,1.68164062 2.39355563,1.77538969 2.20605469,1.96289062 C2.01855375,2.15039156 1.92480469,2.39843596 1.92480469,2.70703125 Z M1.77246094,6.38671875 C1.77246094,6.83984602 1.88867071,7.19335811 2.12109375,7.44726562 C2.35351679,7.70117314 2.64355295,7.828125 2.99121094,7.828125 C3.33105639,7.828125 3.61230357,7.70605591 3.83496094,7.46191406 C4.0576183,7.21777222 4.16894531,6.86523668 4.16894531,6.40429688 C4.16894531,6.00195111 4.0556652,5.67871216 3.82910156,5.43457031 C3.60253793,5.19042847 3.31543143,5.06835938 2.96777344,5.06835938 C2.56542768,5.06835938 2.26562599,5.20702986 2.06835938,5.484375 C1.87109276,5.76172014 1.77246094,6.06249838 1.77246094,6.38671875 Z"></path>
            </g>
            <g id="1" transform="translate(12.000000, 14.000000)">
                <path d="M4.38574219,9 L2.73925781,9 L2.73925781,2.79492188 C2.1376923,3.35742469 1.42871502,3.77343615 0.612304688,4.04296875 L0.612304688,2.54882812 C1.04199434,2.40820242 1.50878654,2.14160353 2.01269531,1.74902344 C2.51660408,1.35644335 2.86230375,0.898440117 3.04980469,0.375 L4.38574219,0.375 L4.38574219,9 Z"></path>
            </g>
        </g>
    </g>
</svg>