<svg width="36" height="36" viewBox="0 0 36 36" xmlns="http://www.w3.org/2000/svg"><title>d20-15</title><g fill-rule="evenodd"><path d="M18.5 4.632l8.196 2.543L18.5 2.443v2.189zm-1-2.189L9.304 7.175 17.5 4.632V2.443zM4.808 26.23l7.735 4.466-6.091-5.562-1.644 1.096zm-.53-.848l1.666-1.111-1.666-8.333v9.444zm27.444 0v-9.444l-1.666 8.333 1.666 1.11zm-.53.848l-1.644-1.096-6.091 5.562 7.735-4.466zM16.928 5.856L4.078 9.844l2.714 13.568L16.928 5.856zm2.144 0l10.136 17.556L31.92 9.844 19.07 5.856zM28.21 25H7.789L18 34.323 28.21 25zM18.5.134l14.722 8.5a1 1 0 0 1 .5.866v17a1 1 0 0 1-.5.866l-14.722 8.5a1 1 0 0 1-1 0l-14.722-8.5a1 1 0 0 1-.5-.866v-17a1 1 0 0 1 .5-.866L17.5.134a1 1 0 0 1 1 0zM7.608 24h20.784L18 6 7.608 24z" fill-rule="nonzero"/><path d="M16.386 23h-1.647v-6.205a5.676 5.676 0 0 1-2.127 1.248v-1.494c.43-.14.897-.407 1.4-.8.505-.393.85-.85 1.038-1.374h1.336V23zm.81-2.209l1.64-.17c.048.371.186.665.417.882a1.129 1.129 0 0 0 1.67-.094c.238-.28.357-.7.357-1.263 0-.527-.118-.922-.354-1.186-.237-.264-.544-.396-.923-.396-.473 0-.897.21-1.272.627l-1.335-.193.843-4.47h4.354v1.54h-3.106l-.258 1.46a2.49 2.49 0 0 1 1.125-.276c.731 0 1.35.266 1.858.797s.762 1.22.762 2.068c0 .707-.205 1.338-.616 1.893-.558.758-1.334 1.136-2.326 1.136-.793 0-1.44-.212-1.94-.638-.5-.426-.798-.998-.896-1.717z"/></g></svg>