<?xml version="1.0" encoding="UTF-8"?>
<svg width="36px" height="36px" viewBox="0 0 36 36" version="1.1" xmlns="http://www.w3.org/2000/svg" xmlns:xlink="http://www.w3.org/1999/xlink">
    <!-- Generator: sketchtool 42 (36781) - http://www.bohemiancoding.com/sketch -->
    <title>d4-2</title>
    <desc>Created with sketchtool.</desc>
    <defs></defs>
    <g id="Font" stroke="none" stroke-width="1" fill="none" fill-rule="evenodd">
        <g id="d4-2" fill="#000000">
            <g id="d4-hollow" transform="translate(1.000000, 2.000000)" fill-rule="nonzero">
                <path d="M4.19999981,24.2999992 L29.6999998,24.2999992 L16.9499998,2.5 L4.19999981,24.2999992 Z M17.4330127,-0.25 L32.1554446,25.25 C32.3478947,25.5833333 32.107332,26 31.7224319,26 L2.27756814,26 C1.89266796,26 1.65210534,25.5833333 1.84455543,25.25 L16.5669873,-0.25 C16.7594374,-0.583333333 17.2405626,-0.583333333 17.4330127,-0.25 Z" id="Polygon-4"></path>
            </g>
            <g id="2" transform="translate(14.000000, 14.000000)">
                <path d="M6.73339844,7.47070312 L6.73339844,9 L0.961914062,9 C1.02441438,8.42187211 1.2119125,7.87402603 1.52441406,7.35644531 C1.83691563,6.8388646 2.45409695,6.15234803 3.37597656,5.296875 C4.11816777,4.60546529 4.57324135,4.13671998 4.74121094,3.890625 C4.96777457,3.55077955 5.08105469,3.21484541 5.08105469,2.8828125 C5.08105469,2.51562316 4.98242286,2.23339942 4.78515625,2.03613281 C4.58788964,1.8388662 4.31543143,1.74023438 3.96777344,1.74023438 C3.62402172,1.74023438 3.35058695,1.84374896 3.14746094,2.05078125 C2.94433492,2.25781354 2.82714859,2.6015601 2.79589844,3.08203125 L1.15527344,2.91796875 C1.25293018,2.01171422 1.55956773,1.3613301 2.07519531,0.966796875 C2.59082289,0.572263652 3.2353477,0.375 4.00878906,0.375 C4.85644955,0.375 5.52245852,0.60351334 6.00683594,1.06054688 C6.49121336,1.51758041 6.73339844,2.0859341 6.73339844,2.765625 C6.73339844,3.15234568 6.66406319,3.52050606 6.52539062,3.87011719 C6.38671806,4.21972831 6.16699369,4.58593559 5.86621094,4.96875 C5.66699119,5.22265752 5.30761979,5.58788824 4.78808594,6.06445312 C4.26855209,6.54101801 3.93945382,6.85742109 3.80078125,7.01367188 C3.66210868,7.16992266 3.54980512,7.32226488 3.46386719,7.47070312 L6.73339844,7.47070312 Z"></path>
            </g>
        </g>
    </g>
</svg>