<svg width="36" height="36" viewBox="0 0 36 36" xmlns="http://www.w3.org/2000/svg"><title>d6-6</title><g fill-rule="evenodd"><path d="M7 29h22V7H7v22zM5 5h26v26H5V5z" fill-rule="nonzero"/><path d="M20.751 16.514l-1.594.175c-.039-.328-.14-.57-.304-.726-.165-.156-.377-.234-.64-.234-.347 0-.64.156-.881.468-.24.313-.392.963-.454 1.951.41-.484.92-.726 1.53-.726.687 0 1.276.262 1.766.785s.735 1.2.735 2.027c0 .88-.258 1.584-.773 2.116-.516.53-1.178.796-1.987.796-.867 0-1.58-.336-2.138-1.01-.559-.674-.838-1.779-.838-3.314 0-1.574.29-2.709.873-3.404.582-.695 1.338-1.043 2.267-1.043.653 0 1.193.183 1.62.548.428.365.7.895.818 1.59zm-3.732 3.591c0 .536.123.949.369 1.24.246.29.527.436.843.436a.96.96 0 0 0 .762-.357c.203-.238.305-.63.305-1.172 0-.559-.11-.968-.328-1.228a1.03 1.03 0 0 0-.82-.39 1.03 1.03 0 0 0-.803.373c-.22.248-.328.614-.328 1.098z"/></g></svg>