<?xml version="1.0" encoding="UTF-8"?>
<svg width="36px" height="36px" viewBox="0 0 36 36" version="1.1" xmlns="http://www.w3.org/2000/svg" xmlns:xlink="http://www.w3.org/1999/xlink">
    <!-- Generator: sketchtool 42 (36781) - http://www.bohemiancoding.com/sketch -->
    <title>d8-3</title>
    <desc>Created with sketchtool.</desc>
    <defs></defs>
    <g id="Font" stroke="none" stroke-width="1" fill="none" fill-rule="evenodd">
        <g id="d8-3" fill="#000000">
            <g id="d8-hollow" transform="translate(3.000000, 1.000000)" fill-rule="nonzero">
                <path d="M1,26.7 C0.614658579,26.7 0.374151644,26.2824734 0.567484405,25.949141 L15.0674844,0.949141003 C15.2601534,0.616953063 15.7398466,0.616953063 15.9325156,0.949141003 L30.4325156,25.949141 C30.6258484,26.2824734 30.3853414,26.7 30,26.7 L1,26.7 Z M29.1319862,25.7 L15.5,2.19657564 L1.86801384,25.7 L29.1319862,25.7 Z" id="Line"></path>
                <path d="M2,10.1036297 L2,25.692087 L15.5,33.4863156 L29,25.692087 L29,10.1036297 L15.5,2.30940108 L2,10.1036297 Z M15.5,-3.55271368e-15 L31,8.94892917 L31,26.8467875 L15.5,35.7957167 L-6.80788759e-13,26.8467875 L-6.90558721e-13,8.94892917 L15.5,-3.55271368e-15 Z" id="Polygon-2"></path>
            </g>
            <g id="3" transform="translate(15.000000, 14.000000)">
                <path d="M0.114257812,6.72070312 L1.70800781,6.52734375 C1.75878932,6.93359578 1.8955067,7.24413955 2.11816406,7.45898438 C2.34082143,7.6738292 2.61034998,7.78125 2.92675781,7.78125 C3.26660326,7.78125 3.55273321,7.65234504 3.78515625,7.39453125 C4.01757929,7.13671746 4.13378906,6.78906469 4.13378906,6.3515625 C4.13378906,5.93749793 4.02246205,5.60937621 3.79980469,5.3671875 C3.57714732,5.12499879 3.30566566,5.00390625 2.98535156,5.00390625 C2.77441301,5.00390625 2.5224624,5.04492146 2.22949219,5.12695312 L2.41113281,3.78515625 C2.85644754,3.79687506 3.19628789,3.70019634 3.43066406,3.49511719 C3.66504023,3.29003804 3.78222656,3.01757982 3.78222656,2.67773438 C3.78222656,2.38867043 3.69628992,2.15820398 3.52441406,1.98632812 C3.3525382,1.81445227 3.12402486,1.72851562 2.83886719,1.72851562 C2.55761578,1.72851562 2.31738381,1.8261709 2.11816406,2.02148438 C1.91894432,2.21679785 1.79785178,2.50195125 1.75488281,2.87695312 L0.237304688,2.61914062 C0.342773965,2.09960678 0.501952061,1.68457187 0.71484375,1.37402344 C0.927735439,1.06347501 1.22460747,0.819336826 1.60546875,0.641601562 C1.98633003,0.463866299 2.41308357,0.375 2.88574219,0.375 C3.69433998,0.375 4.342771,0.632809922 4.83105469,1.1484375 C5.23340045,1.57031461 5.43457031,2.04687234 5.43457031,2.578125 C5.43457031,3.33203502 5.02246506,3.9335915 4.19824219,4.3828125 C4.69043215,4.48828178 5.0839829,4.72460754 5.37890625,5.09179688 C5.6738296,5.45898621 5.82128906,5.90234115 5.82128906,6.421875 C5.82128906,7.17578502 5.54590119,7.81835672 4.99511719,8.34960938 C4.44433318,8.88086203 3.75879316,9.14648438 2.93847656,9.14648438 C2.16112893,9.14648438 1.51660412,8.9228538 1.00488281,8.47558594 C0.493161504,8.02831808 0.196289473,7.44336299 0.114257812,6.72070312 Z"></path>
            </g>
        </g>
    </g>
</svg>