<?xml version="1.0" encoding="UTF-8"?>
<svg width="36px" height="36px" viewBox="0 0 36 36" version="1.1" xmlns="http://www.w3.org/2000/svg" xmlns:xlink="http://www.w3.org/1999/xlink">
    <!-- Generator: sketchtool 42 (36781) - http://www.bohemiancoding.com/sketch -->
    <title>d8-5</title>
    <desc>Created with sketchtool.</desc>
    <defs></defs>
    <g id="Font" stroke="none" stroke-width="1" fill="none" fill-rule="evenodd">
        <g id="d8-5" fill="#000000">
            <g id="d8-hollow" transform="translate(3.000000, 1.000000)" fill-rule="nonzero">
                <path d="M1,26.7 C0.614658579,26.7 0.374151644,26.2824734 0.567484405,25.949141 L15.0674844,0.949141003 C15.2601534,0.616953063 15.7398466,0.616953063 15.9325156,0.949141003 L30.4325156,25.949141 C30.6258484,26.2824734 30.3853414,26.7 30,26.7 L1,26.7 Z M29.1319862,25.7 L15.5,2.19657564 L1.86801384,25.7 L29.1319862,25.7 Z" id="Line"></path>
                <path d="M2,10.1036297 L2,25.692087 L15.5,33.4863156 L29,25.692087 L29,10.1036297 L15.5,2.30940108 L2,10.1036297 Z M15.5,-3.55271368e-15 L31,8.94892917 L31,26.8467875 L15.5,35.7957167 L-6.80788759e-13,26.8467875 L-6.90558721e-13,8.94892917 L15.5,-3.55271368e-15 Z" id="Polygon-2"></path>
            </g>
            <g id="5" transform="translate(15.000000, 14.000000)">
                <path d="M0.196289062,6.79101562 L1.83691406,6.62109375 C1.8837893,6.99218936 2.02245979,7.28613173 2.25292969,7.50292969 C2.48339959,7.71972765 2.74902193,7.828125 3.04980469,7.828125 C3.39355641,7.828125 3.68456912,7.68847796 3.92285156,7.40917969 C4.161134,7.12988142 4.28027344,6.70898719 4.28027344,6.14648438 C4.28027344,5.61913799 4.16211056,5.22363413 3.92578125,4.95996094 C3.68945194,4.69628774 3.38183783,4.56445312 3.00292969,4.56445312 C2.53027107,4.56445312 2.10644719,4.77343541 1.73144531,5.19140625 L0.395507812,4.99804688 L1.23925781,0.52734375 L5.59277344,0.52734375 L5.59277344,2.06835938 L2.48730469,2.06835938 L2.22949219,3.52734375 C2.59668152,3.34374908 2.97167777,3.25195312 3.35449219,3.25195312 C4.08496459,3.25195312 4.70409902,3.51757547 5.21191406,4.04882812 C5.7197291,4.58008078 5.97363281,5.26952701 5.97363281,6.1171875 C5.97363281,6.82422229 5.76855674,7.45507535 5.35839844,8.00976562 C4.79980189,8.76758191 4.02441902,9.14648438 3.03222656,9.14648438 C2.23925385,9.14648438 1.59277594,8.93359588 1.09277344,8.5078125 C0.592770938,8.08202912 0.293945801,7.50976922 0.196289062,6.79101562 Z"></path>
            </g>
        </g>
    </g>
</svg>