<svg width="36" height="36" viewBox="0 0 36 36" xmlns="http://www.w3.org/2000/svg"><title>d8-5</title><g fill-rule="evenodd"><path d="M16.664 4.37L5 11.104v13.375L16.664 4.37zm3.672 0L32 24.48V11.103L20.336 4.37zm9.918 23.33H6.746L18.5 34.486 30.254 27.7zM18.5 1L34 9.949v17.898l-15.5 8.949L3 27.846V9.95L18.5 1zm13.632 25.7L18.5 3.197 4.868 26.7h27.264z"/><path d="M15.196 20.791l1.64-.17c.048.371.186.665.417.882a1.129 1.129 0 0 0 1.67-.094c.238-.28.357-.7.357-1.263 0-.527-.118-.922-.354-1.186-.237-.264-.544-.396-.923-.396-.473 0-.897.21-1.272.627l-1.335-.193.843-4.47h4.354v1.54h-3.106l-.258 1.46a2.49 2.49 0 0 1 1.125-.276c.731 0 1.35.266 1.858.797s.762 1.22.762 2.068c0 .707-.205 1.338-.616 1.893-.558.758-1.334 1.136-2.326 1.136-.793 0-1.44-.212-1.94-.638-.5-.426-.798-.998-.896-1.717z"/></g></svg>