<svg width="36" height="36" viewBox="0 0 36 36" xmlns="http://www.w3.org/2000/svg"><title>d8-7</title><g fill-rule="evenodd"><path d="M16.664 4.37L5 11.104v13.375L16.664 4.37zm3.672 0L32 24.48V11.103L20.336 4.37zm9.918 23.33H6.746L18.5 34.486 30.254 27.7zM18.5 1L34 9.949v17.898l-15.5 8.949L3 27.846V9.95L18.5 1zm13.632 25.7L18.5 3.197 4.868 26.7h27.264z"/><path d="M15.173 16.057v-1.53h5.63v1.196c-.464.457-.937 1.113-1.417 1.968a11.48 11.48 0 0 0-1.099 2.728c-.252.963-.376 1.823-.372 2.581h-1.588c.027-1.188.273-2.398.736-3.633a12.106 12.106 0 0 1 1.854-3.31h-3.744z"/></g></svg>