<?xml version="1.0" encoding="UTF-8"?>
<svg width="36px" height="36px" viewBox="0 0 36 36" version="1.1" xmlns="http://www.w3.org/2000/svg" xmlns:xlink="http://www.w3.org/1999/xlink">
    <!-- Generator: sketchtool 42 (36781) - http://www.bohemiancoding.com/sketch -->
    <title>d8-7</title>
    <desc>Created with sketchtool.</desc>
    <defs></defs>
    <g id="Font" stroke="none" stroke-width="1" fill="none" fill-rule="evenodd">
        <g id="d8-7" fill="#000000">
            <g id="d8-hollow" transform="translate(3.000000, 1.000000)" fill-rule="nonzero">
                <path d="M1,26.7 C0.614658579,26.7 0.374151644,26.2824734 0.567484405,25.949141 L15.0674844,0.949141003 C15.2601534,0.616953063 15.7398466,0.616953063 15.9325156,0.949141003 L30.4325156,25.949141 C30.6258484,26.2824734 30.3853414,26.7 30,26.7 L1,26.7 Z M29.1319862,25.7 L15.5,2.19657564 L1.86801384,25.7 L29.1319862,25.7 Z" id="Line"></path>
                <path d="M2,10.1036297 L2,25.692087 L15.5,33.4863156 L29,25.692087 L29,10.1036297 L15.5,2.30940108 L2,10.1036297 Z M15.5,-3.55271368e-15 L31,8.94892917 L31,26.8467875 L15.5,35.7957167 L-6.80788759e-13,26.8467875 L-6.90558721e-13,8.94892917 L15.5,-3.55271368e-15 Z" id="Polygon-2"></path>
            </g>
            <g id="7" transform="translate(15.000000, 14.000000)">
                <path d="M0.172851562,2.05664062 L0.172851562,0.52734375 L5.80371094,0.52734375 L5.80371094,1.72265625 C5.33886486,2.17968979 4.86621334,2.83593322 4.38574219,3.69140625 C3.90527104,4.54687928 3.53906376,5.45604987 3.28710938,6.41894531 C3.03515499,7.38184075 2.91113279,8.24218371 2.91503906,9 L1.32714844,9 C1.35449232,7.81249406 1.59960706,6.60156867 2.0625,5.3671875 C2.52539294,4.13280633 3.14355082,3.02930174 3.91699219,2.05664062 L0.172851562,2.05664062 Z"></path>
            </g>
        </g>
    </g>
</svg>