<?xml version="1.0" encoding="UTF-8"?>
<svg width="36px" height="36px" viewBox="0 0 36 36" version="1.1" xmlns="http://www.w3.org/2000/svg" xmlns:xlink="http://www.w3.org/1999/xlink">
    <!-- Generator: sketchtool 42 (36781) - http://www.bohemiancoding.com/sketch -->
    <title>d8-8</title>
    <desc>Created with sketchtool.</desc>
    <defs></defs>
    <g id="Font" stroke="none" stroke-width="1" fill="none" fill-rule="evenodd">
        <g id="d8-8" fill="#000000">
            <g id="d8-hollow" transform="translate(3.000000, 1.000000)" fill-rule="nonzero">
                <path d="M1,26.7 C0.614658579,26.7 0.374151644,26.2824734 0.567484405,25.949141 L15.0674844,0.949141003 C15.2601534,0.616953063 15.7398466,0.616953063 15.9325156,0.949141003 L30.4325156,25.949141 C30.6258484,26.2824734 30.3853414,26.7 30,26.7 L1,26.7 Z M29.1319862,25.7 L15.5,2.19657564 L1.86801384,25.7 L29.1319862,25.7 Z" id="Line"></path>
                <path d="M2,10.1036297 L2,25.692087 L15.5,33.4863156 L29,25.692087 L29,10.1036297 L15.5,2.30940108 L2,10.1036297 Z M15.5,-3.55271368e-15 L31,8.94892917 L31,26.8467875 L15.5,35.7957167 L-6.80788759e-13,26.8467875 L-6.90558721e-13,8.94892917 L15.5,-3.55271368e-15 Z" id="Polygon-2"></path>
            </g>
            <g id="8" transform="translate(15.000000, 14.000000)">
                <path d="M1.58496094,4.36523438 C1.15917756,4.18554598 0.849610342,3.93847813 0.65625,3.62402344 C0.462889658,3.30956874 0.366210938,2.96484562 0.366210938,2.58984375 C0.366210938,1.94921555 0.589841514,1.41992396 1.03710938,1.00195312 C1.48437724,0.583982285 2.12011307,0.375 2.94433594,0.375 C3.76074627,0.375 4.39452899,0.583982285 4.84570312,1.00195312 C5.29687726,1.41992396 5.52246094,1.94921555 5.52246094,2.58984375 C5.52246094,2.98828324 5.41894635,3.34277188 5.21191406,3.65332031 C5.00488178,3.96386874 4.71386906,4.20117105 4.33886719,4.36523438 C4.81543207,4.55664158 5.17773313,4.83593566 5.42578125,5.203125 C5.67382937,5.57031434 5.79785156,5.99413822 5.79785156,6.47460938 C5.79785156,7.26758209 5.5449244,7.91210689 5.0390625,8.40820312 C4.5332006,8.90429936 3.86035576,9.15234375 3.02050781,9.15234375 C2.23925391,9.15234375 1.58886979,8.94726768 1.06933594,8.53710938 C0.456051621,8.05273195 0.149414062,7.38867609 0.149414062,6.54492188 C0.149414062,6.0800758 0.264647285,5.65332226 0.495117188,5.26464844 C0.72558709,4.87597462 1.08886471,4.57617293 1.58496094,4.36523438 Z M1.92480469,2.70703125 C1.92480469,3.03515789 2.0175772,3.29101471 2.203125,3.47460938 C2.3886728,3.65820404 2.63574064,3.75 2.94433594,3.75 C3.2568375,3.75 3.506835,3.65722749 3.69433594,3.47167969 C3.88183688,3.28613188 3.97558594,3.02929852 3.97558594,2.70117188 C3.97558594,2.39257658 3.88281343,2.14550874 3.69726562,1.95996094 C3.51171782,1.77441313 3.26660309,1.68164062 2.96191406,1.68164062 C2.64550623,1.68164062 2.39355563,1.77538969 2.20605469,1.96289062 C2.01855375,2.15039156 1.92480469,2.39843596 1.92480469,2.70703125 Z M1.77246094,6.38671875 C1.77246094,6.83984602 1.88867071,7.19335811 2.12109375,7.44726562 C2.35351679,7.70117314 2.64355295,7.828125 2.99121094,7.828125 C3.33105639,7.828125 3.61230357,7.70605591 3.83496094,7.46191406 C4.0576183,7.21777222 4.16894531,6.86523668 4.16894531,6.40429688 C4.16894531,6.00195111 4.0556652,5.67871216 3.82910156,5.43457031 C3.60253793,5.19042847 3.31543143,5.06835938 2.96777344,5.06835938 C2.56542768,5.06835938 2.26562599,5.20702986 2.06835938,5.484375 C1.87109276,5.76172014 1.77246094,6.06249838 1.77246094,6.38671875 Z"></path>
            </g>
        </g>
    </g>
</svg>