<?xml version="1.0" encoding="UTF-8"?>
<svg width="24px" height="24px" viewBox="0 0 24 24" version="1.1" xmlns="http://www.w3.org/2000/svg" xmlns:xlink="http://www.w3.org/1999/xlink">
    <!-- Generator: sketchtool 42 (36781) - http://www.bohemiancoding.com/sketch -->
    <title>small-d20-15</title>
    <desc>Created with sketchtool.</desc>
    <defs></defs>
    <g id="Font" stroke="none" stroke-width="1" fill="none" fill-rule="evenodd">
        <g id="small-d20-15" fill="#000000">
            <g id="d20-outline" transform="translate(1.000000, 0.000000)">
                <path d="M2,7.15470054 L2,16.8452995 L11,21.6905989 L20,16.8452995 L20,7.15470054 L11,2.30940108 L2,7.15470054 Z M11,0 L22,6 L22,18 L11,24 L7.05086318e-15,18 L0,6 L11,0 Z" id="Polygon-3" fill-rule="nonzero"></path>
                <path d="M6.35649368,16 L6.18202337,16 L11.0065083,21.4834133 L15.8309932,16 L15.6435063,16 C16.1343296,15.4009348 16.5115071,14.7051681 16.7421108,13.9456277 L16.9494964,14.30483 L19.9621518,7.31278939 L12.1567015,6.0034658 L12.3594693,6.35466982 C11.922661,6.25348455 11.4675765,6.19999981 11,6.19999981 C10.5324235,6.19999981 10.077339,6.25348455 9.64053074,6.35466982 L9.83829237,6.01213663 L2.05519469,7.31771068 L5.05922274,14.289728 L5.25788919,13.9456277 C5.48849294,14.7051681 5.8656704,15.4009348 6.35649368,16 Z M10.486485,4.88943416 L10.5020352,4.86250025 L10.5086793,3.40444809 L10.5000115,1.50227848 C10.4987532,1.22613897 10.7215884,1.00126361 10.9977279,1.0000053 C11.0491508,0.99977098 11.098796,1.00730781 11.1455504,1.02151287 C11.3604364,1.07834712 11.518395,1.27458472 11.517335,1.50719978 L11.5086897,3.40444809 L11.5154222,4.88192299 L20.756329,6.43203691 C21.0762487,6.48570178 21.2611633,6.82508546 21.1328019,7.12299808 L17.6704245,15.1587936 L20.8854491,16.6625463 C21.4893257,16.9449954 21.0656519,17.8508103 20.4617754,17.5683611 L17.1471088,16.0180032 L11.4644168,22.4768376 C11.4364251,22.5327091 11.3974209,22.584232 11.3476187,22.6280496 C11.2131527,22.7463571 11.0329954,22.7794359 10.8732138,22.7315093 C10.8001397,22.7124184 10.7302982,22.6764201 10.6697278,22.6231283 C10.6275419,22.5860118 10.5931038,22.5433665 10.566544,22.4972326 L4.87023774,16.0229245 L1.55557114,17.5732824 C0.951694563,17.8557316 0.528020819,16.9499167 1.13189739,16.6674676 L4.34692201,15.1637149 L0.884544649,7.12791938 C0.756183255,6.83000676 0.941097784,6.49062308 1.26101755,6.4369582 L10.486485,4.88943416 Z" id="Combined-Shape" fill-rule="evenodd"></path>
            </g>
            <g id="5" transform="translate(11.000000, 7.000000)">
                <path d="M0.196289062,6.79101562 L1.83691406,6.62109375 C1.8837893,6.99218936 2.02245979,7.28613173 2.25292969,7.50292969 C2.48339959,7.71972765 2.74902193,7.828125 3.04980469,7.828125 C3.39355641,7.828125 3.68456912,7.68847796 3.92285156,7.40917969 C4.161134,7.12988142 4.28027344,6.70898719 4.28027344,6.14648438 C4.28027344,5.61913799 4.16211056,5.22363413 3.92578125,4.95996094 C3.68945194,4.69628774 3.38183783,4.56445312 3.00292969,4.56445312 C2.53027107,4.56445312 2.10644719,4.77343541 1.73144531,5.19140625 L0.395507812,4.99804688 L1.23925781,0.52734375 L5.59277344,0.52734375 L5.59277344,2.06835938 L2.48730469,2.06835938 L2.22949219,3.52734375 C2.59668152,3.34374908 2.97167777,3.25195312 3.35449219,3.25195312 C4.08496459,3.25195312 4.70409902,3.51757547 5.21191406,4.04882812 C5.7197291,4.58008078 5.97363281,5.26952701 5.97363281,6.1171875 C5.97363281,6.82422229 5.76855674,7.45507535 5.35839844,8.00976562 C4.79980189,8.76758191 4.02441902,9.14648438 3.03222656,9.14648438 C2.23925385,9.14648438 1.59277594,8.93359588 1.09277344,8.5078125 C0.592770938,8.08202912 0.293945801,7.50976922 0.196289062,6.79101562 Z"></path>
            </g>
            <g id="1" transform="translate(6.000000, 7.000000)">
                <path d="M4.38574219,9 L2.73925781,9 L2.73925781,2.79492188 C2.1376923,3.35742469 1.42871502,3.77343615 0.612304688,4.04296875 L0.612304688,2.54882812 C1.04199434,2.40820242 1.50878654,2.14160353 2.01269531,1.74902344 C2.51660408,1.35644335 2.86230375,0.898440117 3.04980469,0.375 L4.38574219,0.375 L4.38574219,9 Z"></path>
            </g>
        </g>
    </g>
</svg>