<svg width="24" height="24" viewBox="0 0 24 24" xmlns="http://www.w3.org/2000/svg"><title>small-d8-2</title><g fill-rule="evenodd"><path d="M20.392 15.148V7.155l-6.517-3.763 1.982 3.576a6.485 6.485 0 0 0-1.629-.876l-2.035-3.671L12 2.309l-.19.11-2.028 3.67a6.484 6.484 0 0 0-1.62.865l1.97-3.566-6.524 3.767v8.04l1.908-3.454a6.595 6.595 0 0 0 .13 1.833l-1.864 3.372.253.146 3.663-.019a6.51 6.51 0 0 0 1.497.992l-3.443.018L12 21.691l6.36-3.673-3.496.018a6.512 6.512 0 0 0 1.487-1.007l3.757-.02.13-.075-1.877-3.388a6.527 6.527 0 0 0 .12-1.845l1.911 3.447zM1.608 6L12 0l10.392 6v12L12 24 1.608 18V6z"/><path d="M14.733 14.47V16H8.962c.062-.578.25-1.126.562-1.644.313-.517.93-1.204 1.852-2.06.742-.69 1.197-1.16 1.365-1.405.227-.34.34-.676.34-1.008 0-.367-.099-.65-.296-.847-.197-.197-.47-.296-.817-.296-.344 0-.617.104-.82.31-.204.208-.32.552-.352 1.032l-1.64-.164c.097-.906.404-1.557.92-1.951.515-.395 1.16-.592 1.933-.592.847 0 1.513.229 1.998.686.484.457.726 1.025.726 1.705 0 .386-.069.755-.208 1.104a4.46 4.46 0 0 1-.659 1.099c-.199.254-.558.619-1.078 1.095-.52.477-.849.793-.987.95a2.842 2.842 0 0 0-.337.457h3.27z"/></g></svg>