<?xml version="1.0" encoding="UTF-8"?>
<svg width="24px" height="24px" viewBox="0 0 24 24" version="1.1" xmlns="http://www.w3.org/2000/svg" xmlns:xlink="http://www.w3.org/1999/xlink">
    <!-- Generator: sketchtool 42 (36781) - http://www.bohemiancoding.com/sketch -->
    <title>small-d10-4</title>
    <desc>Created with sketchtool.</desc>
    <defs></defs>
    <g id="Font" stroke="none" stroke-width="1" fill="none" fill-rule="evenodd">
        <g id="small-d10-4" fill="#000000">
            <g id="d10-outline" fill-rule="nonzero">
                <path d="M2.60769515,10.9056373 L2.60769515,16.7929155 L12,21.7395729 L21.3923048,16.7929155 L21.3923048,10.9056373 L12,2.66120828 L2.60769515,10.9056373 Z M12,0 L23.3923048,10 L23.3923048,18 L12,24 L0.607695155,18 L0.607695155,10 L12,0 Z" id="Polygon-6"></path>
                <path d="M6.51814332,15.4427789 L5.76935254,15.14966 L6.15911437,14.378513 C6.05505154,13.9358935 6,13.4743757 6,13 C6,12.8050565 6.00929698,12.6122844 6.02747176,12.4221029 L4.68081954,15.0864656 L1.4915091,16.9213873 C1.25215418,17.0590965 1.16975409,17.3647674 1.30746333,17.6041223 C1.44517257,17.8434773 1.75084347,17.9258774 1.99019839,17.7881681 L5.13875045,15.9766961 L7.41176384,16.8664814 C7.0510673,16.4388923 6.74905428,15.9601853 6.51814332,15.4427789 Z M9.64619134,7.47930216 L12,2.82227211 L14.3538087,7.47930216 C14.9636064,7.73963028 15.5215162,8.09803851 16.0077154,8.53470443 L12.4486487,1.49306116 C12.4251447,1.44520653 12.3939172,1.40089478 12.3556471,1.36219876 C12.2029584,1.21114663 11.9713698,1.16807291 11.7744564,1.26759914 C11.7249183,1.29263721 11.6813455,1.32479445 11.6443529,1.36219876 C11.6109554,1.39518458 11.5787981,1.43875741 11.5537601,1.48829545 L7.99228456,8.53470443 C8.47848382,8.09803851 9.03639356,7.73963028 9.64619134,7.47930216 Z M17.8408856,14.378513 L18.2306475,15.14966 L17.4818567,15.4427789 C17.2509457,15.9601853 16.9489327,16.4388923 16.5882362,16.8664814 L18.8612496,15.9766961 L22.0098016,17.7881681 C22.2491565,17.9258774 22.5548274,17.8434773 22.6925367,17.6041223 C22.8302459,17.3647674 22.7478458,17.0590965 22.5084909,16.9213873 L19.3191805,15.0864656 L17.9725282,12.4221029 C17.990703,12.6122844 18,12.8050565 18,13 C18,13.4743757 17.9449485,13.9358935 17.8408856,14.378513 Z M12.5060249,18.978963 L12.5060249,22.4831449 C12.5060249,22.7592873 12.2821673,22.9831449 12.0060249,22.9831449 C12.0040138,22.9831449 12.0020055,22.9831331 12,22.9831094 C11.9979945,22.9831331 11.9959862,22.9831449 11.9939751,22.9831449 C11.7178327,22.9831449 11.4939751,22.7592873 11.4939751,22.4831449 L11.4939751,18.978963 C11.6608037,18.9928943 11.829572,19 12,19 C12.170428,19 12.3391963,18.9928943 12.5060249,18.978963 Z" id="Combined-Shape"></path>
            </g>
            <g id="4" transform="translate(8.000000, 8.000000)">
                <path d="M4.40136719,9 L4.40136719,7.27148438 L0.885742188,7.27148438 L0.885742188,5.83007812 L4.61230469,0.375 L5.99511719,0.375 L5.99511719,5.82421875 L7.06152344,5.82421875 L7.06152344,7.27148438 L5.99511719,7.27148438 L5.99511719,9 L4.40136719,9 Z M4.40136719,5.82421875 L4.40136719,2.88867188 L2.42675781,5.82421875 L4.40136719,5.82421875 Z"></path>
            </g>
        </g>
    </g>
</svg>