<svg width="24" height="24" viewBox="0 0 24 24" xmlns="http://www.w3.org/2000/svg"><title>small-d20-8</title><g fill-rule="evenodd"><path d="M5.271 5.932l6.215-1.043.016-.026.007-1.459-.004-.828L5.27 5.932zm7.241-3.347l-.003.82.006 1.477 6.193 1.039-6.196-3.336zM21 9.752l-2.33 5.407 2.33 1.09V9.751zm-.504 7.365l-2.349-1.099-3.95 4.49 6.299-3.391zM9.828 20.52L5.87 16.023l-2.353 1.1 6.311 3.398zM3 16.261l2.347-1.097L3 9.717v6.544zM12 0l11 6v12l-11 6-11-6V6l11-6zM7.356 16h-.174l4.825 5.483L16.83 16h-.187a6 6 0 0 0 1.098-2.054l.207.359 3.013-6.992-7.805-1.31.202.352a6.018 6.018 0 0 0-2.718 0l.197-.343-7.783 1.306L6.06 14.29l.199-.344c.23.76.608 1.455 1.098 2.054z" fill-rule="nonzero"/><path d="M10.585 11.365c-.426-.18-.735-.427-.929-.741a1.937 1.937 0 0 1-.29-1.034c0-.64.224-1.17.671-1.588.447-.418 1.083-.627 1.907-.627.817 0 1.45.209 1.902.627.45.418.676.947.676 1.588 0 .398-.103.753-.31 1.063-.207.31-.498.548-.873.712.476.192.839.47 1.087.838.248.367.372.791.372 1.272 0 .793-.253 1.437-.759 1.933s-1.179.744-2.018.744c-.782 0-1.432-.205-1.952-.615-.613-.484-.92-1.148-.92-1.992 0-.465.116-.892.346-1.28.23-.389.594-.689 1.09-.9zm.34-1.658c0 .328.093.584.278.768.186.183.433.275.741.275.313 0 .563-.093.75-.278.188-.186.282-.443.282-.77 0-.31-.093-.556-.279-.742-.185-.186-.43-.278-.735-.278-.316 0-.568.093-.756.28-.187.188-.281.436-.281.745zm-.153 3.68c0 .453.117.806.35 1.06.232.254.522.381.87.381.34 0 .62-.122.843-.366.223-.244.334-.597.334-1.058 0-.402-.113-.725-.34-.97a1.124 1.124 0 0 0-.861-.366c-.403 0-.702.139-.9.416a1.525 1.525 0 0 0-.296.903z"/></g></svg>