<svg width="24" height="24" viewBox="0 0 24 24" xmlns="http://www.w3.org/2000/svg"><title>small-d8-8</title><g fill-rule="evenodd"><path d="M20.392 15.148V7.155l-6.517-3.763 1.982 3.576a6.485 6.485 0 0 0-1.629-.876l-2.035-3.671L12 2.309l-.19.11-2.028 3.67a6.484 6.484 0 0 0-1.62.865l1.97-3.566-6.524 3.767v8.04l1.908-3.454a6.595 6.595 0 0 0 .13 1.833l-1.864 3.372.253.146 3.663-.019a6.51 6.51 0 0 0 1.497.992l-3.443.018L12 21.691l6.36-3.673-3.496.018a6.512 6.512 0 0 0 1.487-1.007l3.757-.02.13-.075-1.877-3.388a6.527 6.527 0 0 0 .12-1.845l1.911 3.447zM1.608 6L12 0l10.392 6v12L12 24 1.608 18V6z"/><path d="M10.585 11.365c-.426-.18-.735-.427-.929-.741a1.937 1.937 0 0 1-.29-1.034c0-.64.224-1.17.671-1.588.447-.418 1.083-.627 1.907-.627.817 0 1.45.209 1.902.627.45.418.676.947.676 1.588 0 .398-.103.753-.31 1.063-.207.31-.498.548-.873.712.476.192.839.47 1.087.838.248.367.372.791.372 1.272 0 .793-.253 1.437-.759 1.933s-1.179.744-2.018.744c-.782 0-1.432-.205-1.952-.615-.613-.484-.92-1.148-.92-1.992 0-.465.116-.892.346-1.28.23-.389.594-.689 1.09-.9zm.34-1.658c0 .328.093.584.278.768.186.183.433.275.741.275.313 0 .563-.093.75-.278.188-.186.282-.443.282-.77 0-.31-.093-.556-.279-.742-.185-.186-.43-.278-.735-.278-.316 0-.568.093-.756.28-.187.188-.281.436-.281.745zm-.153 3.68c0 .453.117.806.35 1.06.232.254.522.381.87.381.34 0 .62-.122.843-.366.223-.244.334-.597.334-1.058 0-.402-.113-.725-.34-.97a1.124 1.124 0 0 0-.861-.366c-.403 0-.702.139-.9.416a1.525 1.525 0 0 0-.296.903z"/></g></svg>