<svg width="24" height="24" viewBox="0 0 24 24" xmlns="http://www.w3.org/2000/svg"><title>small-d20-4</title><g fill-rule="evenodd"><path d="M5.271 5.932l6.215-1.043.016-.026.007-1.459-.004-.828L5.27 5.932zm7.241-3.347l-.003.82.006 1.477 6.193 1.039-6.196-3.336zM21 9.752l-2.33 5.407 2.33 1.09V9.751zm-.504 7.365l-2.349-1.099-3.95 4.49 6.299-3.391zM9.828 20.52L5.87 16.023l-2.353 1.1 6.311 3.398zM3 16.261l2.347-1.097L3 9.717v6.544zM12 0l11 6v12l-11 6-11-6V6l11-6zM7.356 16h-.174l4.825 5.483L16.83 16h-.187a6 6 0 0 0 1.098-2.054l.207.359 3.013-6.992-7.805-1.31.202.352a6.018 6.018 0 0 0-2.718 0l.197-.343-7.783 1.306L6.06 14.29l.199-.344c.23.76.608 1.455 1.098 2.054z" fill-rule="nonzero"/><path d="M12.401 16v-1.729H8.886v-1.44l3.726-5.456h1.383v5.45h1.067v1.446h-1.067V16h-1.594zm0-3.176V9.89l-1.974 2.935H12.4z"/></g></svg>