<svg width="24" height="24" viewBox="0 0 24 24" xmlns="http://www.w3.org/2000/svg"><title>small-d10-3</title><g fill-rule="evenodd"><path d="M12 0l11.392 10v8L12 24 .608 18v-8L12 0zM5.268 13.925l-.587 1.161-2.073 1.193v-5.373L10.132 4.3l-.575 1.137a6.95 6.95 0 0 1 1.295-.344L12 2.822l1.148 2.272c.447.073.88.19 1.295.344L13.868 4.3l7.524 6.605v5.373l-2.073-1.193-.587-1.161a6.986 6.986 0 0 1-1.452 2.67l1.581-.618 1.95 1.122-8.305 4.374v-2.491a7.101 7.101 0 0 1-1.012 0v2.491L3.188 17.1l1.95-1.122 1.582.619a6.986 6.986 0 0 1-1.452-2.671z"/><path d="M9.114 14.72l1.594-.193c.05.407.188.717.41.932.223.215.492.322.809.322.34 0 .626-.129.858-.386.233-.258.349-.606.349-1.043 0-.415-.112-.743-.334-.985a1.065 1.065 0 0 0-.815-.363c-.21 0-.463.04-.756.123l.182-1.342c.445.012.785-.085 1.02-.29.234-.205.351-.477.351-.817 0-.29-.086-.52-.258-.692-.171-.172-.4-.257-.685-.257a.992.992 0 0 0-.72.292c-.2.196-.321.481-.364.856l-1.518-.258c.106-.52.265-.934.478-1.245.213-.31.51-.555.89-.732a2.989 2.989 0 0 1 1.28-.267c.81 0 1.458.258 1.946.773.402.422.604.899.604 1.43 0 .754-.413 1.356-1.237 1.805a2 2 0 0 1 1.18.709c.296.367.443.81.443 1.33 0 .754-.275 1.396-.826 1.928-.55.53-1.236.796-2.057.796-.777 0-1.421-.223-1.933-.67-.512-.448-.809-1.033-.89-1.755z"/></g></svg>