<?xml version="1.0" encoding="UTF-8"?>
<svg width="24px" height="24px" viewBox="0 0 24 24" version="1.1" xmlns="http://www.w3.org/2000/svg" xmlns:xlink="http://www.w3.org/1999/xlink">
    <!-- Generator: sketchtool 42 (36781) - http://www.bohemiancoding.com/sketch -->
    <title>small-d12-10</title>
    <desc>Created with sketchtool.</desc>
    <defs></defs>
    <g id="Font" stroke="none" stroke-width="1" fill="none" fill-rule="evenodd">
        <g id="small-d12-10" fill="#000000">
            <g id="d12-outline">
                <path d="M6.18264495,3.99309768 L2.5873218,8.94163546 L2.5873218,15.0583645 L6.18264495,20.0069023 L12,21.8970756 L17.8173551,20.0069023 L21.4126782,15.0583645 L21.4126782,8.94163546 L17.8173551,3.99309768 L12,2.10292445 L6.18264495,3.99309768 Z M12,0 L19.053423,2.29179607 L23.4126782,8.29179607 L23.4126782,15.7082039 L19.053423,21.7082039 L12,24 L4.94657697,21.7082039 L0.587321804,15.7082039 L0.587321804,8.29179607 L4.94657697,2.29179607 L12,0 Z" id="Polygon-6" fill-rule="nonzero"></path>
                <path d="M5.89400714,7.8182295 L4.37586909,8.92122136 L1.89996142,8.00744428 C1.64089949,7.91183294 1.35338,8.04433582 1.25776866,8.30339775 C1.16215732,8.56245968 1.2946602,8.84997917 1.55372213,8.94559052 L3.96588464,9.83584133 L4.60275912,11.7959394 C4.64266508,10.3219889 5.1135708,8.95559587 5.89400714,7.8182295 Z M9.91272362,4.89846107 L11.5,3.74523728 L11.5,1.12697383 C11.5,0.850831453 11.7238576,0.626973828 12,0.626973828 C12.2761424,0.626973828 12.5,0.850831453 12.5,1.12697383 L12.5,3.74523728 L14.0872764,4.89846107 C13.4253002,4.70420862 12.7248197,4.5999999 12,4.5999999 C11.2751803,4.5999999 10.5746998,4.70420862 9.91272362,4.89846107 Z M18.1059929,7.8182295 L19.6103108,8.91118044 L21.8985585,7.94876803 C22.1531033,7.84170924 22.4462408,7.96127024 22.5532996,8.21581498 C22.6603584,8.47035973 22.5407974,8.76349731 22.2862527,8.8705561 L20.0409124,9.81492207 L19.3972409,11.7959394 C19.3573349,10.3219889 18.8864292,8.95559587 18.1059929,7.8182295 Z M17.8642642,16.5139565 L17.2724455,18.3353872 L18.9408456,20.2743657 C19.1209558,20.4836859 19.0972765,20.7993816 18.8879563,20.9794917 C18.6786361,21.1596019 18.3629405,21.1359226 18.1828303,20.9266024 L16.5011035,18.972136 L14.4857934,18.972136 C15.8360468,18.4906877 17.0053705,17.6281278 17.8642642,16.5139565 Z M9.51420663,18.972136 L7.55851009,18.972136 L5.93836286,20.6393302 C5.74591493,20.8373666 5.42936486,20.841897 5.23132848,20.649449 C5.0332921,20.4570011 5.02876177,20.140451 5.2212097,19.9424147 L6.74141964,18.3780597 L6.13573581,16.5139565 C6.99462949,17.6281278 8.16395318,18.4906877 9.51420663,18.972136 Z" id="Combined-Shape" fill-rule="evenodd"></path>
            </g>
            <g id="0" transform="translate(11.000000, 8.000000)">
                <path d="M2.95605469,0.375 C3.7880901,0.375 4.43847422,0.671872031 4.90722656,1.265625 C5.46582311,1.96875352 5.74511719,3.13475748 5.74511719,4.76367188 C5.74511719,6.38868 5.46387,7.55663707 4.90136719,8.26757812 C4.43652111,8.85351855 3.7880901,9.14648438 2.95605469,9.14648438 C2.12011301,9.14648438 1.44629162,8.82519853 0.934570313,8.18261719 C0.422849004,7.54003585 0.166992188,6.39453949 0.166992188,4.74609375 C0.166992188,3.12889816 0.448239375,1.9648473 1.01074219,1.25390625 C1.47558826,0.66796582 2.12401928,0.375 2.95605469,0.375 Z M2.95605469,1.74023438 C2.75683494,1.74023438 2.57910234,1.8037103 2.42285156,1.93066406 C2.26660078,2.05761782 2.14550824,2.28515461 2.05957031,2.61328125 C1.9462885,3.03906463 1.88964844,3.75585434 1.88964844,4.76367188 C1.88964844,5.77148941 1.94042918,6.4638653 2.04199219,6.84082031 C2.1435552,7.21777532 2.2714836,7.46874937 2.42578125,7.59375 C2.5800789,7.71875063 2.75683494,7.78125 2.95605469,7.78125 C3.15527443,7.78125 3.33300703,7.71777407 3.48925781,7.59082031 C3.64550859,7.46386655 3.76660113,7.23632977 3.85253906,6.90820312 C3.96582088,6.48632602 4.02246094,5.77148941 4.02246094,4.76367188 C4.02246094,3.75585434 3.9716802,3.06347845 3.87011719,2.68652344 C3.76855418,2.30956843 3.64062577,2.05761782 3.48632812,1.93066406 C3.33203048,1.8037103 3.15527443,1.74023438 2.95605469,1.74023438 Z"></path>
            </g>
            <g id="1" transform="translate(6.000000, 8.000000)">
                <path d="M4.38574219,9 L2.73925781,9 L2.73925781,2.79492188 C2.1376923,3.35742469 1.42871502,3.77343615 0.612304688,4.04296875 L0.612304688,2.54882812 C1.04199434,2.40820242 1.50878654,2.14160353 2.01269531,1.74902344 C2.51660408,1.35644335 2.86230375,0.898440117 3.04980469,0.375 L4.38574219,0.375 L4.38574219,9 Z"></path>
            </g>
        </g>
    </g>
</svg>