<svg width="24" height="24" viewBox="0 0 24 24" xmlns="http://www.w3.org/2000/svg"><title>small-d6-5</title><g fill-rule="evenodd"><path d="M4 21h16V5H4v16zM2 4.99C2 3.892 2.898 3 3.99 3h16.02C21.108 3 22 3.898 22 4.99v16.02c0 1.099-.898 1.99-1.99 1.99H3.99A1.995 1.995 0 0 1 2 21.01V4.99z" fill-rule="nonzero"/><path d="M9.196 14.791l1.64-.17c.048.371.186.665.417.882a1.129 1.129 0 0 0 1.67-.094c.238-.28.357-.7.357-1.263 0-.527-.118-.922-.354-1.186-.237-.264-.544-.396-.923-.396-.473 0-.897.21-1.272.627l-1.335-.193.843-4.47h4.354v1.54h-3.106l-.258 1.46a2.49 2.49 0 0 1 1.125-.276c.731 0 1.35.266 1.858.797s.762 1.22.762 2.068c0 .707-.205 1.338-.616 1.893-.558.758-1.334 1.136-2.326 1.136-.793 0-1.44-.212-1.94-.638-.5-.426-.798-.998-.896-1.717z"/></g></svg>