<?xml version="1.0" encoding="UTF-8"?>
<svg width="24px" height="24px" viewBox="0 0 24 24" version="1.1" xmlns="http://www.w3.org/2000/svg" xmlns:xlink="http://www.w3.org/1999/xlink">
    <!-- Generator: sketchtool 42 (36781) - http://www.bohemiancoding.com/sketch -->
    <title>small-d12-12</title>
    <desc>Created with sketchtool.</desc>
    <defs></defs>
    <g id="Font" stroke="none" stroke-width="1" fill="none" fill-rule="evenodd">
        <g id="small-d12-12" fill="#000000">
            <g id="d12-outline">
                <path d="M6.18264495,3.99309768 L2.5873218,8.94163546 L2.5873218,15.0583645 L6.18264495,20.0069023 L12,21.8970756 L17.8173551,20.0069023 L21.4126782,15.0583645 L21.4126782,8.94163546 L17.8173551,3.99309768 L12,2.10292445 L6.18264495,3.99309768 Z M12,0 L19.053423,2.29179607 L23.4126782,8.29179607 L23.4126782,15.7082039 L19.053423,21.7082039 L12,24 L4.94657697,21.7082039 L0.587321804,15.7082039 L0.587321804,8.29179607 L4.94657697,2.29179607 L12,0 Z" id="Polygon-6" fill-rule="nonzero"></path>
                <path d="M5.89400714,7.8182295 L4.37586909,8.92122136 L1.89996142,8.00744428 C1.64089949,7.91183294 1.35338,8.04433582 1.25776866,8.30339775 C1.16215732,8.56245968 1.2946602,8.84997917 1.55372213,8.94559052 L3.96588464,9.83584133 L4.60275912,11.7959394 C4.64266508,10.3219889 5.1135708,8.95559587 5.89400714,7.8182295 Z M9.91272362,4.89846107 L11.5,3.74523728 L11.5,1.12697383 C11.5,0.850831453 11.7238576,0.626973828 12,0.626973828 C12.2761424,0.626973828 12.5,0.850831453 12.5,1.12697383 L12.5,3.74523728 L14.0872764,4.89846107 C13.4253002,4.70420862 12.7248197,4.5999999 12,4.5999999 C11.2751803,4.5999999 10.5746998,4.70420862 9.91272362,4.89846107 Z M18.1059929,7.8182295 L19.6103108,8.91118044 L21.8985585,7.94876803 C22.1531033,7.84170924 22.4462408,7.96127024 22.5532996,8.21581498 C22.6603584,8.47035973 22.5407974,8.76349731 22.2862527,8.8705561 L20.0409124,9.81492207 L19.3972409,11.7959394 C19.3573349,10.3219889 18.8864292,8.95559587 18.1059929,7.8182295 Z M17.8642642,16.5139565 L17.2724455,18.3353872 L18.9408456,20.2743657 C19.1209558,20.4836859 19.0972765,20.7993816 18.8879563,20.9794917 C18.6786361,21.1596019 18.3629405,21.1359226 18.1828303,20.9266024 L16.5011035,18.972136 L14.4857934,18.972136 C15.8360468,18.4906877 17.0053705,17.6281278 17.8642642,16.5139565 Z M9.51420663,18.972136 L7.55851009,18.972136 L5.93836286,20.6393302 C5.74591493,20.8373666 5.42936486,20.841897 5.23132848,20.649449 C5.0332921,20.4570011 5.02876177,20.140451 5.2212097,19.9424147 L6.74141964,18.3780597 L6.13573581,16.5139565 C6.99462949,17.6281278 8.16395318,18.4906877 9.51420663,18.972136 Z" id="Combined-Shape" fill-rule="evenodd"></path>
            </g>
            <g id="2" transform="translate(10.000000, 8.000000)">
                <path d="M6.73339844,7.47070312 L6.73339844,9 L0.961914062,9 C1.02441438,8.42187211 1.2119125,7.87402603 1.52441406,7.35644531 C1.83691563,6.8388646 2.45409695,6.15234803 3.37597656,5.296875 C4.11816777,4.60546529 4.57324135,4.13671998 4.74121094,3.890625 C4.96777457,3.55077955 5.08105469,3.21484541 5.08105469,2.8828125 C5.08105469,2.51562316 4.98242286,2.23339942 4.78515625,2.03613281 C4.58788964,1.8388662 4.31543143,1.74023438 3.96777344,1.74023438 C3.62402172,1.74023438 3.35058695,1.84374896 3.14746094,2.05078125 C2.94433492,2.25781354 2.82714859,2.6015601 2.79589844,3.08203125 L1.15527344,2.91796875 C1.25293018,2.01171422 1.55956773,1.3613301 2.07519531,0.966796875 C2.59082289,0.572263652 3.2353477,0.375 4.00878906,0.375 C4.85644955,0.375 5.52245852,0.60351334 6.00683594,1.06054688 C6.49121336,1.51758041 6.73339844,2.0859341 6.73339844,2.765625 C6.73339844,3.15234568 6.66406319,3.52050606 6.52539062,3.87011719 C6.38671806,4.21972831 6.16699369,4.58593559 5.86621094,4.96875 C5.66699119,5.22265752 5.30761979,5.58788824 4.78808594,6.06445312 C4.26855209,6.54101801 3.93945382,6.85742109 3.80078125,7.01367188 C3.66210868,7.16992266 3.54980512,7.32226488 3.46386719,7.47070312 L6.73339844,7.47070312 Z"></path>
            </g>
            <g id="1" transform="translate(6.000000, 8.000000)">
                <path d="M4.38574219,9 L2.73925781,9 L2.73925781,2.79492188 C2.1376923,3.35742469 1.42871502,3.77343615 0.612304688,4.04296875 L0.612304688,2.54882812 C1.04199434,2.40820242 1.50878654,2.14160353 2.01269531,1.74902344 C2.51660408,1.35644335 2.86230375,0.898440117 3.04980469,0.375 L4.38574219,0.375 L4.38574219,9 Z"></path>
            </g>
        </g>
    </g>
</svg>