<?xml version="1.0" encoding="UTF-8"?>
<svg width="24px" height="24px" viewBox="0 0 24 24" version="1.1" xmlns="http://www.w3.org/2000/svg" xmlns:xlink="http://www.w3.org/1999/xlink">
    <!-- Generator: sketchtool 42 (36781) - http://www.bohemiancoding.com/sketch -->
    <title>small-d10-9</title>
    <desc>Created with sketchtool.</desc>
    <defs></defs>
    <g id="Font" stroke="none" stroke-width="1" fill="none" fill-rule="evenodd">
        <g id="small-d10-9" fill="#000000">
            <g id="d10-outline" fill-rule="nonzero">
                <path d="M2.60769515,10.9056373 L2.60769515,16.7929155 L12,21.7395729 L21.3923048,16.7929155 L21.3923048,10.9056373 L12,2.66120828 L2.60769515,10.9056373 Z M12,0 L23.3923048,10 L23.3923048,18 L12,24 L0.607695155,18 L0.607695155,10 L12,0 Z" id="Polygon-6"></path>
                <path d="M6.51814332,15.4427789 L5.76935254,15.14966 L6.15911437,14.378513 C6.05505154,13.9358935 6,13.4743757 6,13 C6,12.8050565 6.00929698,12.6122844 6.02747176,12.4221029 L4.68081954,15.0864656 L1.4915091,16.9213873 C1.25215418,17.0590965 1.16975409,17.3647674 1.30746333,17.6041223 C1.44517257,17.8434773 1.75084347,17.9258774 1.99019839,17.7881681 L5.13875045,15.9766961 L7.41176384,16.8664814 C7.0510673,16.4388923 6.74905428,15.9601853 6.51814332,15.4427789 Z M9.64619134,7.47930216 L12,2.82227211 L14.3538087,7.47930216 C14.9636064,7.73963028 15.5215162,8.09803851 16.0077154,8.53470443 L12.4486487,1.49306116 C12.4251447,1.44520653 12.3939172,1.40089478 12.3556471,1.36219876 C12.2029584,1.21114663 11.9713698,1.16807291 11.7744564,1.26759914 C11.7249183,1.29263721 11.6813455,1.32479445 11.6443529,1.36219876 C11.6109554,1.39518458 11.5787981,1.43875741 11.5537601,1.48829545 L7.99228456,8.53470443 C8.47848382,8.09803851 9.03639356,7.73963028 9.64619134,7.47930216 Z M17.8408856,14.378513 L18.2306475,15.14966 L17.4818567,15.4427789 C17.2509457,15.9601853 16.9489327,16.4388923 16.5882362,16.8664814 L18.8612496,15.9766961 L22.0098016,17.7881681 C22.2491565,17.9258774 22.5548274,17.8434773 22.6925367,17.6041223 C22.8302459,17.3647674 22.7478458,17.0590965 22.5084909,16.9213873 L19.3191805,15.0864656 L17.9725282,12.4221029 C17.990703,12.6122844 18,12.8050565 18,13 C18,13.4743757 17.9449485,13.9358935 17.8408856,14.378513 Z M12.5060249,18.978963 L12.5060249,22.4831449 C12.5060249,22.7592873 12.2821673,22.9831449 12.0060249,22.9831449 C12.0040138,22.9831449 12.0020055,22.9831331 12,22.9831094 C11.9979945,22.9831331 11.9959862,22.9831449 11.9939751,22.9831449 C11.7178327,22.9831449 11.4939751,22.7592873 11.4939751,22.4831449 L11.4939751,18.978963 C11.6608037,18.9928943 11.829572,19 12,19 C12.170428,19 12.3391963,18.9928943 12.5060249,18.978963 Z" id="Combined-Shape"></path>
            </g>
            <g id="9" transform="translate(9.000000, 8.000000)">
                <path d="M0.208007812,7.01367188 L1.80175781,6.83789062 C1.84082051,7.162111 1.94238199,7.40234297 2.10644531,7.55859375 C2.27050863,7.71484453 2.48730334,7.79296875 2.75683594,7.79296875 C3.09668139,7.79296875 3.385741,7.63672031 3.62402344,7.32421875 C3.86230588,7.01171719 4.01464811,6.36328617 4.08105469,5.37890625 C3.66699012,5.8593774 3.14941717,6.09960938 2.52832031,6.09960938 C1.85253568,6.09960938 1.2695337,5.83886979 0.779296875,5.31738281 C0.289060049,4.79589583 0.0439453125,4.11719168 0.0439453125,3.28125 C0.0439453125,2.41015189 0.302731787,1.70801048 0.8203125,1.17480469 C1.33789321,0.641598896 1.99706631,0.375 2.79785156,0.375 C3.66894967,0.375 4.38378627,0.711910693 4.94238281,1.38574219 C5.50097936,2.05957368 5.78027344,3.16796104 5.78027344,4.7109375 C5.78027344,6.28125785 5.48926072,7.41405902 4.90722656,8.109375 C4.3251924,8.80469098 3.56738748,9.15234375 2.63378906,9.15234375 C1.9619107,9.15234375 1.41894738,8.9736346 1.00488281,8.61621094 C0.590818242,8.25878728 0.325195898,7.72461293 0.208007812,7.01367188 Z M3.93457031,3.41601562 C3.93457031,2.88476297 3.81250122,2.47265771 3.56835937,2.1796875 C3.32421753,1.88671729 3.04199379,1.74023438 2.72167969,1.74023438 C2.41699066,1.74023438 2.16406351,1.86035036 1.96289062,2.10058594 C1.76171774,2.34082151 1.66113281,2.73437227 1.66113281,3.28125 C1.66113281,3.83594027 1.77050672,4.24316276 1.98925781,4.50292969 C2.20800891,4.76269661 2.48144367,4.89257812 2.80957031,4.89257812 C3.12597814,4.89257812 3.39257704,4.76757937 3.609375,4.51757812 C3.82617296,4.26757688 3.93457031,3.90039305 3.93457031,3.41601562 Z"></path>
            </g>
        </g>
    </g>
</svg>