<?xml version="1.0" encoding="UTF-8"?>
<svg width="23px" height="24px" viewBox="0 0 23 24" version="1.1" xmlns="http://www.w3.org/2000/svg" xmlns:xlink="http://www.w3.org/1999/xlink">
    <!-- Generator: sketchtool 42 (36781) - http://www.bohemiancoding.com/sketch -->
    <title>small-d20-13</title>
    <desc>Created with sketchtool.</desc>
    <defs></defs>
    <g id="Font" stroke="none" stroke-width="1" fill="none" fill-rule="evenodd">
        <g id="small-d20-13" fill="#000000">
            <g id="d20-outline" transform="translate(1.000000, 0.000000)">
                <path d="M2,7.15470054 L2,16.8452995 L11,21.6905989 L20,16.8452995 L20,7.15470054 L11,2.30940108 L2,7.15470054 Z M11,0 L22,6 L22,18 L11,24 L7.05086318e-15,18 L0,6 L11,0 Z" id="Polygon-3" fill-rule="nonzero"></path>
                <path d="M6.35649368,16 L6.18202337,16 L11.0065083,21.4834133 L15.8309932,16 L15.6435063,16 C16.1343296,15.4009348 16.5115071,14.7051681 16.7421108,13.9456277 L16.9494964,14.30483 L19.9621518,7.31278939 L12.1567015,6.0034658 L12.3594693,6.35466982 C11.922661,6.25348455 11.4675765,6.19999981 11,6.19999981 C10.5324235,6.19999981 10.077339,6.25348455 9.64053074,6.35466982 L9.83829237,6.01213663 L2.05519469,7.31771068 L5.05922274,14.289728 L5.25788919,13.9456277 C5.48849294,14.7051681 5.8656704,15.4009348 6.35649368,16 Z M10.486485,4.88943416 L10.5020352,4.86250025 L10.5086793,3.40444809 L10.5000115,1.50227848 C10.4987532,1.22613897 10.7215884,1.00126361 10.9977279,1.0000053 C11.0491508,0.99977098 11.098796,1.00730781 11.1455504,1.02151287 C11.3604364,1.07834712 11.518395,1.27458472 11.517335,1.50719978 L11.5086897,3.40444809 L11.5154222,4.88192299 L20.756329,6.43203691 C21.0762487,6.48570178 21.2611633,6.82508546 21.1328019,7.12299808 L17.6704245,15.1587936 L20.8854491,16.6625463 C21.4893257,16.9449954 21.0656519,17.8508103 20.4617754,17.5683611 L17.1471088,16.0180032 L11.4644168,22.4768376 C11.4364251,22.5327091 11.3974209,22.584232 11.3476187,22.6280496 C11.2131527,22.7463571 11.0329954,22.7794359 10.8732138,22.7315093 C10.8001397,22.7124184 10.7302982,22.6764201 10.6697278,22.6231283 C10.6275419,22.5860118 10.5931038,22.5433665 10.566544,22.4972326 L4.87023774,16.0229245 L1.55557114,17.5732824 C0.951694563,17.8557316 0.528020819,16.9499167 1.13189739,16.6674676 L4.34692201,15.1637149 L0.884544649,7.12791938 C0.756183255,6.83000676 0.941097784,6.49062308 1.26101755,6.4369582 L10.486485,4.88943416 Z" id="Combined-Shape" fill-rule="evenodd"></path>
            </g>
            <g id="3" transform="translate(11.000000, 7.000000)">
                <path d="M0.114257812,6.72070312 L1.70800781,6.52734375 C1.75878932,6.93359578 1.8955067,7.24413955 2.11816406,7.45898438 C2.34082143,7.6738292 2.61034998,7.78125 2.92675781,7.78125 C3.26660326,7.78125 3.55273321,7.65234504 3.78515625,7.39453125 C4.01757929,7.13671746 4.13378906,6.78906469 4.13378906,6.3515625 C4.13378906,5.93749793 4.02246205,5.60937621 3.79980469,5.3671875 C3.57714732,5.12499879 3.30566566,5.00390625 2.98535156,5.00390625 C2.77441301,5.00390625 2.5224624,5.04492146 2.22949219,5.12695312 L2.41113281,3.78515625 C2.85644754,3.79687506 3.19628789,3.70019634 3.43066406,3.49511719 C3.66504023,3.29003804 3.78222656,3.01757982 3.78222656,2.67773438 C3.78222656,2.38867043 3.69628992,2.15820398 3.52441406,1.98632812 C3.3525382,1.81445227 3.12402486,1.72851562 2.83886719,1.72851562 C2.55761578,1.72851562 2.31738381,1.8261709 2.11816406,2.02148438 C1.91894432,2.21679785 1.79785178,2.50195125 1.75488281,2.87695312 L0.237304688,2.61914062 C0.342773965,2.09960678 0.501952061,1.68457187 0.71484375,1.37402344 C0.927735439,1.06347501 1.22460747,0.819336826 1.60546875,0.641601562 C1.98633003,0.463866299 2.41308357,0.375 2.88574219,0.375 C3.69433998,0.375 4.342771,0.632809922 4.83105469,1.1484375 C5.23340045,1.57031461 5.43457031,2.04687234 5.43457031,2.578125 C5.43457031,3.33203502 5.02246506,3.9335915 4.19824219,4.3828125 C4.69043215,4.48828178 5.0839829,4.72460754 5.37890625,5.09179688 C5.6738296,5.45898621 5.82128906,5.90234115 5.82128906,6.421875 C5.82128906,7.17578502 5.54590119,7.81835672 4.99511719,8.34960938 C4.44433318,8.88086203 3.75879316,9.14648438 2.93847656,9.14648438 C2.16112893,9.14648438 1.51660412,8.9228538 1.00488281,8.47558594 C0.493161504,8.02831808 0.196289473,7.44336299 0.114257812,6.72070312 Z"></path>
            </g>
            <g id="1" transform="translate(6.000000, 7.000000)">
                <path d="M4.38574219,9 L2.73925781,9 L2.73925781,2.79492188 C2.1376923,3.35742469 1.42871502,3.77343615 0.612304688,4.04296875 L0.612304688,2.54882812 C1.04199434,2.40820242 1.50878654,2.14160353 2.01269531,1.74902344 C2.51660408,1.35644335 2.86230375,0.898440117 3.04980469,0.375 L4.38574219,0.375 L4.38574219,9 Z"></path>
            </g>
        </g>
    </g>
</svg>