<?xml version="1.0" encoding="UTF-8"?>
<svg width="24px" height="24px" viewBox="0 0 24 24" version="1.1" xmlns="http://www.w3.org/2000/svg" xmlns:xlink="http://www.w3.org/1999/xlink">
    <!-- Generator: sketchtool 42 (36781) - http://www.bohemiancoding.com/sketch -->
    <title>small-d12-8</title>
    <desc>Created with sketchtool.</desc>
    <defs></defs>
    <g id="Font" stroke="none" stroke-width="1" fill="none" fill-rule="evenodd">
        <g id="small-d12-8" fill="#000000">
            <g id="d12-outline">
                <path d="M6.18264495,3.99309768 L2.5873218,8.94163546 L2.5873218,15.0583645 L6.18264495,20.0069023 L12,21.8970756 L17.8173551,20.0069023 L21.4126782,15.0583645 L21.4126782,8.94163546 L17.8173551,3.99309768 L12,2.10292445 L6.18264495,3.99309768 Z M12,0 L19.053423,2.29179607 L23.4126782,8.29179607 L23.4126782,15.7082039 L19.053423,21.7082039 L12,24 L4.94657697,21.7082039 L0.587321804,15.7082039 L0.587321804,8.29179607 L4.94657697,2.29179607 L12,0 Z" id="Polygon-6" fill-rule="nonzero"></path>
                <path d="M5.89400714,7.8182295 L4.37586909,8.92122136 L1.89996142,8.00744428 C1.64089949,7.91183294 1.35338,8.04433582 1.25776866,8.30339775 C1.16215732,8.56245968 1.2946602,8.84997917 1.55372213,8.94559052 L3.96588464,9.83584133 L4.60275912,11.7959394 C4.64266508,10.3219889 5.1135708,8.95559587 5.89400714,7.8182295 Z M9.91272362,4.89846107 L11.5,3.74523728 L11.5,1.12697383 C11.5,0.850831453 11.7238576,0.626973828 12,0.626973828 C12.2761424,0.626973828 12.5,0.850831453 12.5,1.12697383 L12.5,3.74523728 L14.0872764,4.89846107 C13.4253002,4.70420862 12.7248197,4.5999999 12,4.5999999 C11.2751803,4.5999999 10.5746998,4.70420862 9.91272362,4.89846107 Z M18.1059929,7.8182295 L19.6103108,8.91118044 L21.8985585,7.94876803 C22.1531033,7.84170924 22.4462408,7.96127024 22.5532996,8.21581498 C22.6603584,8.47035973 22.5407974,8.76349731 22.2862527,8.8705561 L20.0409124,9.81492207 L19.3972409,11.7959394 C19.3573349,10.3219889 18.8864292,8.95559587 18.1059929,7.8182295 Z M17.8642642,16.5139565 L17.2724455,18.3353872 L18.9408456,20.2743657 C19.1209558,20.4836859 19.0972765,20.7993816 18.8879563,20.9794917 C18.6786361,21.1596019 18.3629405,21.1359226 18.1828303,20.9266024 L16.5011035,18.972136 L14.4857934,18.972136 C15.8360468,18.4906877 17.0053705,17.6281278 17.8642642,16.5139565 Z M9.51420663,18.972136 L7.55851009,18.972136 L5.93836286,20.6393302 C5.74591493,20.8373666 5.42936486,20.841897 5.23132848,20.649449 C5.0332921,20.4570011 5.02876177,20.140451 5.2212097,19.9424147 L6.74141964,18.3780597 L6.13573581,16.5139565 C6.99462949,17.6281278 8.16395318,18.4906877 9.51420663,18.972136 Z" id="Combined-Shape" fill-rule="evenodd"></path>
            </g>
            <g id="8" transform="translate(9.000000, 8.000000)">
                <path d="M1.58496094,4.36523438 C1.15917756,4.18554598 0.849610342,3.93847813 0.65625,3.62402344 C0.462889658,3.30956874 0.366210938,2.96484562 0.366210938,2.58984375 C0.366210938,1.94921555 0.589841514,1.41992396 1.03710938,1.00195312 C1.48437724,0.583982285 2.12011307,0.375 2.94433594,0.375 C3.76074627,0.375 4.39452899,0.583982285 4.84570312,1.00195312 C5.29687726,1.41992396 5.52246094,1.94921555 5.52246094,2.58984375 C5.52246094,2.98828324 5.41894635,3.34277188 5.21191406,3.65332031 C5.00488178,3.96386874 4.71386906,4.20117105 4.33886719,4.36523438 C4.81543207,4.55664158 5.17773313,4.83593566 5.42578125,5.203125 C5.67382937,5.57031434 5.79785156,5.99413822 5.79785156,6.47460938 C5.79785156,7.26758209 5.5449244,7.91210689 5.0390625,8.40820312 C4.5332006,8.90429936 3.86035576,9.15234375 3.02050781,9.15234375 C2.23925391,9.15234375 1.58886979,8.94726768 1.06933594,8.53710938 C0.456051621,8.05273195 0.149414062,7.38867609 0.149414062,6.54492188 C0.149414062,6.0800758 0.264647285,5.65332226 0.495117188,5.26464844 C0.72558709,4.87597462 1.08886471,4.57617293 1.58496094,4.36523438 Z M1.92480469,2.70703125 C1.92480469,3.03515789 2.0175772,3.29101471 2.203125,3.47460938 C2.3886728,3.65820404 2.63574064,3.75 2.94433594,3.75 C3.2568375,3.75 3.506835,3.65722749 3.69433594,3.47167969 C3.88183688,3.28613188 3.97558594,3.02929852 3.97558594,2.70117188 C3.97558594,2.39257658 3.88281343,2.14550874 3.69726562,1.95996094 C3.51171782,1.77441313 3.26660309,1.68164062 2.96191406,1.68164062 C2.64550623,1.68164062 2.39355563,1.77538969 2.20605469,1.96289062 C2.01855375,2.15039156 1.92480469,2.39843596 1.92480469,2.70703125 Z M1.77246094,6.38671875 C1.77246094,6.83984602 1.88867071,7.19335811 2.12109375,7.44726562 C2.35351679,7.70117314 2.64355295,7.828125 2.99121094,7.828125 C3.33105639,7.828125 3.61230357,7.70605591 3.83496094,7.46191406 C4.0576183,7.21777222 4.16894531,6.86523668 4.16894531,6.40429688 C4.16894531,6.00195111 4.0556652,5.67871216 3.82910156,5.43457031 C3.60253793,5.19042847 3.31543143,5.06835938 2.96777344,5.06835938 C2.56542768,5.06835938 2.26562599,5.20702986 2.06835938,5.484375 C1.87109276,5.76172014 1.77246094,6.06249838 1.77246094,6.38671875 Z"></path>
            </g>
        </g>
    </g>
</svg>