<?xml version="1.0" encoding="UTF-8"?>
<svg width="24px" height="24px" viewBox="0 0 24 24" version="1.1" xmlns="http://www.w3.org/2000/svg" xmlns:xlink="http://www.w3.org/1999/xlink">
    <!-- Generator: sketchtool 42 (36781) - http://www.bohemiancoding.com/sketch -->
    <title>small-d8-8</title>
    <desc>Created with sketchtool.</desc>
    <defs></defs>
    <g id="Font" stroke="none" stroke-width="1" fill="none" fill-rule="evenodd">
        <g id="small-d8-8" fill="#000000">
            <g id="d8-outline" fill-rule="nonzero">
                <path d="M3.60769515,7.15470054 L3.60769515,16.8452995 L12,21.6905989 L20.3923048,16.8452995 L20.3923048,7.15470054 L12,2.30940108 L3.60769515,7.15470054 Z M12,0 L22.3923048,6 L22.3923048,18 L12,24 L1.60769515,18 L1.60769515,6 L12,0 Z" id="Polygon-6"></path>
                <path d="M5.51594688,11.7411201 L2.41307184,17.3561791 C2.2283721,17.6904174 2.47139117,18.0999624 2.85326217,18.0980046 L9.19542485,18.065488 C8.65000945,17.8042271 8.14669943,17.4691326 7.69844039,17.07315 L3.70067283,17.0936467 L5.64553224,13.5741688 C5.55019492,13.1312045 5.5,12.671464 5.5,12.1999998 C5.5,12.0457256 5.50537464,11.8927067 5.51594688,11.7411201 Z M8.16127125,6.95405911 L11.5623732,0.799319583 C11.7524425,0.455364248 12.2467571,0.455026632 12.4372961,0.798722013 L15.8572777,6.9677058 C15.3632012,6.60286238 14.8156066,6.30632885 14.2284384,6.09204953 L12.0007052,2.07365069 L9.78230283,6.08814043 C9.19841491,6.30005109 8.65351164,6.59325006 8.16127125,6.95405911 Z M18.4810985,11.7005697 L21.5641953,17.2618785 C21.7483987,17.5941458 21.5093688,18.0023538 21.1294627,18.0043016 L14.8644605,18.0364226 C15.4070006,17.7696447 15.9069235,17.4294452 16.3512671,17.0287865 L20.2804149,17.0086415 L18.3605527,13.5455824 C18.4519397,13.1114358 18.5,12.6613303 18.5,12.1999998 C18.5,12.0319575 18.4936232,11.8654045 18.4810985,11.7005697 Z" id="Combined-Shape"></path>
            </g>
            <g id="8" transform="translate(9.000000, 7.000000)">
                <path d="M1.58496094,4.36523438 C1.15917756,4.18554598 0.849610342,3.93847813 0.65625,3.62402344 C0.462889658,3.30956874 0.366210938,2.96484562 0.366210938,2.58984375 C0.366210938,1.94921555 0.589841514,1.41992396 1.03710938,1.00195312 C1.48437724,0.583982285 2.12011307,0.375 2.94433594,0.375 C3.76074627,0.375 4.39452899,0.583982285 4.84570312,1.00195312 C5.29687726,1.41992396 5.52246094,1.94921555 5.52246094,2.58984375 C5.52246094,2.98828324 5.41894635,3.34277188 5.21191406,3.65332031 C5.00488178,3.96386874 4.71386906,4.20117105 4.33886719,4.36523438 C4.81543207,4.55664158 5.17773313,4.83593566 5.42578125,5.203125 C5.67382937,5.57031434 5.79785156,5.99413822 5.79785156,6.47460938 C5.79785156,7.26758209 5.5449244,7.91210689 5.0390625,8.40820312 C4.5332006,8.90429936 3.86035576,9.15234375 3.02050781,9.15234375 C2.23925391,9.15234375 1.58886979,8.94726768 1.06933594,8.53710938 C0.456051621,8.05273195 0.149414062,7.38867609 0.149414062,6.54492188 C0.149414062,6.0800758 0.264647285,5.65332226 0.495117188,5.26464844 C0.72558709,4.87597462 1.08886471,4.57617293 1.58496094,4.36523438 Z M1.92480469,2.70703125 C1.92480469,3.03515789 2.0175772,3.29101471 2.203125,3.47460938 C2.3886728,3.65820404 2.63574064,3.75 2.94433594,3.75 C3.2568375,3.75 3.506835,3.65722749 3.69433594,3.47167969 C3.88183688,3.28613188 3.97558594,3.02929852 3.97558594,2.70117188 C3.97558594,2.39257658 3.88281343,2.14550874 3.69726562,1.95996094 C3.51171782,1.77441313 3.26660309,1.68164062 2.96191406,1.68164062 C2.64550623,1.68164062 2.39355563,1.77538969 2.20605469,1.96289062 C2.01855375,2.15039156 1.92480469,2.39843596 1.92480469,2.70703125 Z M1.77246094,6.38671875 C1.77246094,6.83984602 1.88867071,7.19335811 2.12109375,7.44726562 C2.35351679,7.70117314 2.64355295,7.828125 2.99121094,7.828125 C3.33105639,7.828125 3.61230357,7.70605591 3.83496094,7.46191406 C4.0576183,7.21777222 4.16894531,6.86523668 4.16894531,6.40429688 C4.16894531,6.00195111 4.0556652,5.67871216 3.82910156,5.43457031 C3.60253793,5.19042847 3.31543143,5.06835938 2.96777344,5.06835938 C2.56542768,5.06835938 2.26562599,5.20702986 2.06835938,5.484375 C1.87109276,5.76172014 1.77246094,6.06249838 1.77246094,6.38671875 Z"></path>
            </g>
        </g>
    </g>
</svg>