<svg width="24" height="24" viewBox="0 0 24 24" xmlns="http://www.w3.org/2000/svg"><title>small-d10-7</title><g fill-rule="evenodd"><path d="M11.494 21.473v-3.009l-6.355-2.487-1.95 1.122 8.305 4.374zm7.367-5.496l-6.355 2.487v3.01l8.306-4.375-1.95-1.122zm-.63-.827L12 2.822 5.77 15.15 12 17.589l6.23-2.44zM10.132 4.3l-7.524 6.606v5.373l2.073-1.193 5.451-10.785zm3.736 0l5.451 10.786 2.073 1.193v-5.373L13.868 4.3zM12 0l11.392 10v8L12 24 .608 18v-8L12 0z"/><path d="M9.173 10.057v-1.53h5.63v1.196c-.464.457-.937 1.113-1.417 1.968a11.48 11.48 0 0 0-1.099 2.728c-.252.963-.376 1.823-.372 2.581h-1.588c.027-1.188.273-2.398.736-3.633a12.106 12.106 0 0 1 1.854-3.31H9.173z"/></g></svg>