<?xml version="1.0" encoding="UTF-8"?>
<svg width="24px" height="24px" viewBox="0 0 24 24" version="1.1" xmlns="http://www.w3.org/2000/svg" xmlns:xlink="http://www.w3.org/1999/xlink">
    <!-- Generator: sketchtool 42 (36781) - http://www.bohemiancoding.com/sketch -->
    <title>small-d12-5</title>
    <desc>Created with sketchtool.</desc>
    <defs></defs>
    <g id="Font" stroke="none" stroke-width="1" fill="none" fill-rule="evenodd">
        <g id="small-d12-5" fill="#000000">
            <g id="d12-outline">
                <path d="M6.18264495,3.99309768 L2.5873218,8.94163546 L2.5873218,15.0583645 L6.18264495,20.0069023 L12,21.8970756 L17.8173551,20.0069023 L21.4126782,15.0583645 L21.4126782,8.94163546 L17.8173551,3.99309768 L12,2.10292445 L6.18264495,3.99309768 Z M12,0 L19.053423,2.29179607 L23.4126782,8.29179607 L23.4126782,15.7082039 L19.053423,21.7082039 L12,24 L4.94657697,21.7082039 L0.587321804,15.7082039 L0.587321804,8.29179607 L4.94657697,2.29179607 L12,0 Z" id="Polygon-6" fill-rule="nonzero"></path>
                <path d="M5.89400714,7.8182295 L4.37586909,8.92122136 L1.89996142,8.00744428 C1.64089949,7.91183294 1.35338,8.04433582 1.25776866,8.30339775 C1.16215732,8.56245968 1.2946602,8.84997917 1.55372213,8.94559052 L3.96588464,9.83584133 L4.60275912,11.7959394 C4.64266508,10.3219889 5.1135708,8.95559587 5.89400714,7.8182295 Z M9.91272362,4.89846107 L11.5,3.74523728 L11.5,1.12697383 C11.5,0.850831453 11.7238576,0.626973828 12,0.626973828 C12.2761424,0.626973828 12.5,0.850831453 12.5,1.12697383 L12.5,3.74523728 L14.0872764,4.89846107 C13.4253002,4.70420862 12.7248197,4.5999999 12,4.5999999 C11.2751803,4.5999999 10.5746998,4.70420862 9.91272362,4.89846107 Z M18.1059929,7.8182295 L19.6103108,8.91118044 L21.8985585,7.94876803 C22.1531033,7.84170924 22.4462408,7.96127024 22.5532996,8.21581498 C22.6603584,8.47035973 22.5407974,8.76349731 22.2862527,8.8705561 L20.0409124,9.81492207 L19.3972409,11.7959394 C19.3573349,10.3219889 18.8864292,8.95559587 18.1059929,7.8182295 Z M17.8642642,16.5139565 L17.2724455,18.3353872 L18.9408456,20.2743657 C19.1209558,20.4836859 19.0972765,20.7993816 18.8879563,20.9794917 C18.6786361,21.1596019 18.3629405,21.1359226 18.1828303,20.9266024 L16.5011035,18.972136 L14.4857934,18.972136 C15.8360468,18.4906877 17.0053705,17.6281278 17.8642642,16.5139565 Z M9.51420663,18.972136 L7.55851009,18.972136 L5.93836286,20.6393302 C5.74591493,20.8373666 5.42936486,20.841897 5.23132848,20.649449 C5.0332921,20.4570011 5.02876177,20.140451 5.2212097,19.9424147 L6.74141964,18.3780597 L6.13573581,16.5139565 C6.99462949,17.6281278 8.16395318,18.4906877 9.51420663,18.972136 Z" id="Combined-Shape" fill-rule="evenodd"></path>
            </g>
            <g id="5" transform="translate(9.000000, 8.000000)">
                <path d="M0.196289062,6.79101562 L1.83691406,6.62109375 C1.8837893,6.99218936 2.02245979,7.28613173 2.25292969,7.50292969 C2.48339959,7.71972765 2.74902193,7.828125 3.04980469,7.828125 C3.39355641,7.828125 3.68456912,7.68847796 3.92285156,7.40917969 C4.161134,7.12988142 4.28027344,6.70898719 4.28027344,6.14648438 C4.28027344,5.61913799 4.16211056,5.22363413 3.92578125,4.95996094 C3.68945194,4.69628774 3.38183783,4.56445312 3.00292969,4.56445312 C2.53027107,4.56445312 2.10644719,4.77343541 1.73144531,5.19140625 L0.395507812,4.99804688 L1.23925781,0.52734375 L5.59277344,0.52734375 L5.59277344,2.06835938 L2.48730469,2.06835938 L2.22949219,3.52734375 C2.59668152,3.34374908 2.97167777,3.25195312 3.35449219,3.25195312 C4.08496459,3.25195312 4.70409902,3.51757547 5.21191406,4.04882812 C5.7197291,4.58008078 5.97363281,5.26952701 5.97363281,6.1171875 C5.97363281,6.82422229 5.76855674,7.45507535 5.35839844,8.00976562 C4.79980189,8.76758191 4.02441902,9.14648438 3.03222656,9.14648438 C2.23925385,9.14648438 1.59277594,8.93359588 1.09277344,8.5078125 C0.592770938,8.08202912 0.293945801,7.50976922 0.196289062,6.79101562 Z"></path>
            </g>
        </g>
    </g>
</svg>