<?xml version="1.0" encoding="UTF-8"?>
<svg width="24px" height="24px" viewBox="0 0 24 24" version="1.1" xmlns="http://www.w3.org/2000/svg" xmlns:xlink="http://www.w3.org/1999/xlink">
    <!-- Generator: sketchtool 42 (36781) - http://www.bohemiancoding.com/sketch -->
    <title>small-d6-1</title>
    <desc>Created with sketchtool.</desc>
    <defs></defs>
    <g id="Font" stroke="none" stroke-width="1" fill="none" fill-rule="evenodd">
        <g id="small-d6-1" fill="#000000">
            <g id="d6-outline" transform="translate(2.000000, 2.000000)" fill-rule="nonzero">
                <path d="M2,19 L18,19 L18,3 L2,3 L2,19 Z M0,2.99079514 C0,1.89130934 0.898212381,1 1.99079514,1 L18.0092049,1 C19.1086907,1 20,1.89821238 20,2.99079514 L20,19.0092049 C20,20.1086907 19.1017876,21 18.0092049,21 L1.99079514,21 C0.891309342,21 0,20.1017876 0,19.0092049 L0,2.99079514 Z"></path>
            </g>
            <g id="1" transform="translate(9.000000, 8.000000)">
                <path d="M4.38574219,9 L2.73925781,9 L2.73925781,2.79492188 C2.1376923,3.35742469 1.42871502,3.77343615 0.612304688,4.04296875 L0.612304688,2.54882812 C1.04199434,2.40820242 1.50878654,2.14160353 2.01269531,1.74902344 C2.51660408,1.35644335 2.86230375,0.898440117 3.04980469,0.375 L4.38574219,0.375 L4.38574219,9 Z"></path>
            </g>
        </g>
    </g>
</svg>