<svg width="24" height="24" viewBox="0 0 24 24" xmlns="http://www.w3.org/2000/svg"><title>small-d12-9</title><g fill-rule="evenodd"><path d="M6.464 20.098l5.536 1.8 5.485-1.783-.984-1.143h-2.015a7.417 7.417 0 0 0 3.378-2.458l-.592 1.821.954 1.109 3.187-4.386v-5.82l-1.372.577-.644 1.98a7.362 7.362 0 0 0-1.291-3.977l1.504 1.093 1.364-.573-3.157-4.345L12.5 2.265v1.48l1.587 1.153A7.402 7.402 0 0 0 12 4.6c-.725 0-1.425.104-2.087.298L11.5 3.745v-1.48L6.183 3.993 2.977 8.405l1.399.516 1.518-1.103a7.362 7.362 0 0 0-1.291 3.978l-.637-1.96-1.379-.509v5.731l3.158 4.346.996-1.026-.605-1.864a7.417 7.417 0 0 0 3.378 2.458H7.56l-1.095 1.126zM12 0l7.053 2.292 4.36 6v7.416l-4.36 6L12 24l-7.053-2.292-4.36-6V8.292l4.36-6L12 0z" fill-rule="nonzero"/><path d="M9.208 15.014l1.594-.176c.039.324.14.564.304.72.165.157.381.235.65.235.34 0 .63-.156.868-.469.238-.312.39-.96.457-1.945-.414.48-.932.72-1.553.72-.675 0-1.258-.26-1.749-.782-.49-.521-.735-1.2-.735-2.036 0-.87.259-1.573.776-2.106.518-.533 1.177-.8 1.978-.8.87 0 1.586.337 2.144 1.01.559.675.838 1.783.838 3.326 0 1.57-.29 2.703-.873 3.398-.582.696-1.34 1.043-2.273 1.043-.672 0-1.215-.178-1.63-.536-.413-.357-.679-.891-.796-1.602zm3.727-3.598c0-.531-.122-.943-.367-1.236-.244-.293-.526-.44-.846-.44a.949.949 0 0 0-.76.36c-.2.24-.3.634-.3 1.181 0 .555.109.962.327 1.222.219.26.492.39.82.39.317 0 .584-.125.8-.375.217-.25.326-.618.326-1.102z"/></g></svg>