<?xml version="1.0" encoding="UTF-8"?>
<svg width="24px" height="24px" viewBox="0 0 24 24" version="1.1" xmlns="http://www.w3.org/2000/svg" xmlns:xlink="http://www.w3.org/1999/xlink">
    <!-- Generator: sketchtool 42 (36781) - http://www.bohemiancoding.com/sketch -->
    <title>small-d12-9</title>
    <desc>Created with sketchtool.</desc>
    <defs></defs>
    <g id="Font" stroke="none" stroke-width="1" fill="none" fill-rule="evenodd">
        <g id="small-d12-9" fill="#000000">
            <g id="d12-outline">
                <path d="M6.18264495,3.99309768 L2.5873218,8.94163546 L2.5873218,15.0583645 L6.18264495,20.0069023 L12,21.8970756 L17.8173551,20.0069023 L21.4126782,15.0583645 L21.4126782,8.94163546 L17.8173551,3.99309768 L12,2.10292445 L6.18264495,3.99309768 Z M12,0 L19.053423,2.29179607 L23.4126782,8.29179607 L23.4126782,15.7082039 L19.053423,21.7082039 L12,24 L4.94657697,21.7082039 L0.587321804,15.7082039 L0.587321804,8.29179607 L4.94657697,2.29179607 L12,0 Z" id="Polygon-6" fill-rule="nonzero"></path>
                <path d="M5.89400714,7.8182295 L4.37586909,8.92122136 L1.89996142,8.00744428 C1.64089949,7.91183294 1.35338,8.04433582 1.25776866,8.30339775 C1.16215732,8.56245968 1.2946602,8.84997917 1.55372213,8.94559052 L3.96588464,9.83584133 L4.60275912,11.7959394 C4.64266508,10.3219889 5.1135708,8.95559587 5.89400714,7.8182295 Z M9.91272362,4.89846107 L11.5,3.74523728 L11.5,1.12697383 C11.5,0.850831453 11.7238576,0.626973828 12,0.626973828 C12.2761424,0.626973828 12.5,0.850831453 12.5,1.12697383 L12.5,3.74523728 L14.0872764,4.89846107 C13.4253002,4.70420862 12.7248197,4.5999999 12,4.5999999 C11.2751803,4.5999999 10.5746998,4.70420862 9.91272362,4.89846107 Z M18.1059929,7.8182295 L19.6103108,8.91118044 L21.8985585,7.94876803 C22.1531033,7.84170924 22.4462408,7.96127024 22.5532996,8.21581498 C22.6603584,8.47035973 22.5407974,8.76349731 22.2862527,8.8705561 L20.0409124,9.81492207 L19.3972409,11.7959394 C19.3573349,10.3219889 18.8864292,8.95559587 18.1059929,7.8182295 Z M17.8642642,16.5139565 L17.2724455,18.3353872 L18.9408456,20.2743657 C19.1209558,20.4836859 19.0972765,20.7993816 18.8879563,20.9794917 C18.6786361,21.1596019 18.3629405,21.1359226 18.1828303,20.9266024 L16.5011035,18.972136 L14.4857934,18.972136 C15.8360468,18.4906877 17.0053705,17.6281278 17.8642642,16.5139565 Z M9.51420663,18.972136 L7.55851009,18.972136 L5.93836286,20.6393302 C5.74591493,20.8373666 5.42936486,20.841897 5.23132848,20.649449 C5.0332921,20.4570011 5.02876177,20.140451 5.2212097,19.9424147 L6.74141964,18.3780597 L6.13573581,16.5139565 C6.99462949,17.6281278 8.16395318,18.4906877 9.51420663,18.972136 Z" id="Combined-Shape" fill-rule="evenodd"></path>
            </g>
            <g id="9" transform="translate(9.000000, 8.000000)">
                <path d="M0.208007812,7.01367188 L1.80175781,6.83789062 C1.84082051,7.162111 1.94238199,7.40234297 2.10644531,7.55859375 C2.27050863,7.71484453 2.48730334,7.79296875 2.75683594,7.79296875 C3.09668139,7.79296875 3.385741,7.63672031 3.62402344,7.32421875 C3.86230588,7.01171719 4.01464811,6.36328617 4.08105469,5.37890625 C3.66699012,5.8593774 3.14941717,6.09960938 2.52832031,6.09960938 C1.85253568,6.09960938 1.2695337,5.83886979 0.779296875,5.31738281 C0.289060049,4.79589583 0.0439453125,4.11719168 0.0439453125,3.28125 C0.0439453125,2.41015189 0.302731787,1.70801048 0.8203125,1.17480469 C1.33789321,0.641598896 1.99706631,0.375 2.79785156,0.375 C3.66894967,0.375 4.38378627,0.711910693 4.94238281,1.38574219 C5.50097936,2.05957368 5.78027344,3.16796104 5.78027344,4.7109375 C5.78027344,6.28125785 5.48926072,7.41405902 4.90722656,8.109375 C4.3251924,8.80469098 3.56738748,9.15234375 2.63378906,9.15234375 C1.9619107,9.15234375 1.41894738,8.9736346 1.00488281,8.61621094 C0.590818242,8.25878728 0.325195898,7.72461293 0.208007812,7.01367188 Z M3.93457031,3.41601562 C3.93457031,2.88476297 3.81250122,2.47265771 3.56835937,2.1796875 C3.32421753,1.88671729 3.04199379,1.74023438 2.72167969,1.74023438 C2.41699066,1.74023438 2.16406351,1.86035036 1.96289062,2.10058594 C1.76171774,2.34082151 1.66113281,2.73437227 1.66113281,3.28125 C1.66113281,3.83594027 1.77050672,4.24316276 1.98925781,4.50292969 C2.20800891,4.76269661 2.48144367,4.89257812 2.80957031,4.89257812 C3.12597814,4.89257812 3.39257704,4.76757937 3.609375,4.51757812 C3.82617296,4.26757688 3.93457031,3.90039305 3.93457031,3.41601562 Z"></path>
            </g>
        </g>
    </g>
</svg>