<svg width="24" height="24" viewBox="0 0 24 24" xmlns="http://www.w3.org/2000/svg"><title>small-d20-17</title><g fill-rule="evenodd"><path d="M5.271 5.932l6.215-1.043.016-.026.007-1.459-.004-.828L5.27 5.932zm7.241-3.347l-.003.82.006 1.477 6.193 1.039-6.196-3.336zM21 9.752l-2.33 5.407 2.33 1.09V9.751zm-.504 7.365l-2.349-1.099-3.95 4.49 6.299-3.391zM9.828 20.52L5.87 16.023l-2.353 1.1 6.311 3.398zM3 16.261l2.347-1.097L3 9.717v6.544zM12 0l11 6v12l-11 6-11-6V6l11-6zM7.356 16h-.174l4.825 5.483L16.83 16h-.187a6 6 0 0 0 1.098-2.054l.207.359 3.013-6.992-7.805-1.31.202.352a6.018 6.018 0 0 0-2.718 0l.197-.343-7.783 1.306L6.06 14.29l.199-.344c.23.76.608 1.455 1.098 2.054z" fill-rule="nonzero"/><path d="M11.173 9.057v-1.53h5.63v1.196c-.464.457-.937 1.113-1.417 1.968a11.48 11.48 0 0 0-1.099 2.728c-.252.963-.376 1.823-.372 2.581h-1.588c.027-1.188.273-2.398.736-3.633a12.106 12.106 0 0 1 1.854-3.31h-3.744zM10.386 16H8.739V9.795a5.676 5.676 0 0 1-2.127 1.248V9.549c.43-.14.897-.407 1.4-.8.505-.393.85-.85 1.038-1.374h1.336V16z"/></g></svg>