<?xml version="1.0" encoding="UTF-8"?>
<svg width="24px" height="24px" viewBox="0 0 24 24" version="1.1" xmlns="http://www.w3.org/2000/svg" xmlns:xlink="http://www.w3.org/1999/xlink">
    <!-- Generator: sketchtool 42 (36781) - http://www.bohemiancoding.com/sketch -->
    <title>small-d8-6</title>
    <desc>Created with sketchtool.</desc>
    <defs></defs>
    <g id="Font" stroke="none" stroke-width="1" fill="none" fill-rule="evenodd">
        <g id="small-d8-6" fill="#000000">
            <g id="d8-outline" fill-rule="nonzero">
                <path d="M3.60769515,7.15470054 L3.60769515,16.8452995 L12,21.6905989 L20.3923048,16.8452995 L20.3923048,7.15470054 L12,2.30940108 L3.60769515,7.15470054 Z M12,0 L22.3923048,6 L22.3923048,18 L12,24 L1.60769515,18 L1.60769515,6 L12,0 Z" id="Polygon-6"></path>
                <path d="M5.51594688,11.7411201 L2.41307184,17.3561791 C2.2283721,17.6904174 2.47139117,18.0999624 2.85326217,18.0980046 L9.19542485,18.065488 C8.65000945,17.8042271 8.14669943,17.4691326 7.69844039,17.07315 L3.70067283,17.0936467 L5.64553224,13.5741688 C5.55019492,13.1312045 5.5,12.671464 5.5,12.1999998 C5.5,12.0457256 5.50537464,11.8927067 5.51594688,11.7411201 Z M8.16127125,6.95405911 L11.5623732,0.799319583 C11.7524425,0.455364248 12.2467571,0.455026632 12.4372961,0.798722013 L15.8572777,6.9677058 C15.3632012,6.60286238 14.8156066,6.30632885 14.2284384,6.09204953 L12.0007052,2.07365069 L9.78230283,6.08814043 C9.19841491,6.30005109 8.65351164,6.59325006 8.16127125,6.95405911 Z M18.4810985,11.7005697 L21.5641953,17.2618785 C21.7483987,17.5941458 21.5093688,18.0023538 21.1294627,18.0043016 L14.8644605,18.0364226 C15.4070006,17.7696447 15.9069235,17.4294452 16.3512671,17.0287865 L20.2804149,17.0086415 L18.3605527,13.5455824 C18.4519397,13.1114358 18.5,12.6613303 18.5,12.1999998 C18.5,12.0319575 18.4936232,11.8654045 18.4810985,11.7005697 Z" id="Combined-Shape"></path>
            </g>
            <g id="6" transform="translate(9.000000, 7.000000)">
                <path d="M5.75097656,2.51367188 L4.15722656,2.68945312 C4.11816387,2.36132648 4.01660238,2.11914141 3.85253906,1.96289062 C3.68847574,1.80663984 3.47558725,1.72851562 3.21386719,1.72851562 C2.8662092,1.72851562 2.57226683,1.88476406 2.33203125,2.19726562 C2.09179567,2.50976719 1.94043,3.16015131 1.87792969,4.1484375 C2.28808799,3.66406008 2.79784852,3.421875 3.40722656,3.421875 C4.09473,3.421875 4.6835913,3.68359113 5.17382812,4.20703125 C5.66406495,4.73047137 5.90917969,5.40624586 5.90917969,6.234375 C5.90917969,7.11328564 5.65136977,7.81835672 5.13574219,8.34960938 C4.62011461,8.88086203 3.95801186,9.14648438 3.14941406,9.14648438 C2.28222223,9.14648438 1.56933873,8.80957368 1.01074219,8.13574219 C0.452145645,7.46191069 0.172851562,6.35742955 0.172851562,4.82226562 C0.172851562,3.248039 0.463864277,2.11328473 1.04589844,1.41796875 C1.6279326,0.722652773 2.38378441,0.375 3.31347656,0.375 C3.96582357,0.375 4.50585724,0.557615361 4.93359375,0.922851562 C5.36133026,1.28808776 5.63378848,1.8183559 5.75097656,2.51367188 Z M2.01855469,6.10546875 C2.01855469,6.64062768 2.14160033,7.05370948 2.38769531,7.34472656 C2.63379029,7.63574364 2.91503748,7.78125 3.23144531,7.78125 C3.53613434,7.78125 3.79003805,7.66211057 3.99316406,7.42382812 C4.19629008,7.18554568 4.29785156,6.79492459 4.29785156,6.25195312 C4.29785156,5.69335658 4.18847766,5.28418099 3.96972656,5.02441406 C3.75097547,4.76464714 3.4775407,4.63476562 3.14941406,4.63476562 C2.83300623,4.63476562 2.56543078,4.75878782 2.34667969,5.00683594 C2.12792859,5.25488405 2.01855469,5.62109133 2.01855469,6.10546875 Z"></path>
            </g>
        </g>
    </g>
</svg>