<?xml version="1.0" encoding="UTF-8"?>
<svg width="24px" height="24px" viewBox="0 0 24 24" version="1.1" xmlns="http://www.w3.org/2000/svg" xmlns:xlink="http://www.w3.org/1999/xlink">
    <!-- Generator: sketchtool 42 (36781) - http://www.bohemiancoding.com/sketch -->
    <title>small-d8-4</title>
    <desc>Created with sketchtool.</desc>
    <defs></defs>
    <g id="Font" stroke="none" stroke-width="1" fill="none" fill-rule="evenodd">
        <g id="small-d8-4" fill="#000000">
            <g id="d8-outline" fill-rule="nonzero">
                <path d="M3.60769515,7.15470054 L3.60769515,16.8452995 L12,21.6905989 L20.3923048,16.8452995 L20.3923048,7.15470054 L12,2.30940108 L3.60769515,7.15470054 Z M12,0 L22.3923048,6 L22.3923048,18 L12,24 L1.60769515,18 L1.60769515,6 L12,0 Z" id="Polygon-6"></path>
                <path d="M5.51594688,11.7411201 L2.41307184,17.3561791 C2.2283721,17.6904174 2.47139117,18.0999624 2.85326217,18.0980046 L9.19542485,18.065488 C8.65000945,17.8042271 8.14669943,17.4691326 7.69844039,17.07315 L3.70067283,17.0936467 L5.64553224,13.5741688 C5.55019492,13.1312045 5.5,12.671464 5.5,12.1999998 C5.5,12.0457256 5.50537464,11.8927067 5.51594688,11.7411201 Z M8.16127125,6.95405911 L11.5623732,0.799319583 C11.7524425,0.455364248 12.2467571,0.455026632 12.4372961,0.798722013 L15.8572777,6.9677058 C15.3632012,6.60286238 14.8156066,6.30632885 14.2284384,6.09204953 L12.0007052,2.07365069 L9.78230283,6.08814043 C9.19841491,6.30005109 8.65351164,6.59325006 8.16127125,6.95405911 Z M18.4810985,11.7005697 L21.5641953,17.2618785 C21.7483987,17.5941458 21.5093688,18.0023538 21.1294627,18.0043016 L14.8644605,18.0364226 C15.4070006,17.7696447 15.9069235,17.4294452 16.3512671,17.0287865 L20.2804149,17.0086415 L18.3605527,13.5455824 C18.4519397,13.1114358 18.5,12.6613303 18.5,12.1999998 C18.5,12.0319575 18.4936232,11.8654045 18.4810985,11.7005697 Z" id="Combined-Shape"></path>
            </g>
            <g id="4" transform="translate(8.000000, 7.000000)">
                <path d="M4.40136719,9 L4.40136719,7.27148438 L0.885742188,7.27148438 L0.885742188,5.83007812 L4.61230469,0.375 L5.99511719,0.375 L5.99511719,5.82421875 L7.06152344,5.82421875 L7.06152344,7.27148438 L5.99511719,7.27148438 L5.99511719,9 L4.40136719,9 Z M4.40136719,5.82421875 L4.40136719,2.88867188 L2.42675781,5.82421875 L4.40136719,5.82421875 Z"></path>
            </g>
        </g>
    </g>
</svg>