<?xml version="1.0" encoding="UTF-8"?>
<svg width="24px" height="24px" viewBox="0 0 24 24" version="1.1" xmlns="http://www.w3.org/2000/svg" xmlns:xlink="http://www.w3.org/1999/xlink">
    <!-- Generator: sketchtool 42 (36781) - http://www.bohemiancoding.com/sketch -->
    <title>small-d10-3</title>
    <desc>Created with sketchtool.</desc>
    <defs></defs>
    <g id="Font" stroke="none" stroke-width="1" fill="none" fill-rule="evenodd">
        <g id="small-d10-3" fill="#000000">
            <g id="d10-outline" fill-rule="nonzero">
                <path d="M2.60769515,10.9056373 L2.60769515,16.7929155 L12,21.7395729 L21.3923048,16.7929155 L21.3923048,10.9056373 L12,2.66120828 L2.60769515,10.9056373 Z M12,0 L23.3923048,10 L23.3923048,18 L12,24 L0.607695155,18 L0.607695155,10 L12,0 Z" id="Polygon-6"></path>
                <path d="M6.51814332,15.4427789 L5.76935254,15.14966 L6.15911437,14.378513 C6.05505154,13.9358935 6,13.4743757 6,13 C6,12.8050565 6.00929698,12.6122844 6.02747176,12.4221029 L4.68081954,15.0864656 L1.4915091,16.9213873 C1.25215418,17.0590965 1.16975409,17.3647674 1.30746333,17.6041223 C1.44517257,17.8434773 1.75084347,17.9258774 1.99019839,17.7881681 L5.13875045,15.9766961 L7.41176384,16.8664814 C7.0510673,16.4388923 6.74905428,15.9601853 6.51814332,15.4427789 Z M9.64619134,7.47930216 L12,2.82227211 L14.3538087,7.47930216 C14.9636064,7.73963028 15.5215162,8.09803851 16.0077154,8.53470443 L12.4486487,1.49306116 C12.4251447,1.44520653 12.3939172,1.40089478 12.3556471,1.36219876 C12.2029584,1.21114663 11.9713698,1.16807291 11.7744564,1.26759914 C11.7249183,1.29263721 11.6813455,1.32479445 11.6443529,1.36219876 C11.6109554,1.39518458 11.5787981,1.43875741 11.5537601,1.48829545 L7.99228456,8.53470443 C8.47848382,8.09803851 9.03639356,7.73963028 9.64619134,7.47930216 Z M17.8408856,14.378513 L18.2306475,15.14966 L17.4818567,15.4427789 C17.2509457,15.9601853 16.9489327,16.4388923 16.5882362,16.8664814 L18.8612496,15.9766961 L22.0098016,17.7881681 C22.2491565,17.9258774 22.5548274,17.8434773 22.6925367,17.6041223 C22.8302459,17.3647674 22.7478458,17.0590965 22.5084909,16.9213873 L19.3191805,15.0864656 L17.9725282,12.4221029 C17.990703,12.6122844 18,12.8050565 18,13 C18,13.4743757 17.9449485,13.9358935 17.8408856,14.378513 Z M12.5060249,18.978963 L12.5060249,22.4831449 C12.5060249,22.7592873 12.2821673,22.9831449 12.0060249,22.9831449 C12.0040138,22.9831449 12.0020055,22.9831331 12,22.9831094 C11.9979945,22.9831331 11.9959862,22.9831449 11.9939751,22.9831449 C11.7178327,22.9831449 11.4939751,22.7592873 11.4939751,22.4831449 L11.4939751,18.978963 C11.6608037,18.9928943 11.829572,19 12,19 C12.170428,19 12.3391963,18.9928943 12.5060249,18.978963 Z" id="Combined-Shape"></path>
            </g>
            <g id="3" transform="translate(9.000000, 8.000000)">
                <path d="M0.114257812,6.72070312 L1.70800781,6.52734375 C1.75878932,6.93359578 1.8955067,7.24413955 2.11816406,7.45898438 C2.34082143,7.6738292 2.61034998,7.78125 2.92675781,7.78125 C3.26660326,7.78125 3.55273321,7.65234504 3.78515625,7.39453125 C4.01757929,7.13671746 4.13378906,6.78906469 4.13378906,6.3515625 C4.13378906,5.93749793 4.02246205,5.60937621 3.79980469,5.3671875 C3.57714732,5.12499879 3.30566566,5.00390625 2.98535156,5.00390625 C2.77441301,5.00390625 2.5224624,5.04492146 2.22949219,5.12695312 L2.41113281,3.78515625 C2.85644754,3.79687506 3.19628789,3.70019634 3.43066406,3.49511719 C3.66504023,3.29003804 3.78222656,3.01757982 3.78222656,2.67773438 C3.78222656,2.38867043 3.69628992,2.15820398 3.52441406,1.98632812 C3.3525382,1.81445227 3.12402486,1.72851562 2.83886719,1.72851562 C2.55761578,1.72851562 2.31738381,1.8261709 2.11816406,2.02148438 C1.91894432,2.21679785 1.79785178,2.50195125 1.75488281,2.87695312 L0.237304688,2.61914062 C0.342773965,2.09960678 0.501952061,1.68457187 0.71484375,1.37402344 C0.927735439,1.06347501 1.22460747,0.819336826 1.60546875,0.641601562 C1.98633003,0.463866299 2.41308357,0.375 2.88574219,0.375 C3.69433998,0.375 4.342771,0.632809922 4.83105469,1.1484375 C5.23340045,1.57031461 5.43457031,2.04687234 5.43457031,2.578125 C5.43457031,3.33203502 5.02246506,3.9335915 4.19824219,4.3828125 C4.69043215,4.48828178 5.0839829,4.72460754 5.37890625,5.09179688 C5.6738296,5.45898621 5.82128906,5.90234115 5.82128906,6.421875 C5.82128906,7.17578502 5.54590119,7.81835672 4.99511719,8.34960938 C4.44433318,8.88086203 3.75879316,9.14648438 2.93847656,9.14648438 C2.16112893,9.14648438 1.51660412,8.9228538 1.00488281,8.47558594 C0.493161504,8.02831808 0.196289473,7.44336299 0.114257812,6.72070312 Z"></path>
            </g>
        </g>
    </g>
</svg>