<svg width="24" height="24" viewBox="0 0 24 24" xmlns="http://www.w3.org/2000/svg"><title>small-d8-1</title><g fill-rule="evenodd"><path d="M20.392 15.148V7.155l-6.517-3.763 1.982 3.576a6.485 6.485 0 0 0-1.629-.876l-2.035-3.671L12 2.309l-.19.11-2.028 3.67a6.484 6.484 0 0 0-1.62.865l1.97-3.566-6.524 3.767v8.04l1.908-3.454a6.595 6.595 0 0 0 .13 1.833l-1.864 3.372.253.146 3.663-.019a6.51 6.51 0 0 0 1.497.992l-3.443.018L12 21.691l6.36-3.673-3.496.018a6.512 6.512 0 0 0 1.487-1.007l3.757-.02.13-.075-1.877-3.388a6.527 6.527 0 0 0 .12-1.845l1.911 3.447zM1.608 6L12 0l10.392 6v12L12 24 1.608 18V6z"/><path d="M13.386 16h-1.647V9.795a5.676 5.676 0 0 1-2.127 1.248V9.549c.43-.14.897-.407 1.4-.8.505-.393.85-.85 1.038-1.374h1.336V16z"/></g></svg>