<svg width="24" height="24" viewBox="0 0 24 24" xmlns="http://www.w3.org/2000/svg"><title>small-d8-6</title><g fill-rule="evenodd"><path d="M20.392 15.148V7.155l-6.517-3.763 1.982 3.576a6.485 6.485 0 0 0-1.629-.876l-2.035-3.671L12 2.309l-.19.11-2.028 3.67a6.484 6.484 0 0 0-1.62.865l1.97-3.566-6.524 3.767v8.04l1.908-3.454a6.595 6.595 0 0 0 .13 1.833l-1.864 3.372.253.146 3.663-.019a6.51 6.51 0 0 0 1.497.992l-3.443.018L12 21.691l6.36-3.673-3.496.018a6.512 6.512 0 0 0 1.487-1.007l3.757-.02.13-.075-1.877-3.388a6.527 6.527 0 0 0 .12-1.845l1.911 3.447zM1.608 6L12 0l10.392 6v12L12 24 1.608 18V6z"/><path d="M14.751 9.514l-1.594.175c-.039-.328-.14-.57-.304-.726-.165-.156-.377-.234-.64-.234-.347 0-.64.156-.881.468-.24.313-.392.963-.454 1.951.41-.484.92-.726 1.53-.726.687 0 1.276.262 1.766.785s.735 1.2.735 2.027c0 .88-.258 1.584-.773 2.116-.516.53-1.178.796-1.987.796-.867 0-1.58-.336-2.138-1.01-.559-.674-.838-1.779-.838-3.314 0-1.574.29-2.709.873-3.404.582-.695 1.338-1.043 2.267-1.043.653 0 1.193.183 1.62.548.428.365.7.895.818 1.59zm-3.732 3.591c0 .536.123.949.369 1.24.246.29.527.436.843.436a.96.96 0 0 0 .762-.357c.203-.238.305-.63.305-1.172 0-.559-.11-.968-.328-1.228a1.03 1.03 0 0 0-.82-.39 1.03 1.03 0 0 0-.803.373c-.22.248-.328.614-.328 1.098z"/></g></svg>