<?xml version="1.0" encoding="UTF-8"?>
<svg width="24px" height="24px" viewBox="0 0 24 24" version="1.1" xmlns="http://www.w3.org/2000/svg" xmlns:xlink="http://www.w3.org/1999/xlink">
    <!-- Generator: sketchtool 42 (36781) - http://www.bohemiancoding.com/sketch -->
    <title>small-d20-18</title>
    <desc>Created with sketchtool.</desc>
    <defs></defs>
    <g id="Font" stroke="none" stroke-width="1" fill="none" fill-rule="evenodd">
        <g id="small-d20-18" fill="#000000">
            <g id="d20-outline" transform="translate(1.000000, 0.000000)">
                <path d="M2,7.15470054 L2,16.8452995 L11,21.6905989 L20,16.8452995 L20,7.15470054 L11,2.30940108 L2,7.15470054 Z M11,0 L22,6 L22,18 L11,24 L7.05086318e-15,18 L0,6 L11,0 Z" id="Polygon-3" fill-rule="nonzero"></path>
                <path d="M6.35649368,16 L6.18202337,16 L11.0065083,21.4834133 L15.8309932,16 L15.6435063,16 C16.1343296,15.4009348 16.5115071,14.7051681 16.7421108,13.9456277 L16.9494964,14.30483 L19.9621518,7.31278939 L12.1567015,6.0034658 L12.3594693,6.35466982 C11.922661,6.25348455 11.4675765,6.19999981 11,6.19999981 C10.5324235,6.19999981 10.077339,6.25348455 9.64053074,6.35466982 L9.83829237,6.01213663 L2.05519469,7.31771068 L5.05922274,14.289728 L5.25788919,13.9456277 C5.48849294,14.7051681 5.8656704,15.4009348 6.35649368,16 Z M10.486485,4.88943416 L10.5020352,4.86250025 L10.5086793,3.40444809 L10.5000115,1.50227848 C10.4987532,1.22613897 10.7215884,1.00126361 10.9977279,1.0000053 C11.0491508,0.99977098 11.098796,1.00730781 11.1455504,1.02151287 C11.3604364,1.07834712 11.518395,1.27458472 11.517335,1.50719978 L11.5086897,3.40444809 L11.5154222,4.88192299 L20.756329,6.43203691 C21.0762487,6.48570178 21.2611633,6.82508546 21.1328019,7.12299808 L17.6704245,15.1587936 L20.8854491,16.6625463 C21.4893257,16.9449954 21.0656519,17.8508103 20.4617754,17.5683611 L17.1471088,16.0180032 L11.4644168,22.4768376 C11.4364251,22.5327091 11.3974209,22.584232 11.3476187,22.6280496 C11.2131527,22.7463571 11.0329954,22.7794359 10.8732138,22.7315093 C10.8001397,22.7124184 10.7302982,22.6764201 10.6697278,22.6231283 C10.6275419,22.5860118 10.5931038,22.5433665 10.566544,22.4972326 L4.87023774,16.0229245 L1.55557114,17.5732824 C0.951694563,17.8557316 0.528020819,16.9499167 1.13189739,16.6674676 L4.34692201,15.1637149 L0.884544649,7.12791938 C0.756183255,6.83000676 0.941097784,6.49062308 1.26101755,6.4369582 L10.486485,4.88943416 Z" id="Combined-Shape" fill-rule="evenodd"></path>
            </g>
            <g id="8" transform="translate(11.000000, 7.000000)">
                <path d="M1.58496094,4.36523438 C1.15917756,4.18554598 0.849610342,3.93847813 0.65625,3.62402344 C0.462889658,3.30956874 0.366210938,2.96484562 0.366210938,2.58984375 C0.366210938,1.94921555 0.589841514,1.41992396 1.03710938,1.00195312 C1.48437724,0.583982285 2.12011307,0.375 2.94433594,0.375 C3.76074627,0.375 4.39452899,0.583982285 4.84570312,1.00195312 C5.29687726,1.41992396 5.52246094,1.94921555 5.52246094,2.58984375 C5.52246094,2.98828324 5.41894635,3.34277188 5.21191406,3.65332031 C5.00488178,3.96386874 4.71386906,4.20117105 4.33886719,4.36523438 C4.81543207,4.55664158 5.17773313,4.83593566 5.42578125,5.203125 C5.67382937,5.57031434 5.79785156,5.99413822 5.79785156,6.47460938 C5.79785156,7.26758209 5.5449244,7.91210689 5.0390625,8.40820312 C4.5332006,8.90429936 3.86035576,9.15234375 3.02050781,9.15234375 C2.23925391,9.15234375 1.58886979,8.94726768 1.06933594,8.53710938 C0.456051621,8.05273195 0.149414062,7.38867609 0.149414062,6.54492188 C0.149414062,6.0800758 0.264647285,5.65332226 0.495117188,5.26464844 C0.72558709,4.87597462 1.08886471,4.57617293 1.58496094,4.36523438 Z M1.92480469,2.70703125 C1.92480469,3.03515789 2.0175772,3.29101471 2.203125,3.47460938 C2.3886728,3.65820404 2.63574064,3.75 2.94433594,3.75 C3.2568375,3.75 3.506835,3.65722749 3.69433594,3.47167969 C3.88183688,3.28613188 3.97558594,3.02929852 3.97558594,2.70117188 C3.97558594,2.39257658 3.88281343,2.14550874 3.69726562,1.95996094 C3.51171782,1.77441313 3.26660309,1.68164062 2.96191406,1.68164062 C2.64550623,1.68164062 2.39355563,1.77538969 2.20605469,1.96289062 C2.01855375,2.15039156 1.92480469,2.39843596 1.92480469,2.70703125 Z M1.77246094,6.38671875 C1.77246094,6.83984602 1.88867071,7.19335811 2.12109375,7.44726562 C2.35351679,7.70117314 2.64355295,7.828125 2.99121094,7.828125 C3.33105639,7.828125 3.61230357,7.70605591 3.83496094,7.46191406 C4.0576183,7.21777222 4.16894531,6.86523668 4.16894531,6.40429688 C4.16894531,6.00195111 4.0556652,5.67871216 3.82910156,5.43457031 C3.60253793,5.19042847 3.31543143,5.06835938 2.96777344,5.06835938 C2.56542768,5.06835938 2.26562599,5.20702986 2.06835938,5.484375 C1.87109276,5.76172014 1.77246094,6.06249838 1.77246094,6.38671875 Z"></path>
            </g>
            <g id="1" transform="translate(6.000000, 7.000000)">
                <path d="M4.38574219,9 L2.73925781,9 L2.73925781,2.79492188 C2.1376923,3.35742469 1.42871502,3.77343615 0.612304688,4.04296875 L0.612304688,2.54882812 C1.04199434,2.40820242 1.50878654,2.14160353 2.01269531,1.74902344 C2.51660408,1.35644335 2.86230375,0.898440117 3.04980469,0.375 L4.38574219,0.375 L4.38574219,9 Z"></path>
            </g>
        </g>
    </g>
</svg>