<?xml version="1.0" encoding="UTF-8"?>
<svg width="24px" height="24px" viewBox="0 0 24 24" version="1.1" xmlns="http://www.w3.org/2000/svg" xmlns:xlink="http://www.w3.org/1999/xlink">
    <!-- Generator: sketchtool 42 (36781) - http://www.bohemiancoding.com/sketch -->
    <title>small-d10-10</title>
    <desc>Created with sketchtool.</desc>
    <defs></defs>
    <g id="Font" stroke="none" stroke-width="1" fill="none" fill-rule="evenodd">
        <g id="small-d10-10" fill="#000000">
            <g id="d10-outline" fill-rule="nonzero">
                <path d="M2.60769515,10.9056373 L2.60769515,16.7929155 L12,21.7395729 L21.3923048,16.7929155 L21.3923048,10.9056373 L12,2.66120828 L2.60769515,10.9056373 Z M12,0 L23.3923048,10 L23.3923048,18 L12,24 L0.607695155,18 L0.607695155,10 L12,0 Z" id="Polygon-6"></path>
                <path d="M6.51814332,15.4427789 L5.76935254,15.14966 L6.15911437,14.378513 C6.05505154,13.9358935 6,13.4743757 6,13 C6,12.8050565 6.00929698,12.6122844 6.02747176,12.4221029 L4.68081954,15.0864656 L1.4915091,16.9213873 C1.25215418,17.0590965 1.16975409,17.3647674 1.30746333,17.6041223 C1.44517257,17.8434773 1.75084347,17.9258774 1.99019839,17.7881681 L5.13875045,15.9766961 L7.41176384,16.8664814 C7.0510673,16.4388923 6.74905428,15.9601853 6.51814332,15.4427789 Z M9.64619134,7.47930216 L12,2.82227211 L14.3538087,7.47930216 C14.9636064,7.73963028 15.5215162,8.09803851 16.0077154,8.53470443 L12.4486487,1.49306116 C12.4251447,1.44520653 12.3939172,1.40089478 12.3556471,1.36219876 C12.2029584,1.21114663 11.9713698,1.16807291 11.7744564,1.26759914 C11.7249183,1.29263721 11.6813455,1.32479445 11.6443529,1.36219876 C11.6109554,1.39518458 11.5787981,1.43875741 11.5537601,1.48829545 L7.99228456,8.53470443 C8.47848382,8.09803851 9.03639356,7.73963028 9.64619134,7.47930216 Z M17.8408856,14.378513 L18.2306475,15.14966 L17.4818567,15.4427789 C17.2509457,15.9601853 16.9489327,16.4388923 16.5882362,16.8664814 L18.8612496,15.9766961 L22.0098016,17.7881681 C22.2491565,17.9258774 22.5548274,17.8434773 22.6925367,17.6041223 C22.8302459,17.3647674 22.7478458,17.0590965 22.5084909,16.9213873 L19.3191805,15.0864656 L17.9725282,12.4221029 C17.990703,12.6122844 18,12.8050565 18,13 C18,13.4743757 17.9449485,13.9358935 17.8408856,14.378513 Z M12.5060249,18.978963 L12.5060249,22.4831449 C12.5060249,22.7592873 12.2821673,22.9831449 12.0060249,22.9831449 C12.0040138,22.9831449 12.0020055,22.9831331 12,22.9831094 C11.9979945,22.9831331 11.9959862,22.9831449 11.9939751,22.9831449 C11.7178327,22.9831449 11.4939751,22.7592873 11.4939751,22.4831449 L11.4939751,18.978963 C11.6608037,18.9928943 11.829572,19 12,19 C12.170428,19 12.3391963,18.9928943 12.5060249,18.978963 Z" id="Combined-Shape"></path>
            </g>
            <g id="0" transform="translate(11.000000, 8.000000)">
                <path d="M2.95605469,0.375 C3.7880901,0.375 4.43847422,0.671872031 4.90722656,1.265625 C5.46582311,1.96875352 5.74511719,3.13475748 5.74511719,4.76367188 C5.74511719,6.38868 5.46387,7.55663707 4.90136719,8.26757812 C4.43652111,8.85351855 3.7880901,9.14648438 2.95605469,9.14648438 C2.12011301,9.14648438 1.44629162,8.82519853 0.934570313,8.18261719 C0.422849004,7.54003585 0.166992188,6.39453949 0.166992188,4.74609375 C0.166992188,3.12889816 0.448239375,1.9648473 1.01074219,1.25390625 C1.47558826,0.66796582 2.12401928,0.375 2.95605469,0.375 Z M2.95605469,1.74023438 C2.75683494,1.74023438 2.57910234,1.8037103 2.42285156,1.93066406 C2.26660078,2.05761782 2.14550824,2.28515461 2.05957031,2.61328125 C1.9462885,3.03906463 1.88964844,3.75585434 1.88964844,4.76367188 C1.88964844,5.77148941 1.94042918,6.4638653 2.04199219,6.84082031 C2.1435552,7.21777532 2.2714836,7.46874937 2.42578125,7.59375 C2.5800789,7.71875063 2.75683494,7.78125 2.95605469,7.78125 C3.15527443,7.78125 3.33300703,7.71777407 3.48925781,7.59082031 C3.64550859,7.46386655 3.76660113,7.23632977 3.85253906,6.90820312 C3.96582088,6.48632602 4.02246094,5.77148941 4.02246094,4.76367188 C4.02246094,3.75585434 3.9716802,3.06347845 3.87011719,2.68652344 C3.76855418,2.30956843 3.64062577,2.05761782 3.48632812,1.93066406 C3.33203048,1.8037103 3.15527443,1.74023438 2.95605469,1.74023438 Z"></path>
            </g>
            <g id="1" transform="translate(6.000000, 8.000000)">
                <path d="M4.38574219,9 L2.73925781,9 L2.73925781,2.79492188 C2.1376923,3.35742469 1.42871502,3.77343615 0.612304688,4.04296875 L0.612304688,2.54882812 C1.04199434,2.40820242 1.50878654,2.14160353 2.01269531,1.74902344 C2.51660408,1.35644335 2.86230375,0.898440117 3.04980469,0.375 L4.38574219,0.375 L4.38574219,9 Z"></path>
            </g>
        </g>
    </g>
</svg>