<svg width="24" height="24" viewBox="0 0 24 24" xmlns="http://www.w3.org/2000/svg"><title>small-d10-8</title><g fill-rule="evenodd"><path d="M11.494 21.473v-3.009l-6.355-2.487-1.95 1.122 8.305 4.374zm7.367-5.496l-6.355 2.487v3.01l8.306-4.375-1.95-1.122zm-.63-.827L12 2.822 5.77 15.15 12 17.589l6.23-2.44zM10.132 4.3l-7.524 6.606v5.373l2.073-1.193 5.451-10.785zm3.736 0l5.451 10.786 2.073 1.193v-5.373L13.868 4.3zM12 0l11.392 10v8L12 24 .608 18v-8L12 0z"/><path d="M10.585 12.365c-.426-.18-.735-.427-.929-.741a1.937 1.937 0 0 1-.29-1.034c0-.64.224-1.17.671-1.588.447-.418 1.083-.627 1.907-.627.817 0 1.45.209 1.902.627.45.418.676.947.676 1.588 0 .398-.103.753-.31 1.063-.207.31-.498.548-.873.712.476.192.839.47 1.087.838.248.367.372.791.372 1.272 0 .793-.253 1.437-.759 1.933s-1.179.744-2.018.744c-.782 0-1.432-.205-1.952-.615-.613-.484-.92-1.148-.92-1.992 0-.465.116-.892.346-1.28.23-.389.594-.689 1.09-.9zm.34-1.658c0 .328.093.584.278.768.186.183.433.275.741.275.313 0 .563-.093.75-.278.188-.186.282-.443.282-.77 0-.31-.093-.556-.279-.742-.185-.186-.43-.278-.735-.278-.316 0-.568.093-.756.28-.187.188-.281.436-.281.745zm-.153 3.68c0 .453.117.806.35 1.06.232.254.522.381.87.381.34 0 .62-.122.843-.366.223-.244.334-.597.334-1.058 0-.402-.113-.725-.34-.97a1.124 1.124 0 0 0-.861-.366c-.403 0-.702.139-.9.416a1.525 1.525 0 0 0-.296.903z"/></g></svg>