<?xml version="1.0" encoding="UTF-8"?>
<svg width="24px" height="24px" viewBox="0 0 24 24" version="1.1" xmlns="http://www.w3.org/2000/svg" xmlns:xlink="http://www.w3.org/1999/xlink">
    <!-- Generator: sketchtool 42 (36781) - http://www.bohemiancoding.com/sketch -->
    <title>small-d20-16</title>
    <desc>Created with sketchtool.</desc>
    <defs></defs>
    <g id="Font" stroke="none" stroke-width="1" fill="none" fill-rule="evenodd">
        <g id="small-d20-16" fill="#000000">
            <g id="d20-outline" transform="translate(1.000000, 0.000000)">
                <path d="M2,7.15470054 L2,16.8452995 L11,21.6905989 L20,16.8452995 L20,7.15470054 L11,2.30940108 L2,7.15470054 Z M11,0 L22,6 L22,18 L11,24 L7.05086318e-15,18 L0,6 L11,0 Z" id="Polygon-3" fill-rule="nonzero"></path>
                <path d="M6.35649368,16 L6.18202337,16 L11.0065083,21.4834133 L15.8309932,16 L15.6435063,16 C16.1343296,15.4009348 16.5115071,14.7051681 16.7421108,13.9456277 L16.9494964,14.30483 L19.9621518,7.31278939 L12.1567015,6.0034658 L12.3594693,6.35466982 C11.922661,6.25348455 11.4675765,6.19999981 11,6.19999981 C10.5324235,6.19999981 10.077339,6.25348455 9.64053074,6.35466982 L9.83829237,6.01213663 L2.05519469,7.31771068 L5.05922274,14.289728 L5.25788919,13.9456277 C5.48849294,14.7051681 5.8656704,15.4009348 6.35649368,16 Z M10.486485,4.88943416 L10.5020352,4.86250025 L10.5086793,3.40444809 L10.5000115,1.50227848 C10.4987532,1.22613897 10.7215884,1.00126361 10.9977279,1.0000053 C11.0491508,0.99977098 11.098796,1.00730781 11.1455504,1.02151287 C11.3604364,1.07834712 11.518395,1.27458472 11.517335,1.50719978 L11.5086897,3.40444809 L11.5154222,4.88192299 L20.756329,6.43203691 C21.0762487,6.48570178 21.2611633,6.82508546 21.1328019,7.12299808 L17.6704245,15.1587936 L20.8854491,16.6625463 C21.4893257,16.9449954 21.0656519,17.8508103 20.4617754,17.5683611 L17.1471088,16.0180032 L11.4644168,22.4768376 C11.4364251,22.5327091 11.3974209,22.584232 11.3476187,22.6280496 C11.2131527,22.7463571 11.0329954,22.7794359 10.8732138,22.7315093 C10.8001397,22.7124184 10.7302982,22.6764201 10.6697278,22.6231283 C10.6275419,22.5860118 10.5931038,22.5433665 10.566544,22.4972326 L4.87023774,16.0229245 L1.55557114,17.5732824 C0.951694563,17.8557316 0.528020819,16.9499167 1.13189739,16.6674676 L4.34692201,15.1637149 L0.884544649,7.12791938 C0.756183255,6.83000676 0.941097784,6.49062308 1.26101755,6.4369582 L10.486485,4.88943416 Z" id="Combined-Shape" fill-rule="evenodd"></path>
            </g>
            <g id="6" transform="translate(11.000000, 7.000000)">
                <path d="M5.75097656,2.51367188 L4.15722656,2.68945312 C4.11816387,2.36132648 4.01660238,2.11914141 3.85253906,1.96289062 C3.68847574,1.80663984 3.47558725,1.72851562 3.21386719,1.72851562 C2.8662092,1.72851562 2.57226683,1.88476406 2.33203125,2.19726562 C2.09179567,2.50976719 1.94043,3.16015131 1.87792969,4.1484375 C2.28808799,3.66406008 2.79784852,3.421875 3.40722656,3.421875 C4.09473,3.421875 4.6835913,3.68359113 5.17382812,4.20703125 C5.66406495,4.73047137 5.90917969,5.40624586 5.90917969,6.234375 C5.90917969,7.11328564 5.65136977,7.81835672 5.13574219,8.34960938 C4.62011461,8.88086203 3.95801186,9.14648438 3.14941406,9.14648438 C2.28222223,9.14648438 1.56933873,8.80957368 1.01074219,8.13574219 C0.452145645,7.46191069 0.172851562,6.35742955 0.172851562,4.82226562 C0.172851562,3.248039 0.463864277,2.11328473 1.04589844,1.41796875 C1.6279326,0.722652773 2.38378441,0.375 3.31347656,0.375 C3.96582357,0.375 4.50585724,0.557615361 4.93359375,0.922851562 C5.36133026,1.28808776 5.63378848,1.8183559 5.75097656,2.51367188 Z M2.01855469,6.10546875 C2.01855469,6.64062768 2.14160033,7.05370948 2.38769531,7.34472656 C2.63379029,7.63574364 2.91503748,7.78125 3.23144531,7.78125 C3.53613434,7.78125 3.79003805,7.66211057 3.99316406,7.42382812 C4.19629008,7.18554568 4.29785156,6.79492459 4.29785156,6.25195312 C4.29785156,5.69335658 4.18847766,5.28418099 3.96972656,5.02441406 C3.75097547,4.76464714 3.4775407,4.63476562 3.14941406,4.63476562 C2.83300623,4.63476562 2.56543078,4.75878782 2.34667969,5.00683594 C2.12792859,5.25488405 2.01855469,5.62109133 2.01855469,6.10546875 Z"></path>
            </g>
            <g id="1" transform="translate(6.000000, 7.000000)">
                <path d="M4.38574219,9 L2.73925781,9 L2.73925781,2.79492188 C2.1376923,3.35742469 1.42871502,3.77343615 0.612304688,4.04296875 L0.612304688,2.54882812 C1.04199434,2.40820242 1.50878654,2.14160353 2.01269531,1.74902344 C2.51660408,1.35644335 2.86230375,0.898440117 3.04980469,0.375 L4.38574219,0.375 L4.38574219,9 Z"></path>
            </g>
        </g>
    </g>
</svg>