<?xml version="1.0" encoding="UTF-8"?>
<svg width="24px" height="24px" viewBox="0 0 24 24" version="1.1" xmlns="http://www.w3.org/2000/svg" xmlns:xlink="http://www.w3.org/1999/xlink">
    <!-- Generator: sketchtool 42 (36781) - http://www.bohemiancoding.com/sketch -->
    <title>small-d10-2</title>
    <desc>Created with sketchtool.</desc>
    <defs></defs>
    <g id="Font" stroke="none" stroke-width="1" fill="none" fill-rule="evenodd">
        <g id="small-d10-2" fill="#000000">
            <g id="d10-outline" fill-rule="nonzero">
                <path d="M2.60769515,10.9056373 L2.60769515,16.7929155 L12,21.7395729 L21.3923048,16.7929155 L21.3923048,10.9056373 L12,2.66120828 L2.60769515,10.9056373 Z M12,0 L23.3923048,10 L23.3923048,18 L12,24 L0.607695155,18 L0.607695155,10 L12,0 Z" id="Polygon-6"></path>
                <path d="M6.51814332,15.4427789 L5.76935254,15.14966 L6.15911437,14.378513 C6.05505154,13.9358935 6,13.4743757 6,13 C6,12.8050565 6.00929698,12.6122844 6.02747176,12.4221029 L4.68081954,15.0864656 L1.4915091,16.9213873 C1.25215418,17.0590965 1.16975409,17.3647674 1.30746333,17.6041223 C1.44517257,17.8434773 1.75084347,17.9258774 1.99019839,17.7881681 L5.13875045,15.9766961 L7.41176384,16.8664814 C7.0510673,16.4388923 6.74905428,15.9601853 6.51814332,15.4427789 Z M9.64619134,7.47930216 L12,2.82227211 L14.3538087,7.47930216 C14.9636064,7.73963028 15.5215162,8.09803851 16.0077154,8.53470443 L12.4486487,1.49306116 C12.4251447,1.44520653 12.3939172,1.40089478 12.3556471,1.36219876 C12.2029584,1.21114663 11.9713698,1.16807291 11.7744564,1.26759914 C11.7249183,1.29263721 11.6813455,1.32479445 11.6443529,1.36219876 C11.6109554,1.39518458 11.5787981,1.43875741 11.5537601,1.48829545 L7.99228456,8.53470443 C8.47848382,8.09803851 9.03639356,7.73963028 9.64619134,7.47930216 Z M17.8408856,14.378513 L18.2306475,15.14966 L17.4818567,15.4427789 C17.2509457,15.9601853 16.9489327,16.4388923 16.5882362,16.8664814 L18.8612496,15.9766961 L22.0098016,17.7881681 C22.2491565,17.9258774 22.5548274,17.8434773 22.6925367,17.6041223 C22.8302459,17.3647674 22.7478458,17.0590965 22.5084909,16.9213873 L19.3191805,15.0864656 L17.9725282,12.4221029 C17.990703,12.6122844 18,12.8050565 18,13 C18,13.4743757 17.9449485,13.9358935 17.8408856,14.378513 Z M12.5060249,18.978963 L12.5060249,22.4831449 C12.5060249,22.7592873 12.2821673,22.9831449 12.0060249,22.9831449 C12.0040138,22.9831449 12.0020055,22.9831331 12,22.9831094 C11.9979945,22.9831331 11.9959862,22.9831449 11.9939751,22.9831449 C11.7178327,22.9831449 11.4939751,22.7592873 11.4939751,22.4831449 L11.4939751,18.978963 C11.6608037,18.9928943 11.829572,19 12,19 C12.170428,19 12.3391963,18.9928943 12.5060249,18.978963 Z" id="Combined-Shape"></path>
            </g>
            <g id="2" transform="translate(8.000000, 8.000000)">
                <path d="M6.73339844,7.47070312 L6.73339844,9 L0.961914062,9 C1.02441438,8.42187211 1.2119125,7.87402603 1.52441406,7.35644531 C1.83691563,6.8388646 2.45409695,6.15234803 3.37597656,5.296875 C4.11816777,4.60546529 4.57324135,4.13671998 4.74121094,3.890625 C4.96777457,3.55077955 5.08105469,3.21484541 5.08105469,2.8828125 C5.08105469,2.51562316 4.98242286,2.23339942 4.78515625,2.03613281 C4.58788964,1.8388662 4.31543143,1.74023438 3.96777344,1.74023438 C3.62402172,1.74023438 3.35058695,1.84374896 3.14746094,2.05078125 C2.94433492,2.25781354 2.82714859,2.6015601 2.79589844,3.08203125 L1.15527344,2.91796875 C1.25293018,2.01171422 1.55956773,1.3613301 2.07519531,0.966796875 C2.59082289,0.572263652 3.2353477,0.375 4.00878906,0.375 C4.85644955,0.375 5.52245852,0.60351334 6.00683594,1.06054688 C6.49121336,1.51758041 6.73339844,2.0859341 6.73339844,2.765625 C6.73339844,3.15234568 6.66406319,3.52050606 6.52539062,3.87011719 C6.38671806,4.21972831 6.16699369,4.58593559 5.86621094,4.96875 C5.66699119,5.22265752 5.30761979,5.58788824 4.78808594,6.06445312 C4.26855209,6.54101801 3.93945382,6.85742109 3.80078125,7.01367188 C3.66210868,7.16992266 3.54980512,7.32226488 3.46386719,7.47070312 L6.73339844,7.47070312 Z"></path>
            </g>
        </g>
    </g>
</svg>