<?xml version="1.0" encoding="UTF-8"?>
<svg width="24px" height="24px" viewBox="0 0 24 24" version="1.1" xmlns="http://www.w3.org/2000/svg" xmlns:xlink="http://www.w3.org/1999/xlink">
    <!-- Generator: sketchtool 42 (36781) - http://www.bohemiancoding.com/sketch -->
    <title>small-d20-4</title>
    <desc>Created with sketchtool.</desc>
    <defs></defs>
    <g id="Font" stroke="none" stroke-width="1" fill="none" fill-rule="evenodd">
        <g id="small-d20-4" fill="#000000">
            <g id="d20-outline" transform="translate(1.000000, 0.000000)">
                <path d="M2,7.15470054 L2,16.8452995 L11,21.6905989 L20,16.8452995 L20,7.15470054 L11,2.30940108 L2,7.15470054 Z M11,0 L22,6 L22,18 L11,24 L7.05086318e-15,18 L0,6 L11,0 Z" id="Polygon-3" fill-rule="nonzero"></path>
                <path d="M6.35649368,16 L6.18202337,16 L11.0065083,21.4834133 L15.8309932,16 L15.6435063,16 C16.1343296,15.4009348 16.5115071,14.7051681 16.7421108,13.9456277 L16.9494964,14.30483 L19.9621518,7.31278939 L12.1567015,6.0034658 L12.3594693,6.35466982 C11.922661,6.25348455 11.4675765,6.19999981 11,6.19999981 C10.5324235,6.19999981 10.077339,6.25348455 9.64053074,6.35466982 L9.83829237,6.01213663 L2.05519469,7.31771068 L5.05922274,14.289728 L5.25788919,13.9456277 C5.48849294,14.7051681 5.8656704,15.4009348 6.35649368,16 Z M10.486485,4.88943416 L10.5020352,4.86250025 L10.5086793,3.40444809 L10.5000115,1.50227848 C10.4987532,1.22613897 10.7215884,1.00126361 10.9977279,1.0000053 C11.0491508,0.99977098 11.098796,1.00730781 11.1455504,1.02151287 C11.3604364,1.07834712 11.518395,1.27458472 11.517335,1.50719978 L11.5086897,3.40444809 L11.5154222,4.88192299 L20.756329,6.43203691 C21.0762487,6.48570178 21.2611633,6.82508546 21.1328019,7.12299808 L17.6704245,15.1587936 L20.8854491,16.6625463 C21.4893257,16.9449954 21.0656519,17.8508103 20.4617754,17.5683611 L17.1471088,16.0180032 L11.4644168,22.4768376 C11.4364251,22.5327091 11.3974209,22.584232 11.3476187,22.6280496 C11.2131527,22.7463571 11.0329954,22.7794359 10.8732138,22.7315093 C10.8001397,22.7124184 10.7302982,22.6764201 10.6697278,22.6231283 C10.6275419,22.5860118 10.5931038,22.5433665 10.566544,22.4972326 L4.87023774,16.0229245 L1.55557114,17.5732824 C0.951694563,17.8557316 0.528020819,16.9499167 1.13189739,16.6674676 L4.34692201,15.1637149 L0.884544649,7.12791938 C0.756183255,6.83000676 0.941097784,6.49062308 1.26101755,6.4369582 L10.486485,4.88943416 Z" id="Combined-Shape" fill-rule="evenodd"></path>
            </g>
            <g id="4" transform="translate(8.000000, 7.000000)">
                <path d="M4.40136719,9 L4.40136719,7.27148438 L0.885742188,7.27148438 L0.885742188,5.83007812 L4.61230469,0.375 L5.99511719,0.375 L5.99511719,5.82421875 L7.06152344,5.82421875 L7.06152344,7.27148438 L5.99511719,7.27148438 L5.99511719,9 L4.40136719,9 Z M4.40136719,5.82421875 L4.40136719,2.88867188 L2.42675781,5.82421875 L4.40136719,5.82421875 Z"></path>
            </g>
        </g>
    </g>
</svg>