<svg width="24" height="24" viewBox="0 0 24 24" xmlns="http://www.w3.org/2000/svg"><title>small-d10-9</title><g fill-rule="evenodd"><path d="M11.494 21.473v-3.009l-6.355-2.487-1.95 1.122 8.305 4.374zm7.367-5.496l-6.355 2.487v3.01l8.306-4.375-1.95-1.122zm-.63-.827L12 2.822 5.77 15.15 12 17.589l6.23-2.44zM10.132 4.3l-7.524 6.606v5.373l2.073-1.193 5.451-10.785zm3.736 0l5.451 10.786 2.073 1.193v-5.373L13.868 4.3zM12 0l11.392 10v8L12 24 .608 18v-8L12 0z"/><path d="M9.208 15.014l1.594-.176c.039.324.14.564.304.72.165.157.381.235.65.235.34 0 .63-.156.868-.469.238-.312.39-.96.457-1.945-.414.48-.932.72-1.553.72-.675 0-1.258-.26-1.749-.782-.49-.521-.735-1.2-.735-2.036 0-.87.259-1.573.776-2.106.518-.533 1.177-.8 1.978-.8.87 0 1.586.337 2.144 1.01.559.675.838 1.783.838 3.326 0 1.57-.29 2.703-.873 3.398-.582.696-1.34 1.043-2.273 1.043-.672 0-1.215-.178-1.63-.536-.413-.357-.679-.891-.796-1.602zm3.727-3.598c0-.531-.122-.943-.367-1.236-.244-.293-.526-.44-.846-.44a.949.949 0 0 0-.76.36c-.2.24-.3.634-.3 1.181 0 .555.109.962.327 1.222.219.26.492.39.82.39.317 0 .584-.125.8-.375.217-.25.326-.618.326-1.102z"/></g></svg>