<?xml version="1.0" encoding="UTF-8"?>
<svg width="24px" height="24px" viewBox="0 0 24 24" version="1.1" xmlns="http://www.w3.org/2000/svg" xmlns:xlink="http://www.w3.org/1999/xlink">
    <!-- Generator: sketchtool 42 (36781) - http://www.bohemiancoding.com/sketch -->
    <title>small-d20-20</title>
    <desc>Created with sketchtool.</desc>
    <defs></defs>
    <g id="Font" stroke="none" stroke-width="1" fill="none" fill-rule="evenodd">
        <g id="small-d20-20" fill="#000000">
            <g id="d20-outline" transform="translate(1.000000, 0.000000)">
                <path d="M2,7.15470054 L2,16.8452995 L11,21.6905989 L20,16.8452995 L20,7.15470054 L11,2.30940108 L2,7.15470054 Z M11,0 L22,6 L22,18 L11,24 L7.05086318e-15,18 L0,6 L11,0 Z" id="Polygon-3" fill-rule="nonzero"></path>
                <path d="M6.35649368,16 L6.18202337,16 L11.0065083,21.4834133 L15.8309932,16 L15.6435063,16 C16.1343296,15.4009348 16.5115071,14.7051681 16.7421108,13.9456277 L16.9494964,14.30483 L19.9621518,7.31278939 L12.1567015,6.0034658 L12.3594693,6.35466982 C11.922661,6.25348455 11.4675765,6.19999981 11,6.19999981 C10.5324235,6.19999981 10.077339,6.25348455 9.64053074,6.35466982 L9.83829237,6.01213663 L2.05519469,7.31771068 L5.05922274,14.289728 L5.25788919,13.9456277 C5.48849294,14.7051681 5.8656704,15.4009348 6.35649368,16 Z M10.486485,4.88943416 L10.5020352,4.86250025 L10.5086793,3.40444809 L10.5000115,1.50227848 C10.4987532,1.22613897 10.7215884,1.00126361 10.9977279,1.0000053 C11.0491508,0.99977098 11.098796,1.00730781 11.1455504,1.02151287 C11.3604364,1.07834712 11.518395,1.27458472 11.517335,1.50719978 L11.5086897,3.40444809 L11.5154222,4.88192299 L20.756329,6.43203691 C21.0762487,6.48570178 21.2611633,6.82508546 21.1328019,7.12299808 L17.6704245,15.1587936 L20.8854491,16.6625463 C21.4893257,16.9449954 21.0656519,17.8508103 20.4617754,17.5683611 L17.1471088,16.0180032 L11.4644168,22.4768376 C11.4364251,22.5327091 11.3974209,22.584232 11.3476187,22.6280496 C11.2131527,22.7463571 11.0329954,22.7794359 10.8732138,22.7315093 C10.8001397,22.7124184 10.7302982,22.6764201 10.6697278,22.6231283 C10.6275419,22.5860118 10.5931038,22.5433665 10.566544,22.4972326 L4.87023774,16.0229245 L1.55557114,17.5732824 C0.951694563,17.8557316 0.528020819,16.9499167 1.13189739,16.6674676 L4.34692201,15.1637149 L0.884544649,7.12791938 C0.756183255,6.83000676 0.941097784,6.49062308 1.26101755,6.4369582 L10.486485,4.88943416 Z" id="Combined-Shape" fill-rule="evenodd"></path>
            </g>
            <g id="2" transform="translate(5.000000, 7.000000)">
                <path d="M6.73339844,7.47070312 L6.73339844,9 L0.961914062,9 C1.02441438,8.42187211 1.2119125,7.87402603 1.52441406,7.35644531 C1.83691563,6.8388646 2.45409695,6.15234803 3.37597656,5.296875 C4.11816777,4.60546529 4.57324135,4.13671998 4.74121094,3.890625 C4.96777457,3.55077955 5.08105469,3.21484541 5.08105469,2.8828125 C5.08105469,2.51562316 4.98242286,2.23339942 4.78515625,2.03613281 C4.58788964,1.8388662 4.31543143,1.74023438 3.96777344,1.74023438 C3.62402172,1.74023438 3.35058695,1.84374896 3.14746094,2.05078125 C2.94433492,2.25781354 2.82714859,2.6015601 2.79589844,3.08203125 L1.15527344,2.91796875 C1.25293018,2.01171422 1.55956773,1.3613301 2.07519531,0.966796875 C2.59082289,0.572263652 3.2353477,0.375 4.00878906,0.375 C4.85644955,0.375 5.52245852,0.60351334 6.00683594,1.06054688 C6.49121336,1.51758041 6.73339844,2.0859341 6.73339844,2.765625 C6.73339844,3.15234568 6.66406319,3.52050606 6.52539062,3.87011719 C6.38671806,4.21972831 6.16699369,4.58593559 5.86621094,4.96875 C5.66699119,5.22265752 5.30761979,5.58788824 4.78808594,6.06445312 C4.26855209,6.54101801 3.93945382,6.85742109 3.80078125,7.01367188 C3.66210868,7.16992266 3.54980512,7.32226488 3.46386719,7.47070312 L6.73339844,7.47070312 Z"></path>
            </g>
            <g id="0" transform="translate(12.000000, 7.000000)">
                <path d="M2.95605469,0.375 C3.7880901,0.375 4.43847422,0.671872031 4.90722656,1.265625 C5.46582311,1.96875352 5.74511719,3.13475748 5.74511719,4.76367188 C5.74511719,6.38868 5.46387,7.55663707 4.90136719,8.26757812 C4.43652111,8.85351855 3.7880901,9.14648438 2.95605469,9.14648438 C2.12011301,9.14648438 1.44629162,8.82519853 0.934570313,8.18261719 C0.422849004,7.54003585 0.166992188,6.39453949 0.166992188,4.74609375 C0.166992188,3.12889816 0.448239375,1.9648473 1.01074219,1.25390625 C1.47558826,0.66796582 2.12401928,0.375 2.95605469,0.375 Z M2.95605469,1.74023438 C2.75683494,1.74023438 2.57910234,1.8037103 2.42285156,1.93066406 C2.26660078,2.05761782 2.14550824,2.28515461 2.05957031,2.61328125 C1.9462885,3.03906463 1.88964844,3.75585434 1.88964844,4.76367188 C1.88964844,5.77148941 1.94042918,6.4638653 2.04199219,6.84082031 C2.1435552,7.21777532 2.2714836,7.46874937 2.42578125,7.59375 C2.5800789,7.71875063 2.75683494,7.78125 2.95605469,7.78125 C3.15527443,7.78125 3.33300703,7.71777407 3.48925781,7.59082031 C3.64550859,7.46386655 3.76660113,7.23632977 3.85253906,6.90820312 C3.96582088,6.48632602 4.02246094,5.77148941 4.02246094,4.76367188 C4.02246094,3.75585434 3.9716802,3.06347845 3.87011719,2.68652344 C3.76855418,2.30956843 3.64062577,2.05761782 3.48632812,1.93066406 C3.33203048,1.8037103 3.15527443,1.74023438 2.95605469,1.74023438 Z"></path>
            </g>
        </g>
    </g>
</svg>