<?xml version="1.0" encoding="UTF-8"?>
<svg width="24px" height="24px" viewBox="0 0 24 24" version="1.1" xmlns="http://www.w3.org/2000/svg" xmlns:xlink="http://www.w3.org/1999/xlink">
    <!-- Generator: sketchtool 42 (36781) - http://www.bohemiancoding.com/sketch -->
    <title>solid-small-dot-d6-6</title>
    <desc>Created with sketchtool.</desc>
    <defs></defs>
    <g id="Font" stroke="none" stroke-width="1" fill="none" fill-rule="evenodd">
        <g id="solid-small-dot-d6-6" fill="#000000">
            <g id="d6-6" transform="translate(2.000000, 2.000000)">
                <path d="M0,1.99079514 C0,0.891309342 0.898212381,0 1.99079514,0 L18.0092049,0 C19.1086907,0 20,0.898212381 20,1.99079514 L20,18.0092049 C20,19.1086907 19.1017876,20 18.0092049,20 L1.99079514,20 C0.891309342,20 0,19.1017876 0,18.0092049 L0,1.99079514 Z M5,17 C6.1045695,17 7,16.1045695 7,15 C7,13.8954305 6.1045695,13 5,13 C3.8954305,13 3,13.8954305 3,15 C3,16.1045695 3.8954305,17 5,17 Z M15,17 C16.1045695,17 17,16.1045695 17,15 C17,13.8954305 16.1045695,13 15,13 C13.8954305,13 13,13.8954305 13,15 C13,16.1045695 13.8954305,17 15,17 Z M5,12 C6.1045695,12 7,11.1045695 7,10 C7,8.8954305 6.1045695,8 5,8 C3.8954305,8 3,8.8954305 3,10 C3,11.1045695 3.8954305,12 5,12 Z M15,12 C16.1045695,12 17,11.1045695 17,10 C17,8.8954305 16.1045695,8 15,8 C13.8954305,8 13,8.8954305 13,10 C13,11.1045695 13.8954305,12 15,12 Z M15,7 C16.1045695,7 17,6.1045695 17,5 C17,3.8954305 16.1045695,3 15,3 C13.8954305,3 13,3.8954305 13,5 C13,6.1045695 13.8954305,7 15,7 Z M5,7 C6.1045695,7 7,6.1045695 7,5 C7,3.8954305 6.1045695,3 5,3 C3.8954305,3 3,3.8954305 3,5 C3,6.1045695 3.8954305,7 5,7 Z" id="Combined-Shape"></path>
            </g>
        </g>
    </g>
</svg>